<svg width="160" height="190" viewBox="0 0 160 190" fill="none" xmlns="http://www.w3.org/2000/svg">
<rect x="1.5" y="1.5" width="157" height="187" rx="6.5" fill="white"/>
<rect x="1.5" y="1.5" width="157" height="187" rx="6.5" stroke="#3FB0F7" stroke-width="3"/>
<path fill-rule="evenodd" clip-rule="evenodd" d="M31.362 15.437H127.942C133.9 15.437 138.775 20.2838 138.775 26.2074V94.3869C138.775 100.311 133.9 105.158 127.942 105.158H31.362C25.4037 105.158 20.5286 100.311 20.5286 94.3869V26.2074C20.5286 20.2837 25.4036 15.437 31.362 15.437Z" fill="url(#paint0_linear_277_92741)"/>
<path opacity="0.5" fill-rule="evenodd" clip-rule="evenodd" d="M111.301 126.239L72.6779 103.884C71.2445 103.22 69.1382 102.594 67.7323 103.462L64.135 105.683C63.4113 106.13 61.0316 107.613 62.6233 108.49C67.3059 111.07 97.2252 128.786 101.98 131.407C102.879 131.903 104.195 132.082 105.576 131.966C106.951 131.85 108.378 131.473 109.47 130.791L110.907 129.892C111.923 129.257 112.486 128.564 112.54 127.899C112.593 127.249 112.181 126.646 111.301 126.239Z" fill="#6D6AFD"/>
<path fill-rule="evenodd" clip-rule="evenodd" d="M110.276 123.696C110.27 125.601 109.6 126.942 108.528 127.573L106.827 128.609C100.994 126.087 103.159 96.1255 102.803 87.6078L104.594 42.9072C103.088 40.2401 97.2936 37.9125 98.6461 32.4656L81.5473 24.3541C80.7881 23.831 60.8345 12.1205 64.4163 9.92444C65.0153 9.55736 65.6081 9.18751 66.1997 8.839C67.5221 8.04623 69.2075 8.5364 70.4453 9.25979L104.469 29.0367C107.809 30.9864 110.428 35.7048 110.418 39.4776L110.276 123.696Z" fill="#303A7D"/>
<path fill-rule="evenodd" clip-rule="evenodd" d="M62.6801 13.8014C62.6852 11.9336 63.3236 10.6072 64.358 9.96107C65.4474 9.28027 66.9763 9.3539 68.6671 10.3435L102.691 30.1198C105.984 32.0468 108.65 36.7262 108.639 40.5613L108.497 124.779C108.487 128.614 105.803 130.164 102.509 128.237L68.4864 108.461C65.1894 106.532 62.5271 101.854 62.5377 98.0193L62.6801 13.8014Z" fill="#3E4992"/>
<path fill-rule="evenodd" clip-rule="evenodd" d="M64.5013 17.4219C64.511 13.8921 66.9778 12.4638 70.0118 14.2394L101.327 32.4415C104.358 34.2153 106.812 38.5221 106.802 42.052L106.672 121.158C106.662 124.687 104.192 126.114 101.16 124.34L69.8453 106.138C66.8107 104.363 64.3603 100.057 64.3701 96.5277L64.5013 17.4219Z" fill="url(#paint1_linear_277_92741)"/>
<path opacity="0.5" fill-rule="evenodd" clip-rule="evenodd" d="M27.5645 113.629L43.7031 104.314C45.4623 103.5 47.9804 102.851 49.7729 103.797C51.4062 104.658 54.0967 106.421 55.2863 107.108C56.1898 107.631 59.3265 109.535 57.3728 110.612C51.6257 113.779 45.9382 117.341 40.1023 120.558C38.9985 121.166 37.384 121.386 35.6891 121.243C34.0015 121.101 32.2705 120.603 30.9092 119.801C29.9393 119.229 28.9856 118.666 28.0474 118.113C26.7814 117.366 26.1103 116.482 26.0438 115.666C25.9787 114.868 26.4846 114.128 27.5645 113.629Z" fill="#6D6AFD"/>
<path fill-rule="evenodd" clip-rule="evenodd" d="M50.8702 59.6609C49.658 58.9544 45.3544 52.6831 43.0712 49.2372C41.7755 47.2817 42.0542 45.4481 44.046 44.7472C47.9861 43.3608 49.1221 48.3582 50.3788 50.7423C51.783 53.406 53.3299 55.5201 53.6686 57.5712C53.9175 59.0785 52.1318 60.396 50.8702 59.6609Z" fill="#7662E3"/>
<path fill-rule="evenodd" clip-rule="evenodd" d="M34.9228 107.91C34.8251 108.236 34.8673 108.507 34.6972 108.935C34.5271 109.362 34.3247 109.839 34.1319 110.581C33.834 111.728 34.1577 113.264 33.7536 114.886C33.5505 115.535 33.55 116.055 33.9596 116.628C34.361 117.189 35.1208 118.09 36.1445 118.056C36.3784 118.048 36.858 117.954 37.2382 117.525C37.6376 117.075 37.9721 116.418 37.9362 115.602C37.9225 115.293 37.773 114.296 37.8282 113.389C37.8765 112.594 38.0322 112.157 38.0383 111.286C38.0446 110.365 38.0097 109.097 38.0121 108.503L34.9228 107.91Z" fill="#16193B"/>
<path fill-rule="evenodd" clip-rule="evenodd" d="M44.0909 103.19C43.7718 104.006 43.5672 104.355 43.5219 105.494C43.6872 106.095 44.0982 106.339 44.5526 106.754L44.8789 106.827C45.6807 107.274 45.9351 108.839 46.6707 109.552C47.1899 110.055 48.2427 110.328 49.2899 110.534C50.4091 110.755 51.4871 110.429 51.2189 109.532C50.5527 107.304 47.4769 104.788 47.4736 102.298L44.0909 103.19Z" fill="#16193B"/>
<path fill-rule="evenodd" clip-rule="evenodd" d="M49.252 87.3107C49.0534 91.5788 47.9149 99.5666 47.9389 103.773C46.8326 104.866 44.6875 104.527 44.0181 103.409C43.6881 99.5387 43.3306 94.0406 43.339 91.9169C43.346 90.1493 43.5473 88.5238 44.0368 86.9366C43.5404 82.2665 41.0549 75.8942 41.8101 71.5003C42.1418 69.5704 43.4471 67.493 43.8543 65.9009C46.8852 69.8201 49.3291 67.9416 50.6375 67.6011C50.5925 68.9553 50.6988 68.7745 50.6161 70.1979C50.3367 75.0105 49.9738 80.1495 49.575 85.1431C49.5634 85.8892 49.4749 86.7087 49.252 87.3107Z" fill="url(#paint2_linear_277_92741)"/>
<path opacity="0.3" fill-rule="evenodd" clip-rule="evenodd" d="M43.5004 95.9653C43.3998 94.2848 43.3355 92.8216 43.339 91.9169C43.346 90.1493 43.5473 88.5238 44.0368 86.9366C43.5404 82.2665 41.0549 75.8942 41.8101 71.5003C42.1418 69.5704 43.4471 67.493 43.8543 65.9009C46.8852 69.8201 49.3291 67.9416 50.6375 67.6012C50.6324 67.7522 50.6293 67.884 50.6276 68.0011L46.4285 71.0816L47.4487 70.8498C47.2568 76.3958 46.4401 81.4516 46.187 86.9209C45.0396 90.0223 44.3419 92.6714 43.5201 95.8677L43.5004 95.9653Z" fill="#1E2353"/>
<path fill-rule="evenodd" clip-rule="evenodd" d="M42.1702 90.4133C41.2959 94.6815 38.8027 105.039 38.1607 109.245C36.7807 110.01 35.056 109.61 34.6068 108.491C34.698 104.621 34.9057 97.6606 35.2501 95.537C35.5368 93.7694 36.2295 91.0428 36.9703 89.4554C36.9674 79.4836 35.9415 76.8258 37.3921 72.4318C38.0293 70.502 39.6086 68.64 40.268 67.0479C41.0744 68.3591 42.3227 70.2201 45.114 69.9898C45.387 69.9674 47.7553 68.2862 48.5273 68.0933C47.3918 74.0259 44.3777 81.7752 42.8365 88.2458C42.7068 88.9918 42.4884 89.8113 42.1702 90.4133Z" fill="url(#paint3_linear_277_92741)"/>
<path fill-rule="evenodd" clip-rule="evenodd" d="M45.7246 45.1461C46.0282 45.1623 46.3027 45.2385 46.5922 45.3756C48.6912 46.37 49.4733 49.6666 49.9993 52.5758C50.4555 55.0992 50.3108 57.1868 50.3909 59.5192C50.4548 61.38 50.8092 63.0811 50.8477 64.8438C50.8592 65.3658 50.9723 65.9004 50.8218 66.4993C50.7694 66.8955 50.712 67.5195 50.7377 67.825C49.0718 71.5311 40.1622 72.0758 38.6156 69.8705C38.7807 69.471 38.8256 69.2434 38.8745 68.8618C38.0799 68.122 38.5895 66.0461 38.3505 64.6415C38.1709 63.5868 37.9461 62.5139 37.5826 61.7612C36.059 58.6066 34.0715 56.2352 33.5395 53.7685C33.1732 52.0697 35.1911 49.7795 37.9265 47.8471C40.5586 45.9875 44.2238 44.8152 45.7246 45.1461Z" fill="url(#paint4_linear_277_92741)"/>
<path fill-rule="evenodd" clip-rule="evenodd" d="M49.9766 54.3191C49.5389 54.8049 48.8016 55.5728 47.826 56.407L49.2286 58.2585L49.9766 54.3191ZM39.0634 62.3526C39.1975 62.3529 39.314 62.4671 39.3237 62.6078C39.3333 62.7485 39.2325 62.8625 39.0984 62.862C38.9643 62.8618 38.8478 62.7475 38.8381 62.6068C38.8284 62.4661 38.9293 62.3522 39.0634 62.3526ZM40.4179 60.7501C40.5519 60.7504 40.6685 60.8646 40.6782 61.0053C40.6878 61.1461 40.5869 61.2599 40.4529 61.2596C40.3187 61.2593 40.2022 61.145 40.1926 61.0044C40.1829 60.8636 40.2838 60.7498 40.4179 60.7501ZM42.1972 61.7409C42.3313 61.7412 42.4478 61.8554 42.4576 61.9961C42.4672 62.1368 42.3663 62.2507 42.2322 62.2505C42.0981 62.2501 41.9816 62.1358 41.9719 61.9951C41.9623 61.8545 42.0632 61.7407 42.1972 61.7409ZM43.5059 59.7049C43.64 59.7052 43.7565 59.8194 43.7663 59.9602C43.7759 60.101 43.675 60.2148 43.541 60.2145C43.4069 60.2142 43.2904 60.0999 43.2807 59.9592C43.2711 59.8185 43.3719 59.7047 43.5059 59.7049ZM45.3618 60.3025C45.4959 60.3029 45.6125 60.4172 45.622 60.5578C45.6317 60.6985 45.5309 60.8125 45.3967 60.8121C45.2627 60.8118 45.1462 60.6976 45.1366 60.5569C45.1269 60.4162 45.2277 60.3022 45.3618 60.3025ZM46.2922 58.0893C46.4264 58.0895 46.5429 58.2038 46.5526 58.3445C46.5622 58.4853 46.4614 58.5991 46.3273 58.5988C46.1932 58.5985 46.0767 58.4843 46.067 58.3435C46.0574 58.2028 46.1583 58.089 46.2922 58.0893ZM48.1453 58.414C48.2794 58.4143 48.3959 58.5286 48.4057 58.6693C48.4153 58.8101 48.3144 58.9239 48.1804 58.9236C48.0463 58.9233 47.9298 58.8091 47.9201 58.6683C47.9104 58.5276 48.0113 58.4138 48.1453 58.414ZM48.9521 56.0238C49.0862 56.0242 49.2027 56.1385 49.2125 56.2791C49.2221 56.4198 49.1213 56.5338 48.9871 56.5334C48.853 56.5331 48.7365 56.4189 48.7269 56.2782C48.7172 56.1375 48.8181 56.0235 48.9521 56.0238ZM50.3521 56.5623C50.3205 56.5204 50.3001 56.4691 50.2963 56.4137C50.2918 56.3491 50.3108 56.2903 50.3454 56.2455L50.3521 56.5623ZM37.3478 61.0166C37.482 61.017 37.5985 61.1311 37.6081 61.272C37.6157 61.3815 37.5562 61.4748 37.4662 61.5106C37.3888 61.3549 37.3104 61.2011 37.2312 61.0491C37.2648 61.0285 37.3045 61.0166 37.3478 61.0166ZM47.43 56.7383C46.7204 57.3185 45.9036 57.9161 44.9985 58.4617L46.892 60.2638L47.43 56.7383ZM44.579 58.7066C43.8275 59.1328 43.0211 59.5182 42.1698 59.8264L43.9352 61.9019L44.579 58.7066ZM41.6097 60.0154C40.7785 60.2763 39.9084 60.4589 39.0086 60.5325L40.6357 62.9192L41.6097 60.0154ZM38.6779 60.5544C38.1085 60.5836 37.528 60.5688 36.9384 60.5009C36.8419 60.3244 36.7448 60.1499 36.6472 59.9778C38.4709 60.248 40.2139 59.9845 41.8044 59.435L41.8135 59.4078L41.8294 59.4263C46.6348 57.7556 50.0403 53.4822 50.0535 53.4659L50.1285 53.3472C50.1803 53.7188 50.2203 54.0819 50.2512 54.439L49.552 58.1219C49.8833 57.7926 50.1554 57.5022 50.3613 57.274L50.3677 57.9999C48.5231 59.9406 43.808 64.1936 38.2055 63.8209C38.1721 63.6551 38.137 63.4908 38.0998 63.3299C38.924 63.3936 39.7295 63.352 40.5092 63.2293L38.8825 60.8433L38.0259 63.0261C37.9843 62.864 37.9401 62.7063 37.8929 62.5543L38.6779 60.5544ZM40.8641 63.168C41.9063 62.9695 42.8998 62.6293 43.8278 62.2057L41.9337 59.9791L40.8641 63.168ZM44.2096 62.0251C45.1284 61.575 45.9777 61.0482 46.7401 60.5044L44.8739 58.7284L44.2096 62.0251ZM47.2019 60.1652L47.7251 56.7371L49.1034 58.5565C48.5739 59.0559 47.9337 59.6126 47.2019 60.1652Z" fill="#9789E9"/>
<path opacity="0.25" fill-rule="evenodd" clip-rule="evenodd" d="M40.4622 70.8991C39.6076 70.6829 38.9447 70.3386 38.6157 69.8695C38.7809 69.47 38.8258 69.2425 38.8745 68.8608C38.0799 68.1212 38.5897 66.0452 38.3506 64.6405C38.171 63.5858 37.9463 62.5128 37.5829 61.7602C36.0591 58.6056 34.0716 56.2344 33.5396 53.7675C33.3458 52.8689 33.8192 51.8049 34.7129 50.7159C35.6349 50.5637 36.5135 50.6823 37.085 51.1722C38.6077 52.4777 38.9652 55.5322 39.4349 57.6078C40.1469 60.754 42.2424 59.6579 43.7681 58.8366C43.1008 59.6096 42.0962 60.0512 41.0891 60.3054C40.7345 60.3949 40.4469 61.0997 40.4997 61.8222C40.6576 63.9821 40.8815 66.7296 40.8815 68.9283C43.788 69.9955 47.1851 69.1307 48.7988 68.4266C46.2971 70.0077 43.4039 70.1471 40.8403 69.7849C40.5142 70.083 40.4503 70.4733 40.4622 70.8991Z" fill="url(#paint5_linear_277_92741)"/>
<path fill-rule="evenodd" clip-rule="evenodd" d="M34.8569 69.2041C35.3192 69.375 36.1191 69.4714 36.457 69.5941C36.6318 69.6575 37.8918 70.1414 38.6066 70.4453C39.3709 70.7702 39.6905 71.3955 40.2367 72.052C40.6427 72.5954 40.8505 73.005 40.9507 73.2976C41.054 73.5997 40.3915 74.3527 40.0459 74.3445C39.2613 74.3261 38.312 73.5437 38.0933 73.4791C36.2372 72.9303 35.4138 73.004 34.668 72.4212C34.3496 72.1725 34.0197 71.3249 33.3299 70.6417L34.1783 69.4883L34.8569 69.2041Z" fill="url(#paint6_linear_277_92741)"/>
<path fill-rule="evenodd" clip-rule="evenodd" d="M33.2921 51.5384C30.9851 53.8243 28.6523 57.8364 26.3819 60.7938C25.5675 61.8549 26.0085 62.7334 26.6528 63.6933C27.9524 65.6294 29.4584 67.7546 32.2358 70.1485C32.4438 70.3277 32.6753 70.3408 32.9851 70.4271C33.1595 70.5733 33.4034 70.8368 33.5895 70.9896C33.3588 70.6886 34.6027 69.1778 35.2293 69.2784C35.0682 69.0763 35.0261 68.9948 34.859 68.7624C34.8373 68.473 34.8319 68.2859 34.7244 68.039C34.0677 66.5308 32.3688 64.0296 30.9338 62.4362C32.7878 60.9188 34.4607 59.1816 35.915 57.4797C36.2947 57.0356 36.4992 56.8197 36.8726 56.3587C38.4572 54.4025 37.9996 51.6449 36.5961 50.7056C35.7694 50.1526 34.7047 50.1386 33.2921 51.5384Z" fill="url(#paint7_linear_277_92741)"/>
<path fill-rule="evenodd" clip-rule="evenodd" d="M43.4172 46.4991C43.4086 46.3408 43.408 46.1808 43.4007 46.0105C43.3804 45.5251 43.0448 44.6557 42.9112 43.5654L38.5411 42.8506C39.0187 45.121 38.7665 45.6759 38.8 47.6139C39.2796 49.409 43.9009 49.1209 43.4821 46.9764C43.4513 46.8193 43.4258 46.659 43.4172 46.4991Z" fill="#FFA698"/>
<path fill-rule="evenodd" clip-rule="evenodd" d="M43.4172 46.4991C43.4086 46.3408 43.408 46.1808 43.4008 46.0105C43.3804 45.5251 43.0448 44.6557 42.9112 43.5654L38.5411 42.8506C38.6495 43.3661 38.7207 43.795 38.7665 44.1723C38.9854 45.7001 41.0246 47.9506 43.4821 46.9764C43.4513 46.8192 43.4258 46.659 43.4172 46.4991Z" fill="url(#paint8_linear_277_92741)"/>
<path fill-rule="evenodd" clip-rule="evenodd" d="M43.814 45.7633C43.223 45.6618 41.6365 45.4515 41.0939 45.33C39.9065 45.0642 39.6447 44.165 38.8046 42.9483C37.7011 42.7159 37.2096 42.3601 36.8973 41.8487C36.1559 40.6349 36.2761 38.9158 36.9191 37.7182C37.4811 36.6716 38.3798 36.0469 39.5881 35.7986C41.9357 35.3162 43.5321 36.5631 44.4625 38.3887C44.5422 38.5451 44.5848 38.7004 44.6054 38.8818C44.6539 39.311 44.6494 39.3787 44.7109 39.6671C44.8406 40.2742 45.2996 40.31 45.4526 41.0674C45.6609 42.0982 45.6903 44.2781 45.5085 44.7259C45.3687 45.0701 44.3209 45.63 43.814 45.7633Z" fill="#FFA698"/>
<path fill-rule="evenodd" clip-rule="evenodd" d="M44.0009 37.6177C44.1689 37.8595 44.3219 38.118 44.4602 38.3892C44.5399 38.5456 44.5825 38.7009 44.6031 38.8822C44.6516 39.3114 44.6471 39.3792 44.7086 39.6676C44.8383 40.2746 45.2973 40.3104 45.4503 41.0679C45.5516 41.5692 45.6107 42.3423 45.6236 43.0557C44.7081 44.7341 42.9381 43.9761 42.649 43.8177C41.2937 43.0754 40.492 41.4167 40.4584 39.5476C41.6001 39.4412 43.1968 38.6469 44.0009 37.6177Z" fill="url(#paint9_linear_277_92741)"/>
<path fill-rule="evenodd" clip-rule="evenodd" d="M36.0363 41.5052C36.4056 42.1968 37.7622 43.7914 38.4793 44.2871C39.1564 44.7551 38.7454 44.1464 38.6805 43.5905C38.5408 43.5418 38.4019 43.479 38.2883 43.2853C37.9524 42.7121 37.6267 41.6905 38.5957 41.7006C39.0946 41.7057 39.4838 42.1941 39.6702 42.6667C39.7709 42.7409 39.8738 42.7897 39.9779 42.7986C40.1418 42.8125 40.453 42.7931 40.2957 42.4033C39.7526 41.056 40.3337 40.6854 39.7901 39.9755C39.3827 39.4434 39.3064 39.1705 39.3565 38.8903C39.8115 38.7592 40.2813 39.0807 40.8795 39.0759C41.2952 39.0725 42.9081 38.5489 43.7391 37.4531C44.5424 36.3938 44.0722 35.0428 42.8175 34.6011C42.1193 34.3552 41.5126 34.4851 40.5067 34.3058C38.5873 33.9636 36.8919 35.1488 36.3768 36.7085C34.6024 37.9794 35.2106 39.9588 36.0363 41.5052Z" fill="#562E65"/>
<path fill-rule="evenodd" clip-rule="evenodd" d="M39.6226 37.9996C39.7865 38.5905 40.7769 38.9286 41.7934 38.5396C42.7359 38.1789 43.8874 37.4008 43.8549 36.0619C43.8435 35.5912 43.3403 34.9696 42.7624 34.8796C42.3675 34.818 41.9849 35.0204 41.6615 35.3786C41.1131 35.9856 40.8811 37.0095 40.477 37.4166C40.0926 37.8038 39.6052 37.9369 39.6226 37.9996Z" fill="url(#paint10_linear_277_92741)"/>
<path fill-rule="evenodd" clip-rule="evenodd" d="M38.5896 41.7012C37.6205 41.6912 37.9462 42.7128 38.2822 43.286C38.5131 43.6798 38.8489 43.5328 39.0833 43.8262C39.3626 44.1759 39.7294 44.2598 39.9884 44.1653C40.514 43.9736 39.9263 43.2847 39.7603 42.9887C39.6531 42.4487 39.2046 41.7075 38.5896 41.7012Z" fill="#FFA698"/>
<path fill-rule="evenodd" clip-rule="evenodd" d="M48.2931 49.91C48.0169 49.4516 47.285 48.7074 46.6548 48.1257C45.8523 47.385 45.4719 46.5915 45.2934 45.3159C45.2556 45.0449 45.5263 44.6086 45.8448 44.538C45.9659 44.5113 46.1099 44.4926 46.3831 44.4726C46.5748 44.1411 46.627 44.0888 46.9088 43.8171C47.1295 43.6046 47.2815 43.5736 47.5801 43.6709C48.0356 43.8193 48.4309 43.981 48.6168 44.1361C48.7965 44.2859 49.1469 44.7808 49.4458 45.2614C49.7041 45.6764 50.0516 46.4684 49.975 46.7977C49.8066 47.5208 49.6043 47.6915 49.746 48.1278L50.1281 49.3036L48.2931 49.91Z" fill="#FFB79D"/>
<path fill-rule="evenodd" clip-rule="evenodd" d="M45.9601 44.4841C46.1136 44.1092 46.0874 44.0794 46.3437 43.7539C46.5441 43.4993 46.6989 43.4445 47.0252 43.5025C47.5228 43.5912 47.9593 43.7026 48.176 43.8376C48.3852 43.9679 48.8225 44.4345 49.2038 44.8935C49.533 45.2899 49.6187 45.4775 49.8689 46.0725L49.4455 46.17L48.4834 45.957C46.983 45.9666 46.1996 44.5651 45.9601 44.4841Z" fill="#FFB79D"/>
<path fill-rule="evenodd" clip-rule="evenodd" d="M48.7405 46.2566C48.4622 46.2727 48.5472 46.3314 48.2914 46.2199C48.2871 46.4675 48.117 46.7232 48.0096 46.6929C47.848 46.6231 47.7565 46.5109 47.7286 46.3653C47.6751 46.0873 47.7948 45.7458 48.0599 45.5669C48.17 45.4925 48.5741 45.4854 49.1181 45.4784C49.4014 45.4748 49.5259 45.4546 49.6393 45.5839C49.7079 45.6622 49.7871 45.8105 49.8527 46.0064C49.9821 46.3928 50.0317 46.7228 49.9149 46.9395C49.5701 46.6838 49.2345 46.0454 48.7405 46.2566Z" fill="#FF9989"/>
<path fill-rule="evenodd" clip-rule="evenodd" d="M45.8863 44.5156C46.0396 44.1406 46.0868 44.0783 46.343 43.7529C46.4129 43.6641 46.4773 43.5995 46.5453 43.5557L48.0086 45.585C47.8822 45.754 47.5022 46.5013 48.0335 46.6963C47.5627 46.5245 46.618 45.7977 45.8863 44.5156Z" fill="#FF9989"/>
<path fill-rule="evenodd" clip-rule="evenodd" d="M45.5304 46.2492C45.3015 45.8384 45.3361 45.5183 45.2273 45.1236C45.1507 44.8453 45.2536 44.4928 45.5899 44.4183C45.7177 44.3899 45.8698 44.3703 46.1583 44.3491L46.5275 44.4143C46.7922 45.0029 46.404 45.405 46.0644 45.4353C45.998 45.502 46.3068 46.754 46.4421 47.2159C46.483 47.3552 45.8275 46.9069 45.5304 46.2492Z" fill="#FFB79D"/>
<path fill-rule="evenodd" clip-rule="evenodd" d="M46.5279 44.3965C46.5328 44.7902 46.1753 45.2661 45.4928 45.2452C45.7924 45.4647 46.105 45.4602 46.3372 45.3405C46.6844 45.1616 46.852 44.7254 46.5279 44.3965Z" fill="#FF9989"/>
<path fill-rule="evenodd" clip-rule="evenodd" d="M47.5242 48.9763C47.8112 49.3692 49.7043 48.6996 49.8437 48.3223L50.1899 49.0179C50.402 49.1808 50.7672 49.5101 50.8851 49.6922C52.5847 52.321 53.1976 54.7895 53.9425 57.8593C54.424 59.8434 52.4507 60.9536 51.1871 60.3215C48.7526 59.1039 48.0099 52.7789 47.7107 50.561C47.69 50.4081 47.855 49.9724 47.8153 49.8244C47.73 49.6037 47.5842 49.1106 47.5242 48.9763Z" fill="url(#paint11_linear_277_92741)"/>
<path opacity="0.25" fill-rule="evenodd" clip-rule="evenodd" d="M47.5242 48.9756C47.5922 49.0686 47.7498 49.1019 47.9528 49.0939C48.0207 49.486 48.0774 49.7066 48.2252 49.8364C49.1474 49.6249 49.3624 49.4786 50.1899 49.0173C49.804 49.6084 49.0559 50.1572 48.576 50.3394C48.6945 51.7247 50.2845 59.3551 52.7989 60.318C52.2785 60.5489 51.6792 60.5667 51.1871 60.3208C48.7526 59.1031 48.0098 52.7782 47.7107 50.5603C47.6899 50.4074 47.855 49.9716 47.8153 49.8237C47.73 49.603 47.5844 49.1099 47.5242 48.9756Z" fill="url(#paint12_linear_277_92741)"/>
<path fill-rule="evenodd" clip-rule="evenodd" d="M65.2362 16.8638C65.2412 15.0729 66.4927 14.3482 68.032 15.2491C79.6268 21.9885 91.2292 28.7083 102.823 35.4475C104.361 36.3475 105.606 38.5327 105.601 40.3236L105.535 42.0463C105.53 43.837 104.277 44.5609 102.739 43.6612C91.1462 36.9228 79.5413 30.2015 67.9477 23.4625C66.4079 22.5617 65.1647 20.3772 65.1697 18.5865L65.2362 16.8638Z" fill="#833DF4"/>
<path fill-rule="evenodd" clip-rule="evenodd" d="M94.6293 34.5513C94.6313 34.2353 94.6987 33.9689 94.8169 33.7615C94.9106 33.5974 95.0365 33.4691 95.1876 33.3811C95.3381 33.2935 95.5109 33.2481 95.6984 33.2485C95.9402 33.249 96.207 33.3261 96.4824 33.4872L99.1476 35.0272C99.5807 35.2807 99.9713 35.7058 100.256 36.1921C100.515 36.6336 100.689 37.1315 100.732 37.602L100.803 37.6429C100.989 37.7518 101.155 37.9349 101.273 38.1419C101.391 38.3481 101.463 38.5848 101.462 38.802L101.45 39.1433C101.448 39.2843 101.416 39.4067 101.361 39.5043C101.312 39.5895 101.246 39.6565 101.167 39.7026C101.089 39.7489 100.999 39.7723 100.902 39.7722C100.787 39.7718 100.664 39.7372 100.539 39.6647L100.465 39.6218C100.329 39.8172 100.145 39.9497 99.9252 40.0116C99.6869 40.0788 99.412 40.0595 99.121 39.9435C99.0361 39.9095 98.947 39.8658 98.8552 39.8122L96.1882 38.2714C95.7432 38.011 95.3428 37.5686 95.056 37.0649C94.7694 36.5616 94.5927 35.9905 94.5941 35.4719L94.6293 34.5513ZM95.2475 34.0143C95.1702 34.1497 95.1263 34.3336 95.1259 34.5603L95.0908 35.481C95.0919 35.9079 95.2428 36.3861 95.4866 36.8143C95.7315 37.2443 96.0681 37.6189 96.4375 37.8351L99.1015 39.3753C99.1681 39.4142 99.2356 39.4472 99.3023 39.4738C99.4903 39.5488 99.6577 39.5641 99.7927 39.5261C99.9156 39.4914 100.018 39.4087 100.089 39.2843C100.105 39.2555 100.121 39.2218 100.136 39.1839L100.241 38.9127C100.355 38.9783 100.714 39.1647 100.786 39.2278C100.833 39.2555 100.873 39.269 100.902 39.269C100.909 39.269 100.916 39.2678 100.92 39.2654C100.923 39.2644 100.926 39.26 100.93 39.2537C100.944 39.2281 100.953 39.1879 100.953 39.1345L100.966 38.7942C100.964 38.6682 100.917 38.5239 100.842 38.3927C100.766 38.2593 100.664 38.1442 100.553 38.0794L100.248 37.903L100.244 37.7617C100.23 37.3378 100.073 36.8682 99.8273 36.4488C99.5837 36.0331 99.2559 35.673 98.898 35.4637L96.2328 33.9237C96.0347 33.8077 95.8534 33.7524 95.6983 33.752C95.5986 33.7518 95.5095 33.7743 95.4349 33.8176C95.3611 33.8605 95.2973 33.927 95.2475 34.0143Z" fill="white"/>
<path opacity="0.5" fill-rule="evenodd" clip-rule="evenodd" d="M72.2119 34.4261L72.2032 37.4574C69.9733 36.1522 68.1563 37.1996 68.149 39.8027C68.1416 42.4018 69.9466 45.5683 72.1769 46.8732C74.4142 48.1822 76.2293 47.1341 76.2364 44.5349C76.2371 44.4185 76.2321 44.2971 76.2251 44.1745L78.8236 45.4658C78.8338 45.6609 78.8385 45.8618 78.838 46.0569C78.8261 50.3305 75.8385 52.0499 72.1686 49.9023C68.4984 47.7552 65.5355 42.5546 65.5476 38.2809C65.5596 34.0029 68.5416 32.2786 72.2119 34.4261Z" fill="white"/>
<path fill-rule="evenodd" clip-rule="evenodd" d="M74.0081 43.0272C74.1825 43.3457 74.2708 43.6658 74.27 43.9918C74.2692 44.3266 74.1683 44.5486 73.9768 44.6672C73.7781 44.78 73.537 44.7575 73.2623 44.5967C73.0088 44.4486 72.7896 44.2352 72.6098 43.9593C72.4301 43.6897 72.313 43.3923 72.2585 43.0709L72.849 43.4166C72.8935 43.5486 72.9538 43.6611 73.0267 43.7641C73.1 43.8588 73.1854 43.9337 73.2746 43.9859C73.3978 44.0581 73.4996 44.0654 73.589 44.0139C73.675 43.9662 73.7201 43.8533 73.7204 43.6973C73.7209 43.5396 73.682 43.3856 73.5966 43.2317C73.5185 43.0881 73.4241 42.979 73.3062 42.9099C73.2439 42.8732 73.1886 42.8616 73.1259 42.8586C73.0686 42.8645 73.0078 42.8809 72.9507 42.9183L72.4958 42.5357L72.8563 40.8382L74.232 41.643L74.2304 42.2456L73.2757 41.6869L73.1492 42.2414C73.183 42.2488 73.217 42.2624 73.2509 42.276C73.2794 42.2865 73.3132 42.3062 73.342 42.3229C73.6113 42.4808 73.8302 42.713 74.0081 43.0272ZM71.3128 41.2588C71.3843 41.2089 71.4187 41.1252 71.4189 40.9942C71.4193 40.8569 71.3857 40.725 71.3075 40.5937C71.2345 40.4595 71.151 40.3646 71.0509 40.3063C70.9492 40.2467 70.8581 40.2392 70.7846 40.2817C70.7061 40.3272 70.6717 40.4197 70.6714 40.5505C70.6711 40.6877 70.7046 40.8115 70.7777 40.9455C70.8506 41.0736 70.9415 41.1724 71.0538 41.2384C71.1534 41.2966 71.2448 41.3043 71.3128 41.2588ZM71.0456 39.6936C71.3094 39.8479 71.5288 40.0823 71.7082 40.4039C71.8826 40.7222 71.9712 41.0219 71.9703 41.296C71.97 41.4018 71.9538 41.4964 71.9301 41.595C71.9013 41.6822 71.8331 41.8068 71.7377 41.9737L70.9747 43.2588L70.4974 42.6963L71.0179 41.8335C70.7648 41.6854 70.551 41.4559 70.3783 41.1511C70.2042 40.8411 70.1209 40.5301 70.1218 40.2229C70.1229 39.9217 70.2126 39.7245 70.3934 39.62C70.5742 39.5155 70.7868 39.5421 71.0456 39.6936Z" fill="white"/>
<path opacity="0.25" fill-rule="evenodd" clip-rule="evenodd" d="M72.2161 34.4258C75.7217 36.477 78.5855 41.3115 78.8279 45.4655L76.2293 44.1742C76.0792 41.641 74.3433 38.7066 72.2075 37.4572L72.2161 34.4258Z" fill="white"/>
<path fill-rule="evenodd" clip-rule="evenodd" d="M84.6295 55.584C84.7172 55.4587 84.7658 55.1973 84.7668 54.7874C84.7679 54.3717 84.7277 54.0641 84.6491 53.8609C84.5674 53.6558 84.4638 53.5167 84.3389 53.4434C84.2516 53.3924 84.1742 53.3777 84.1068 53.4035C84.039 53.431 83.9863 53.515 83.9494 53.6512C83.9128 53.7868 83.8973 54.0063 83.8965 54.3148C83.8955 54.7133 83.9356 55.0148 84.0176 55.2143C84.0944 55.4091 84.2045 55.5522 84.3328 55.6271C84.4579 55.7002 84.5565 55.6854 84.6295 55.584ZM82.4488 54.0777L82.142 54.2722L83.1106 54.8391L83.1091 55.3947L81.2291 54.2948L81.2299 54.0054L82.0716 53.5002C82.2746 53.383 82.4098 53.2704 82.4779 53.1641C82.5456 53.0581 82.5823 52.9468 82.5825 52.8262C82.5827 52.7055 82.5469 52.5888 82.4748 52.462C82.4075 52.344 82.319 52.2558 82.2102 52.1923C82.0969 52.1259 82.0077 52.1218 81.9301 52.1722C81.8574 52.2218 81.816 52.33 81.809 52.4946L81.3074 52.2013C81.3232 51.8671 81.4177 51.6498 81.5892 51.5563C81.7608 51.4629 81.9783 51.4886 82.2432 51.6434C82.4093 51.7406 82.5539 51.8675 82.6769 52.018C82.8066 52.1785 82.905 52.3513 82.9821 52.5458C83.0541 52.7454 83.0948 52.9207 83.0941 53.0833C83.0936 53.2711 83.0471 53.4433 82.9527 53.605C82.86 53.7696 82.693 53.9253 82.4488 54.0777ZM85.1627 54.0404C85.2394 54.3213 85.2811 54.672 85.28 55.0819C85.2788 55.5033 85.2353 55.8059 85.1573 55.9943C85.0795 56.1789 84.9702 56.2897 84.8352 56.3199C84.6999 56.3502 84.5337 56.3067 84.3263 56.1856C84.124 56.067 83.9531 55.9135 83.8136 55.7224C83.6739 55.5255 83.566 55.2993 83.4892 55.0242C83.4124 54.7569 83.3722 54.4128 83.3736 53.997C83.3751 53.4166 83.4537 53.0463 83.609 52.8704C83.7808 52.6872 84.0198 52.6829 84.3258 52.8621C84.5233 52.9775 84.694 53.137 84.8336 53.328C84.9778 53.5276 85.0861 53.7653 85.1627 54.0404Z" fill="white"/>
<path fill-rule="evenodd" clip-rule="evenodd" d="M81.2931 44.9979L81.2946 44.4365L83.0763 45.479L83.0752 45.791L81.8401 47.9945L81.4114 47.5018L82.4331 45.665L81.2931 44.9979ZM84.8751 47.9262C85.0359 48.2141 85.1191 48.5162 85.118 48.8187C85.1173 49.1252 85.0279 49.3338 84.8463 49.4385C84.663 49.5424 84.4456 49.5189 84.1874 49.3678C83.9537 49.231 83.7567 49.0428 83.5925 48.7896C83.4269 48.5409 83.319 48.2668 83.2669 47.9638L83.8113 48.2824C83.8521 48.41 83.9046 48.5135 83.977 48.6039C84.0442 48.6967 84.1165 48.7643 84.1987 48.8122C84.3123 48.8786 84.411 48.8886 84.4886 48.8362C84.5729 48.7896 84.6095 48.69 84.6097 48.5386C84.6102 48.395 84.5744 48.2586 84.5023 48.1187C84.4301 47.9864 84.3363 47.8838 84.2327 47.823C84.1753 47.7892 84.1191 47.7739 84.0666 47.7739C84.0088 47.7708 83.9575 47.7946 83.8998 47.8279L83.4809 47.4676L83.8179 45.913L85.0864 46.6551L85.0847 47.2029L84.1997 46.6851L84.0895 47.2079C84.1209 47.2128 84.1453 47.2215 84.1767 47.2339C84.2079 47.2465 84.2342 47.2619 84.2657 47.2802C84.5093 47.4226 84.7113 47.6367 84.8751 47.9262Z" fill="white"/>
<path opacity="0.5" fill-rule="evenodd" clip-rule="evenodd" d="M86.2843 51.7631C86.3829 51.8209 86.4599 51.958 86.4595 52.0731L86.4584 52.458C86.4582 52.5729 86.3807 52.6177 86.2819 52.5601L80.8247 49.3915C80.7276 49.3347 80.649 49.1984 80.6492 49.0837L80.6503 48.6985C80.6506 48.5836 80.7299 48.5379 80.8271 48.5946L86.2843 51.7631Z" fill="white"/>
<path opacity="0.5" fill-rule="evenodd" clip-rule="evenodd" d="M86.2974 45.4399C86.3962 45.4976 86.4732 45.6405 86.4727 45.7535L86.4717 46.1347C86.4715 46.2496 86.3939 46.3003 86.2953 46.2426L80.838 43.074C80.7409 43.0173 80.6623 42.8753 80.6625 42.7603L80.6636 42.3791C80.6637 42.266 80.7431 42.2146 80.8402 42.2712L86.2974 45.4399Z" fill="white"/>
<path fill-rule="evenodd" clip-rule="evenodd" d="M79.9265 41.5508C80.209 41.7159 80.4378 42.1143 80.4368 42.4335C80.436 42.7624 80.2055 42.8953 79.923 42.7299C79.6491 42.5697 79.4231 42.1698 79.4244 41.8408C79.4253 41.5215 79.6522 41.3907 79.9265 41.5508Z" fill="white"/>
<path fill-rule="evenodd" clip-rule="evenodd" d="M79.9134 47.8513C80.2041 48.0214 80.4393 48.434 80.4384 48.7694C80.4372 49.1077 80.2005 49.2342 79.9099 49.0644C79.6281 48.8989 79.3957 48.498 79.3966 48.1595C79.398 47.8249 79.6314 47.6864 79.9134 47.8513Z" fill="white"/>
<path fill-rule="evenodd" clip-rule="evenodd" d="M65.0181 81.7503C65.0227 80.0749 65.5965 78.8841 66.5232 78.3056C67.4992 77.6962 68.8717 77.761 70.3884 78.6488L100.907 96.3875C103.86 98.1161 106.252 102.313 106.242 105.753L106.115 120.382C106.105 123.822 103.698 125.212 100.744 123.484L70.2262 105.745C67.2689 104.015 64.8808 99.819 64.8904 96.3794L65.0181 81.7503Z" fill="url(#paint13_linear_277_92741)"/>
<path opacity="0.5" fill-rule="evenodd" clip-rule="evenodd" d="M68.1504 104.039L68.1866 90.6464L67.8283 90.3723L67.7925 103.634C67.9093 103.773 68.0287 103.908 68.1504 104.039ZM68.0103 89.3059C67.8045 89.1488 67.6342 89.2119 67.633 89.4492C67.6317 89.6819 67.8015 90.0053 68.0069 90.162C68.216 90.322 68.387 90.2589 68.3877 90.0257C68.3887 89.7887 68.2192 89.4655 68.0103 89.3059ZM74.0048 107.94L74.0591 89.3429L73.6978 89.0668L73.6432 107.729L74.0048 107.94ZM73.8866 88.0056C73.6778 87.846 73.5068 87.9089 73.5059 88.1459C73.505 88.3793 73.6743 88.7027 73.8837 88.8622C74.0855 89.0165 74.2561 88.9532 74.2573 88.7203C74.258 88.483 74.0889 88.1602 73.8866 88.0056ZM79.8573 111.341L79.929 88.0379L79.5776 87.7694L79.506 111.137L79.8573 111.341ZM79.7561 86.7006C79.5469 86.5403 79.3831 86.6087 79.3826 86.85C79.3817 87.0797 79.544 87.3969 79.7529 87.5566C79.9652 87.7188 80.1292 87.6506 80.1301 87.4213C80.1308 87.1803 79.9683 86.8629 79.7561 86.7006ZM85.7152 114.746L85.7875 91.3568L85.4295 91.0837L85.3572 114.538L85.7152 114.746ZM85.6114 90.0164C85.4057 89.8599 85.2349 89.9227 85.2337 90.1598C85.2329 90.393 85.4024 90.7159 85.6081 90.8732C85.8172 91.0326 85.9877 90.9696 85.9885 90.7367C85.9899 90.4993 85.8206 90.1766 85.6114 90.0164ZM91.5698 118.15L91.6294 98.1347L91.2679 97.8584L91.208 117.939L91.5698 118.15ZM91.4497 96.7962C91.2478 96.6413 91.0766 96.7006 91.0761 96.9417C91.0751 97.1708 91.2445 97.4936 91.4464 97.6478C91.6589 97.8103 91.8265 97.745 91.8269 97.5157C91.8284 97.2747 91.6619 96.9582 91.4497 96.7962ZM97.4201 121.55L97.4633 106.068L97.1055 105.794L97.0618 121.342L97.4201 121.55ZM97.2906 104.73C97.0815 104.571 96.9105 104.634 96.9095 104.871C96.9089 105.104 97.0783 105.427 97.2873 105.587C97.4932 105.744 97.6633 105.68 97.6645 105.448C97.6653 105.21 97.4964 104.887 97.2906 104.73ZM103.269 124.225L103.303 111.654L102.948 111.384L102.914 124.219C103.035 124.227 103.153 124.229 103.269 124.225ZM103.13 110.321C102.924 110.163 102.757 110.225 102.756 110.459C102.755 110.696 102.921 111.016 103.126 111.173C103.336 111.333 103.506 111.27 103.508 111.033C103.509 110.8 103.339 110.481 103.13 110.321Z" fill="#3856D8"/>
<path opacity="0.5" fill-rule="evenodd" clip-rule="evenodd" d="M104.888 105.951C104.834 105.857 104.767 105.781 104.7 105.73C104.612 105.663 104.524 105.639 104.464 105.674C103.926 106.016 103.431 106.303 102.962 106.542C102.501 106.786 102.062 106.972 101.652 107.123C99.7402 107.805 98.2499 107.523 96.6549 106.304C95.0899 105.078 93.444 102.897 91.27 99.863C88.8378 96.4681 86.7727 94.0671 84.8184 92.5739C84.5296 92.3534 84.2436 92.1526 83.9593 91.9716C81.7502 90.5627 79.6711 90.3592 77.3343 91.2362C77.0907 91.3197 76.8579 91.4174 76.6249 91.5094C74.8315 92.2197 73.1508 92.8837 71.0181 91.2543C69.9087 90.4067 68.677 88.9385 67.2439 86.5334C67.19 86.441 67.124 86.3654 67.0576 86.3149C66.9691 86.2473 66.8801 86.2238 66.8195 86.2634C66.7189 86.3331 66.7366 86.5656 66.8625 86.776C68.4637 89.4651 69.8269 91.094 71.0478 92.0268C73.3465 93.7832 75.1389 93.0693 77.0525 92.3128C77.2907 92.2251 77.5235 92.1333 77.7617 92.0455C79.9902 91.2057 81.9583 91.3874 84.0275 92.7045C84.2836 92.8681 84.5417 93.0493 84.8019 93.2483C86.6452 94.6565 88.6266 96.9622 90.9753 100.24C93.2306 103.382 94.9427 105.649 96.6418 106.98C96.6742 107.006 96.7069 107.031 96.7392 107.056C98.4194 108.34 100.039 108.659 102.072 107.939C102.492 107.79 102.94 107.592 103.416 107.348C103.888 107.099 104.393 106.808 104.931 106.466C105.037 106.397 105.019 106.174 104.888 105.951Z" fill="#3856D8"/>
<path fill-rule="evenodd" clip-rule="evenodd" d="M104.366 104.499C104.311 104.406 104.245 104.331 104.178 104.281C104.09 104.215 104.002 104.192 103.942 104.229C103.405 104.579 102.911 104.875 102.444 105.121C101.984 105.372 101.545 105.566 101.136 105.723C99.2287 106.435 97.7415 106.175 96.1495 104.977C94.5872 103.773 92.9441 101.612 90.7737 98.605C88.3454 95.24 86.284 92.8653 84.3334 91.3986C84.0452 91.182 83.7597 90.9853 83.4759 90.808C81.2709 89.4296 79.1961 89.2571 76.8642 90.1713C76.6212 90.2587 76.3889 90.3602 76.1563 90.4558C74.3668 91.1947 72.6898 91.8856 70.5609 90.2851C69.4538 89.4524 68.2242 87.9999 66.7933 85.6117C66.7396 85.52 66.6736 85.4451 66.6073 85.3954C66.5192 85.329 66.4302 85.3071 66.3697 85.3474C66.2695 85.419 66.2871 85.6515 66.4127 85.8604C68.0114 88.5309 69.3724 90.1425 70.5909 91.0588C72.8855 92.784 74.6738 92.0417 76.5834 91.2545C76.8211 91.163 77.0536 91.0674 77.2912 90.9759C79.5148 90.1006 81.4789 90.2529 83.544 91.5414C83.7996 91.7016 84.0572 91.8792 84.3171 92.0745C86.1569 93.458 88.135 95.7381 90.4798 98.9876C92.7313 102.101 94.4404 104.347 96.1365 105.656C96.1686 105.681 96.2014 105.706 96.2336 105.73C97.9106 106.991 99.527 107.287 101.555 106.534C101.975 106.378 102.421 106.173 102.897 105.921C103.367 105.665 103.872 105.366 104.408 105.015C104.514 104.945 104.497 104.721 104.366 104.499Z" fill="#00FFFF"/>
<path fill-rule="evenodd" clip-rule="evenodd" d="M65.0905 49.9788C65.0943 48.6301 66.0367 48.0844 67.1957 48.7629C79.5055 55.9178 91.8053 63.0856 104.114 70.2397C105.272 70.9173 106.209 72.5628 106.205 73.9113L106.155 75.2083C106.152 76.5567 105.208 77.1017 104.05 76.4242C91.7401 69.2692 79.4403 62.1018 67.1321 54.9473C65.9727 54.2689 65.0366 52.624 65.0405 51.2758L65.0905 49.9788Z" fill="url(#paint14_linear_277_92741)"/>
<path opacity="0.5" fill-rule="evenodd" clip-rule="evenodd" d="M66.0863 51.199C66.0878 50.7017 66.4351 50.5005 66.8626 50.7506C71.4019 53.389 99.362 69.7456 103.901 72.3837C104.328 72.6336 104.674 73.2404 104.672 73.7376L104.654 74.216C104.652 74.7132 104.305 74.9142 103.877 74.6644C99.338 72.0258 71.3779 55.6695 66.8391 53.0313C66.4117 52.7812 66.0663 52.1745 66.0678 51.6773L66.0863 51.199Z" fill="white"/>
<path fill-rule="evenodd" clip-rule="evenodd" d="M66.0853 51.199C66.0868 50.7017 66.4342 50.5005 66.8616 50.7506C71.401 53.389 85.2586 61.4716 89.7975 64.1097C90.2245 64.3596 90.5701 64.9663 90.5688 65.4637L90.5504 65.9419C90.5489 66.4392 90.201 66.6403 89.774 66.3904C85.2346 63.7518 71.377 55.6695 66.8383 53.0313C66.4107 52.7812 66.0656 52.1745 66.0668 51.6774L66.0853 51.199Z" fill="white"/>
<path opacity="0.5" fill-rule="evenodd" clip-rule="evenodd" d="M87.4739 41.7202C87.4818 38.8483 89.4888 37.6861 91.9573 39.1309L110.743 51.9844L110.447 72.5204L108.657 73.8876L91.8219 63.9543C89.353 62.5097 87.3592 59.0068 87.3672 56.1352L87.4739 41.7202Z" fill="url(#paint15_linear_277_92741)"/>
<path fill-rule="evenodd" clip-rule="evenodd" d="M89.5927 41.5319C89.5952 40.6152 89.2751 40.0469 89.6627 39.5457C89.9094 39.2271 90.768 38.8408 91.131 38.7134C91.8339 38.4667 92.7261 38.5944 93.6961 39.162L121.738 55.7076C123.995 57.0284 125.822 60.2354 125.815 62.8641L125.718 76.0574C125.716 76.8722 125.547 77.9157 124.931 78.4877C124.491 78.8952 123.721 79.3034 123.148 79.3506C122.561 79.3992 122.334 78.8485 121.614 78.4274L93.5723 61.8818C91.3126 60.5596 89.4877 57.3535 89.495 54.7253L89.5927 41.5319Z" fill="#D0E7FF"/>
<path fill-rule="evenodd" clip-rule="evenodd" d="M88.9369 41.9213C88.9443 39.2927 90.7812 38.2291 93.0405 39.5514L121.082 56.0969C123.339 57.4176 125.167 60.6249 125.159 63.2534L125.062 76.4466C125.055 79.0749 123.215 80.1372 120.958 78.8165L92.9166 62.2709C90.6568 60.9488 88.8321 57.7427 88.8394 55.1144L88.9369 41.9213Z" fill="white"/>
<path fill-rule="evenodd" clip-rule="evenodd" d="M88.8482 41.929C88.8555 39.2931 90.6976 38.1891 92.9632 39.5151L121.077 56.0924C123.438 57.4169 125.166 60.6767 125.159 63.3127L125.15 65.809L88.8394 44.4572L88.8482 41.929Z" fill="url(#paint16_linear_277_92741)"/>
<path fill-rule="evenodd" clip-rule="evenodd" d="M92.3289 42.1509C92.8206 42.2826 93.2605 42.8724 93.3115 43.4681C93.3623 44.0637 93.0051 44.4399 92.5133 44.3081C92.0215 44.1762 91.5816 43.5865 91.5308 42.9907C91.4798 42.3951 91.8372 42.019 92.3289 42.1509Z" fill="white"/>
<path fill-rule="evenodd" clip-rule="evenodd" d="M95.0857 43.8457C95.5775 43.9775 96.0172 44.5672 96.0682 45.1629C96.1192 45.7586 95.7618 46.1347 95.2701 46.003C94.7783 45.8711 94.3385 45.2814 94.2876 44.6856C94.2365 44.0899 94.5939 43.7138 95.0857 43.8457Z" fill="white"/>
<path fill-rule="evenodd" clip-rule="evenodd" d="M97.8372 45.541C98.329 45.6728 98.7689 46.2625 98.8198 46.8582C98.8708 47.4539 98.5134 47.83 98.0217 47.6983C97.53 47.5664 97.09 46.9767 97.0391 46.3809C96.9882 45.7852 97.3455 45.4092 97.8372 45.541Z" fill="white"/>
<path opacity="0.2" fill-rule="evenodd" clip-rule="evenodd" d="M94.651 49.9999C97.3857 50.7329 99.8324 54.0128 100.115 57.3256C100.399 60.6385 98.4114 62.7301 95.6767 61.997C92.942 61.2641 90.4954 57.9843 90.2122 54.6713C89.929 51.3585 91.9162 49.2669 94.651 49.9999Z" fill="#6D6AFD"/>
<path fill-rule="evenodd" clip-rule="evenodd" d="M94.8822 52.764C96.3566 53.1591 97.6756 54.9276 97.8284 56.7137C97.9811 58.4999 96.9096 59.6274 95.4352 59.2323C93.9608 58.8371 92.6416 57.0688 92.489 55.2825C92.3363 53.4964 93.4078 52.3688 94.8822 52.764Z" fill="url(#paint17_linear_277_92741)"/>
<path opacity="0.2" fill-rule="evenodd" clip-rule="evenodd" d="M101.618 56.6676C101.62 55.9662 102.11 55.6906 102.713 56.0536L120.986 66.5569C121.588 66.9196 122.076 67.7838 122.074 68.4852L122.074 69.8729C122.072 70.5743 121.581 70.8496 120.979 70.4869L102.706 59.9836C102.103 59.6205 101.615 58.7567 101.617 58.0553L101.618 56.6676Z" fill="#6D6AFD"/>
<path opacity="0.2" fill-rule="evenodd" clip-rule="evenodd" d="M101.618 61.7725C101.619 61.3582 101.908 61.1956 102.264 61.4099L113.055 67.6123C113.411 67.8265 113.698 68.3368 113.697 68.7511V69.5704C113.696 69.9846 113.406 70.1471 113.05 69.9329L102.26 63.7307C101.904 63.5162 101.616 63.0062 101.617 62.5919L101.618 61.7725Z" fill="#6D6AFD"/>
<path opacity="0.5" fill-rule="evenodd" clip-rule="evenodd" d="M117.31 57.5228C117.31 57.2617 117.493 57.1561 117.717 57.2874L121.615 59.4109C121.839 59.5421 122.02 59.8606 122.02 60.1216L122.019 61.0929C122.019 61.354 121.836 61.4595 121.612 61.3282L117.714 59.2048C117.49 59.0735 117.309 58.7551 117.31 58.4941L117.31 57.5228Z" fill="white"/>
<path opacity="0.5" fill-rule="evenodd" clip-rule="evenodd" d="M67.5725 56.5098L84.4266 66.4146L84.3716 85.807L67.517 75.9005L67.5725 56.5098ZM86.8201 67.7926L103.674 77.6978L103.619 97.09L86.7646 87.1837L86.8201 67.7926Z" fill="white"/>
<path opacity="0.5" fill-rule="evenodd" clip-rule="evenodd" d="M62.9914 57.1304L72.4788 62.6404C74.9235 64.0712 76.9029 67.5453 76.8951 70.3926L76.7898 84.6836C76.7818 87.5306 74.7893 88.6814 72.3441 87.2508L62.5654 81.5699L62.6107 77.5526L62.9914 57.1304Z" fill="url(#paint18_linear_277_92741)"/>
<path fill-rule="evenodd" clip-rule="evenodd" d="M56.0393 57.3654C56.0418 56.4487 55.7218 55.8803 56.1094 55.3792C56.3561 55.0605 57.2146 54.6743 57.5777 54.5469C58.2806 54.3002 59.1728 54.4279 60.1427 54.9954L70.9685 61.2829C73.2252 62.6037 75.0526 65.8107 75.0453 68.4394L74.9481 81.6327C74.946 82.4476 74.7775 83.4911 74.1609 84.063C73.7217 84.4703 72.9512 84.8787 72.3787 84.926C71.7911 84.9745 71.5639 84.4239 70.8441 84.0027L60.0188 77.7152C57.759 76.3929 55.9342 73.187 55.9416 70.5587L56.0393 57.3654Z" fill="#D0E7FF"/>
<path fill-rule="evenodd" clip-rule="evenodd" d="M55.3799 57.7548C55.3873 55.1262 57.2241 54.0626 59.4835 55.3849L70.3092 61.6722C72.566 62.993 74.3934 66.2003 74.3862 68.8289L74.2889 82.022C74.2816 84.6502 72.4422 85.7126 70.1849 84.3919L59.3596 78.1044C57.0999 76.7824 55.2752 73.5762 55.2824 70.948L55.3799 57.7548Z" fill="url(#paint19_linear_277_92741)"/>
<path fill-rule="evenodd" clip-rule="evenodd" d="M65.0568 73.2327C63.1638 72.1709 61.5086 69.5986 61.3587 67.4853C61.209 65.3733 62.6212 64.5202 64.5143 65.582C66.4062 66.6432 68.0626 69.2174 68.2124 71.3295C68.3623 73.4427 66.949 74.2939 65.0568 73.2327ZM72.0819 72.4046L70.851 71.7142C70.6168 70.5557 70.17 69.3563 69.5666 68.2051L70.3692 67.7224C69.9123 66.8814 69.387 66.0653 68.8088 65.2974L68.0065 65.7813C67.2062 64.7503 66.2914 63.8332 65.3207 63.1191L65.2231 61.7437C64.8853 61.506 64.5425 61.2877 64.1958 61.0932C63.8479 60.8981 63.5088 60.734 63.1784 60.5969L63.276 61.9723C62.3305 61.6115 61.4749 61.5356 60.761 61.7175L59.8206 60.2559C59.3079 60.4118 58.8598 60.682 58.4892 61.0589L59.4296 62.5192C58.9464 63.0609 58.6397 63.8378 58.5572 64.8187L57.3265 64.1282C57.3065 64.4751 57.3094 64.842 57.3368 65.2292C57.3644 65.6163 57.4157 66.0118 57.4883 66.4105L58.7192 67.101C58.9533 68.2593 59.4001 69.4589 60.0035 70.6088L59.201 71.0927C59.658 71.9336 60.183 72.7498 60.7613 73.5177L61.5638 73.0337C62.3638 74.0648 63.279 74.9819 64.2495 75.6961L64.3471 77.07C64.6846 77.309 65.0275 77.5273 65.3754 77.7224C65.7221 77.917 66.0611 78.081 66.3915 78.2167L66.2939 76.8429C67.2397 77.2035 68.0952 77.2793 68.809 77.0976L69.7496 78.5592C70.2624 78.4032 70.7102 78.1328 71.0808 77.756L70.1404 76.2944C70.6237 75.754 70.9302 74.9771 71.0128 73.9964L72.2437 74.6868C72.2635 74.3398 72.2605 73.9716 72.2332 73.5845C72.2058 73.1976 72.1546 72.8035 72.0819 72.4046Z" fill="white"/>
<path fill-rule="evenodd" clip-rule="evenodd" d="M51.9118 30.2665L39.421 22.9104L42.3209 8.96264L42.3215 8.95889L42.3218 8.95719L42.3223 8.95485L42.3228 8.95152L42.323 8.95081L42.3238 8.94656L42.3241 8.94542L42.3248 8.94216L42.3255 8.93926L42.3258 8.93777L42.3268 8.93323V8.93274L42.3279 8.92841L42.3285 8.92601L42.3291 8.92367L42.3301 8.91913L42.3304 8.91864L42.3317 8.9136L42.3321 8.91204L42.333 8.9085L42.3341 8.9046L42.3346 8.90333L42.3361 8.89808L42.3363 8.89716L42.3378 8.89277L42.3388 8.88958L42.3395 8.88724L42.3413 8.88179H42.3414L42.3433 8.87612L42.344 8.87378L42.3451 8.87052L42.3467 8.86584L42.347 8.86485L42.3491 8.85911L42.3497 8.85762L42.3512 8.85323L42.3527 8.8494L42.3535 8.84749L42.3558 8.8416L42.356 8.84111L42.3583 8.83572L42.3593 8.83268L42.3607 8.82977L42.3629 8.82438L42.3632 8.82389L42.3657 8.81794L42.3666 8.81602L42.3684 8.81212L42.3705 8.80759L42.3711 8.8061L42.3741 8.80008L42.3744 8.79909L42.3768 8.79412L42.3785 8.79086L42.3798 8.78831L42.3828 8.78243H42.383L42.3861 8.77648L42.3874 8.774L42.3893 8.7706L42.392 8.76585L42.3926 8.76486L42.396 8.75898L42.3968 8.75763L42.3993 8.75324L42.4018 8.74934L42.403 8.7475L42.4067 8.74176L42.4069 8.7414L42.4104 8.7363L42.4122 8.73346L42.4142 8.73077L42.4177 8.72567L42.4181 8.72532L42.4219 8.71986L42.4233 8.71816L42.426 8.71461L42.43 8.70937L42.4342 8.70413L42.4349 8.70328L42.4385 8.69902L42.441 8.69612L42.4428 8.6942L42.4473 8.68931L42.4519 8.68443L42.4538 8.68251L42.4565 8.67982L42.4605 8.67606L42.4612 8.67535L42.4661 8.67096L42.4671 8.66976L42.4708 8.66657L42.4742 8.66373L42.4758 8.66239L42.4809 8.65835L42.4812 8.65799L42.4861 8.65445L42.4886 8.65247L42.4912 8.65069L42.4961 8.64722L42.4965 8.64701L42.5019 8.64354L42.5037 8.64233L42.5073 8.64028C42.5581 8.61058 42.6198 8.60215 42.6936 8.63149L55.1832 15.9874C54.7743 15.76 53.1129 26.1536 51.9118 30.2665Z" fill="url(#paint20_linear_277_92741)"/>
<path fill-rule="evenodd" clip-rule="evenodd" d="M42.3208 8.95996C47.5669 15.0523 53.8244 18.8148 53.2124 24.102L51.9116 30.2638L39.4209 22.9077L42.3208 8.95996Z" fill="#E23B93"/>
<path fill-rule="evenodd" clip-rule="evenodd" d="M51.7464 14.7044L51.4642 28.8504L38.3638 21.1865L38.4029 7.16309L51.7464 14.7044Z" fill="#F2F4FF"/>
<path fill-rule="evenodd" clip-rule="evenodd" d="M51.5063 14.8265L51.7799 14.665L51.7409 28.6892L51.4672 28.8493L51.5063 14.8265Z" fill="#C5DBF1"/>
<path fill-rule="evenodd" clip-rule="evenodd" d="M38.4007 7.1615L38.6755 7L51.7746 14.6646L51.5009 14.826L38.4007 7.1615Z" fill="#DCE8F8"/>
<path fill-rule="evenodd" clip-rule="evenodd" d="M51.0072 25.8156L51.0045 26.7L38.8793 19.6056L38.8821 18.7215L51.0072 25.8156ZM51.0344 15.6476L51.0332 16.5319L38.908 9.43783L38.9107 8.55371L51.0344 15.6476ZM51.0304 17.0996L38.9068 10.0056L38.9041 10.8897L51.0278 17.9836L51.0304 17.0996ZM51.0265 18.5526L38.9014 11.4586L38.9002 12.3429L51.0239 19.4366L51.0265 18.5526ZM51.0227 20.0055L38.8975 12.9116L38.8948 13.7957L51.02 20.8897L51.0227 20.0055ZM51.0188 21.4577L38.8937 14.3635L38.891 15.2478L51.0163 22.3417L51.0188 21.4577ZM51.015 22.9106L38.8898 15.8163L38.8871 16.7007L51.0122 23.7946L51.015 22.9106ZM51.011 24.3635L38.8859 17.2696L38.8833 18.1537L51.0084 25.2476L51.011 24.3635Z" fill="#C5DBF1"/>
<path fill-rule="evenodd" clip-rule="evenodd" d="M48.5351 20.1288L51.5129 30.7401L51.5132 30.7404C51.5532 30.8499 51.6373 31.0138 51.6966 31.0782L39.2069 23.7232C39.0974 23.6602 39.0386 23.4882 39.023 23.3857L36.0453 12.7737L36.0478 12.7752L35.4895 10.7858C35.4611 10.6341 35.5673 10.458 35.5973 10.4258C36.1159 10.9046 38.8854 12.6223 39.3962 12.9269C40.2514 13.606 40.2807 14.4448 41.5762 15.8371C41.8243 16.1035 41.9096 16.1737 42.2172 16.3573L48.5351 20.1288Z" fill="url(#paint21_linear_277_92741)"/>
<path fill-rule="evenodd" clip-rule="evenodd" d="M48.6853 19.7205C48.7057 19.7018 48.7268 19.6865 48.7464 19.6749C48.8439 19.6184 48.9317 19.6425 48.961 19.7404L51.9105 30.2663L54.8099 16.3184C54.8356 16.1881 54.9251 16.0606 55.0216 16.0041C55.0419 15.9925 55.0624 15.9835 55.0818 15.9781C55.2014 15.9458 55.2715 16.049 55.2379 16.2053L52.3217 30.2465C52.2713 30.4899 52.2102 30.673 52.1447 30.796C52.079 30.9243 51.9992 31.0123 51.9098 31.0643C51.8211 31.1165 51.7441 31.1155 51.6785 31.0699C51.6128 31.0195 51.5561 30.91 51.5092 30.742L48.5311 20.1293C48.4992 20.0108 48.5683 19.8267 48.6853 19.7205Z" fill="#E23B93"/>
<path fill-rule="evenodd" clip-rule="evenodd" d="M42.6071 15.9479L48.9073 19.6581C48.7433 19.5767 48.4919 19.9501 48.535 20.1277L42.172 16.3806C41.9598 16.2556 41.8283 16.1824 41.6415 16.033C40.737 15.3091 40.3102 14.3173 39.7194 13.515C39.5511 13.2865 39.3819 13.1258 39.2127 12.9952C39.0558 12.9085 38.9726 12.8623 39.0004 12.8761L35.489 10.7816C35.4625 10.6305 35.5674 10.4568 35.5972 10.4248C35.6637 10.3531 35.7676 10.2648 35.8622 10.3151L39.3798 12.4133C39.352 12.3996 39.435 12.4456 39.5921 12.5322C39.7612 12.6629 39.9303 12.8235 40.0987 13.052C40.724 13.901 41.1713 14.8554 42.1856 15.6651C42.3302 15.7806 42.4491 15.8548 42.6071 15.9479Z" fill="#FB84B6"/>
<path fill-rule="evenodd" clip-rule="evenodd" d="M123.356 44.5964C121.12 43.2865 119.17 40.1972 118.999 37.6937C118.828 35.1916 120.501 34.2232 122.736 35.5332C124.971 36.8423 126.922 39.934 127.093 42.4359C127.264 44.9393 125.59 45.9055 123.356 44.5964Z" fill="url(#paint22_linear_277_92741)"/>
<path fill-rule="evenodd" clip-rule="evenodd" d="M124.452 38.2803L125.045 38.5808L122.413 42.6415L120.089 39.1492L120.854 39.4524L122.081 40.6331L124.452 38.2803Z" fill="white"/>
<path fill-rule="evenodd" clip-rule="evenodd" d="M69.172 31.8352C67.6762 30.9963 66.3686 28.964 66.2502 27.2943C66.1319 25.6255 67.2476 24.9516 68.7433 25.7905C70.2381 26.6289 71.5469 28.6627 71.665 30.3314C71.7835 32.0011 70.6668 32.6735 69.172 31.8352Z" fill="white"/>
<path fill-rule="evenodd" clip-rule="evenodd" d="M73.1152 30.0742L73.1124 31.1014L84.6517 37.8533L84.6545 36.825L73.1152 30.0742Z" fill="white"/>
<path fill-rule="evenodd" clip-rule="evenodd" d="M73.1071 32.9282L77.1893 35.3157L77.192 34.2889L73.1111 31.9014L73.1071 32.9282Z" fill="white"/>
<path fill-rule="evenodd" clip-rule="evenodd" d="M80.8556 32.7332L73.1208 28.207L73.118 29.2339L80.8529 33.7599L80.8556 32.7332Z" fill="white"/>
<path opacity="0.2" fill-rule="evenodd" clip-rule="evenodd" d="M9.03028 22.5121C9.03259 21.6975 9.60188 21.3679 10.3021 21.7778L22.2814 28.784C22.9807 29.1933 23.5471 30.1873 23.5448 31.0019L23.5147 39.6953C23.5124 40.5099 22.9424 40.839 22.2428 40.4297L10.2637 33.4235C9.56335 33.0137 8.99784 32.0201 9.00001 31.2055L9.03028 22.5121Z" fill="url(#paint23_linear_277_92741)"/>
<path opacity="0.5" fill-rule="evenodd" clip-rule="evenodd" d="M14.2935 103.764C14.2958 102.954 14.8617 102.627 15.5578 103.034L27.4663 109.999C28.1616 110.406 28.7245 111.394 28.7222 112.204L28.6924 120.846C28.6901 121.656 28.1234 121.983 27.428 121.576L15.5197 114.611C14.8234 114.204 14.2613 113.216 14.2635 112.406L14.2935 103.764Z" fill="url(#paint24_linear_277_92741)"/>
<path opacity="0.2" fill-rule="evenodd" clip-rule="evenodd" d="M125.073 87.1938C125.075 86.5295 125.54 86.2607 126.111 86.5948L135.879 92.3079C136.449 92.6417 136.911 93.4522 136.909 94.1164L136.884 101.205C136.882 101.869 136.418 102.138 135.847 101.804L126.079 96.0909C125.508 95.7568 125.047 94.9466 125.049 94.2824L125.073 87.1938Z" fill="white"/>
<path opacity="0.5" d="M142.234 49.2467C147.627 49.2467 152 44.8155 152 39.3494C152 33.8833 147.627 29.4521 142.234 29.4521C136.84 29.4521 132.467 33.8833 132.467 39.3494C132.467 44.8155 136.84 49.2467 142.234 49.2467Z" fill="url(#paint25_linear_277_92741)"/>
<path opacity="0.5" fill-rule="evenodd" clip-rule="evenodd" d="M13.3458 18.6108C14.6795 18.6108 15.7607 19.7066 15.7607 21.0582C15.7607 22.4098 14.6795 23.5055 13.3458 23.5055C12.012 23.5055 10.9308 22.4098 10.9308 21.0582C10.9308 19.7065 12.012 18.6108 13.3458 18.6108Z" fill="url(#paint26_linear_277_92741)"/>
<path opacity="0.5" d="M130.009 14.2905C131.849 14.2905 133.342 12.7782 133.342 10.9128C133.342 9.04738 131.849 7.53516 130.009 7.53516C128.168 7.53516 126.676 9.04738 126.676 10.9128C126.676 12.7782 128.168 14.2905 130.009 14.2905Z" fill="url(#paint27_linear_277_92741)"/>
<path opacity="0.5" fill-rule="evenodd" clip-rule="evenodd" d="M123.964 108.316C127.3 108.316 130.005 111.057 130.005 114.438C130.005 117.819 127.3 120.559 123.964 120.559C120.628 120.559 117.924 117.819 117.924 114.438C117.924 111.057 120.628 108.316 123.964 108.316ZM123.964 109.946C121.517 109.946 119.532 111.957 119.532 114.438C119.532 116.918 121.517 118.929 123.964 118.929C126.412 118.929 128.397 116.918 128.397 114.438C128.397 111.957 126.412 109.946 123.964 109.946Z" fill="url(#paint28_linear_277_92741)"/>
<path opacity="0.5" fill-rule="evenodd" clip-rule="evenodd" d="M28.7201 72.2979C31.129 72.2979 33.0817 74.2767 33.0817 76.7179C33.0817 79.1589 31.129 81.1377 28.7201 81.1377C26.3113 81.1377 24.3586 79.1589 24.3586 76.7179C24.3586 74.2767 26.3113 72.2979 28.7201 72.2979ZM28.7201 73.4746C26.9528 73.4746 25.52 74.9267 25.52 76.7179C25.52 78.5088 26.9528 79.9608 28.7201 79.9608C30.4876 79.9608 31.9204 78.5088 31.9204 76.7179C31.9204 74.9267 30.4876 73.4746 28.7201 73.4746Z" fill="url(#paint29_linear_277_92741)"/>
<path d="M50.237 157.1C50.557 157.26 50.9636 157.38 51.457 157.46C51.9503 157.527 52.4636 157.573 52.997 157.6C53.5303 157.613 54.0036 157.62 54.417 157.62C54.5636 157.62 54.7436 157.62 54.957 157.62C55.1836 157.62 55.3703 157.613 55.517 157.6C55.9436 157.587 56.3103 157.54 56.617 157.46C56.9236 157.367 57.157 157.22 57.317 157.02C57.477 156.82 57.557 156.54 57.557 156.18C57.557 155.74 57.437 155.453 57.197 155.32C56.957 155.173 56.5903 155.1 56.097 155.1C55.937 155.1 55.7503 155.1 55.537 155.1C55.337 155.1 55.097 155.1 54.817 155.1C54.537 155.1 54.1903 155.1 53.777 155.1C53.3636 155.1 52.9503 155.08 52.537 155.04C52.1236 155 51.7436 154.907 51.397 154.76C51.0636 154.613 50.797 154.38 50.597 154.06C50.397 153.727 50.297 153.267 50.297 152.68C50.297 151.987 50.417 151.447 50.657 151.06C50.897 150.66 51.237 150.367 51.677 150.18C52.117 149.98 52.637 149.853 53.237 149.8C53.837 149.747 54.4903 149.72 55.197 149.72C55.6236 149.72 56.0903 149.727 56.597 149.74C57.1036 149.753 57.577 149.78 58.017 149.82C58.4703 149.86 58.817 149.92 59.057 150C59.4303 150.027 59.717 150.133 59.917 150.32C60.117 150.493 60.217 150.713 60.217 150.98C60.217 151.02 60.217 151.093 60.217 151.2C60.217 151.307 60.217 151.413 60.217 151.52C60.217 151.627 60.217 151.687 60.217 151.7C60.1103 151.593 59.9103 151.507 59.617 151.44C59.337 151.373 59.0103 151.327 58.637 151.3C58.277 151.26 57.917 151.233 57.557 151.22C57.197 151.207 56.8903 151.2 56.637 151.2H55.057C54.6436 151.2 54.2836 151.233 53.977 151.3C53.6836 151.367 53.4503 151.493 53.277 151.68C53.117 151.853 53.037 152.12 53.037 152.48C53.037 152.76 53.0903 152.98 53.197 153.14C53.317 153.287 53.4836 153.387 53.697 153.44C53.9236 153.493 54.2036 153.52 54.537 153.52C55.2436 153.52 55.8236 153.52 56.277 153.52C56.7436 153.52 57.0703 153.52 57.257 153.52C57.8836 153.52 58.4303 153.573 58.897 153.68C59.3636 153.787 59.7236 154.02 59.977 154.38C60.2436 154.74 60.377 155.3 60.377 156.06C60.377 156.78 60.2236 157.353 59.917 157.78C59.6236 158.207 59.217 158.513 58.697 158.7C58.177 158.887 57.5703 159 56.877 159.04C56.357 159.08 55.857 159.1 55.377 159.1C54.897 159.1 54.3903 159.1 53.857 159.1C53.4036 159.087 52.957 159.067 52.517 159.04C52.0903 159.013 51.7036 158.96 51.357 158.88C51.0236 158.8 50.7503 158.693 50.537 158.56C50.337 158.413 50.237 158.22 50.237 157.98V157.1ZM66.0734 161.22C65.3667 161.22 64.7067 161.187 64.0934 161.12C63.4934 161.053 63.0067 160.947 62.6334 160.8C62.26 160.667 62.0734 160.493 62.0734 160.28V159.56C62.2867 159.68 62.58 159.78 62.9534 159.86C63.3267 159.94 63.7267 160 64.1534 160.04C64.58 160.093 64.98 160.12 65.3534 160.12C65.9934 160.12 66.5 160.04 66.8734 159.88C67.26 159.733 67.5334 159.493 67.6934 159.16C67.8667 158.827 67.9534 158.4 67.9534 157.88V157C67.82 157.267 67.6267 157.48 67.3734 157.64C67.12 157.8 66.8 157.92 66.4134 158C66.0267 158.067 65.56 158.1 65.0134 158.1C64.12 158.1 63.4534 157.967 63.0134 157.7C62.5867 157.42 62.3067 157.033 62.1734 156.54C62.04 156.047 61.9734 155.473 61.9734 154.82V151.96C61.9734 151.76 61.9867 151.593 62.0134 151.46C62.0534 151.313 62.1334 151.207 62.2534 151.14C62.3734 151.06 62.5667 151.02 62.8334 151.02H64.4534C64.4534 151.367 64.4534 151.68 64.4534 151.96C64.4534 152.227 64.4534 152.487 64.4534 152.74C64.4534 152.98 64.4534 153.24 64.4534 153.52C64.4534 153.787 64.4534 154.093 64.4534 154.44C64.4534 155.2 64.52 155.76 64.6534 156.12C64.8 156.467 65 156.687 65.2534 156.78C65.52 156.873 65.8334 156.92 66.1934 156.92C66.5534 156.92 66.86 156.867 67.1134 156.76C67.3667 156.64 67.56 156.413 67.6934 156.08C67.84 155.747 67.9134 155.24 67.9134 154.56V151.02H69.5734C69.8534 151.02 70.06 151.067 70.1934 151.16C70.3267 151.24 70.3934 151.453 70.3934 151.8V157.7C70.3934 158.9 70.0534 159.787 69.3734 160.36C68.7067 160.933 67.6067 161.22 66.0734 161.22ZM75.5738 159.08C75.2805 159.08 74.9538 159.073 74.5938 159.06C74.2472 159.047 73.8938 159.02 73.5338 158.98C73.1872 158.94 72.8738 158.873 72.5938 158.78C72.3805 158.727 72.2072 158.667 72.0738 158.6C71.9538 158.52 71.8605 158.38 71.7938 158.18C71.7405 157.967 71.7138 157.64 71.7138 157.2C72.0872 157.347 72.4872 157.467 72.9138 157.56C73.3405 157.64 73.7605 157.7 74.1738 157.74C74.5872 157.767 74.9605 157.78 75.2938 157.78C75.5872 157.78 75.9005 157.773 76.2338 157.76C76.5672 157.733 76.8738 157.687 77.1538 157.62C77.4472 157.54 77.6805 157.413 77.8538 157.24C78.0405 157.067 78.1338 156.833 78.1338 156.54C78.1338 156.153 78.0338 155.9 77.8338 155.78C77.6338 155.66 77.3605 155.6 77.0138 155.6H74.8338C74.2605 155.6 73.7405 155.573 73.2738 155.52C72.8205 155.453 72.4538 155.273 72.1738 154.98C71.9072 154.687 71.7738 154.193 71.7738 153.5C71.7738 152.74 71.9605 152.18 72.3338 151.82C72.7205 151.447 73.2605 151.2 73.9538 151.08C74.6472 150.96 75.4805 150.9 76.4538 150.9C76.8005 150.9 77.2072 150.907 77.6738 150.92C78.1538 150.933 78.5805 150.973 78.9538 151.04C79.3272 151.08 79.6205 151.14 79.8338 151.22C80.0472 151.287 80.2005 151.4 80.2938 151.56C80.4005 151.72 80.4538 151.953 80.4538 152.26V152.76C80.3605 152.627 80.1538 152.527 79.8338 152.46C79.5272 152.38 79.1605 152.327 78.7338 152.3C78.3072 152.26 77.8605 152.24 77.3938 152.24C76.9405 152.227 76.5205 152.22 76.1338 152.22C75.7872 152.22 75.4605 152.247 75.1538 152.3C74.8605 152.34 74.6205 152.44 74.4338 152.6C74.2605 152.747 74.1738 153 74.1738 153.36C74.1738 153.627 74.2272 153.827 74.3338 153.96C74.4538 154.08 74.6138 154.16 74.8138 154.2C75.0138 154.227 75.2405 154.24 75.4938 154.24H77.8738C78.4072 154.24 78.8805 154.287 79.2938 154.38C79.7072 154.473 80.0272 154.68 80.2538 155C80.4805 155.307 80.5938 155.8 80.5938 156.48C80.5938 157.253 80.3805 157.827 79.9538 158.2C79.5272 158.56 78.9338 158.8 78.1738 158.92C77.4138 159.027 76.5472 159.08 75.5738 159.08ZM84.7971 159.08C84.1704 159.08 83.6771 159.013 83.3171 158.88C82.9704 158.733 82.7238 158.5 82.5771 158.18C82.4304 157.847 82.3571 157.393 82.3571 156.82V152.3H81.5371V151.02H82.3571V149.84C82.3571 149.56 82.3771 149.353 82.4171 149.22C82.4571 149.087 82.5371 149 82.6571 148.96C82.7904 148.92 82.9838 148.9 83.2371 148.9H84.7971C84.7971 148.94 84.7904 149.007 84.7771 149.1C84.7771 149.18 84.7771 149.287 84.7771 149.42V151.02H86.6971V152.3H84.7971V156.6C84.7971 157.12 84.8438 157.5 84.9371 157.74C85.0438 157.967 85.3104 158.08 85.7371 158.08C85.8704 158.08 86.0238 158.067 86.1971 158.04C86.3838 158.013 86.5104 157.987 86.5771 157.96V158.9C86.4971 158.913 86.2971 158.947 85.9771 159C85.6571 159.053 85.2638 159.08 84.7971 159.08ZM92.1941 159.12C91.3141 159.12 90.5875 159.067 90.0141 158.96C89.4408 158.84 88.9875 158.64 88.6541 158.36C88.3208 158.08 88.0808 157.68 87.9341 157.16C87.7875 156.64 87.7141 155.973 87.7141 155.16C87.7141 154.147 87.8475 153.333 88.1141 152.72C88.3941 152.107 88.8741 151.66 89.5541 151.38C90.2475 151.1 91.2075 150.96 92.4341 150.96C93.3941 150.96 94.1608 151.067 94.7341 151.28C95.3075 151.493 95.7208 151.833 95.9741 152.3C96.2275 152.753 96.3541 153.34 96.3541 154.06V155.46H90.7541C90.7541 155.22 90.8075 155.02 90.9141 154.86C91.0341 154.687 91.2408 154.6 91.5341 154.6H94.1741V154.12C94.1608 153.48 94.0208 153.007 93.7541 152.7C93.5008 152.393 93.0341 152.24 92.3541 152.24C91.7808 152.24 91.3341 152.327 91.0141 152.5C90.7075 152.673 90.4875 152.967 90.3541 153.38C90.2341 153.793 90.1741 154.373 90.1741 155.12C90.1741 155.84 90.2475 156.387 90.3941 156.76C90.5408 157.133 90.7941 157.387 91.1541 157.52C91.5275 157.64 92.0408 157.7 92.6941 157.7C92.9341 157.7 93.2341 157.693 93.5941 157.68C93.9675 157.667 94.3408 157.653 94.7141 157.64C95.1008 157.613 95.4408 157.587 95.7341 157.56C96.0275 157.52 96.2141 157.487 96.2941 157.46V157.78C96.2941 157.94 96.2608 158.113 96.1941 158.3C96.1408 158.473 96.0141 158.613 95.8141 158.72C95.5608 158.88 95.1341 158.987 94.5341 159.04C93.9475 159.093 93.1675 159.12 92.1941 159.12ZM98.8555 159C98.4822 159 98.2355 158.947 98.1155 158.84C97.9955 158.72 97.9355 158.467 97.9355 158.08V151.56C98.1089 151.493 98.3355 151.433 98.6155 151.38C98.8955 151.313 99.2089 151.253 99.5555 151.2C99.9022 151.133 100.269 151.08 100.656 151.04C101.056 151 101.449 150.98 101.836 150.98C102.342 150.98 102.776 151.02 103.136 151.1C103.509 151.18 103.822 151.327 104.076 151.54C104.342 151.74 104.569 152.04 104.756 152.44H104.376C104.496 152.133 104.662 151.887 104.876 151.7C105.089 151.5 105.342 151.353 105.636 151.26C105.929 151.153 106.222 151.08 106.516 151.04C106.809 151 107.076 150.98 107.316 150.98C108.182 150.98 108.862 151.06 109.356 151.22C109.849 151.367 110.202 151.633 110.416 152.02C110.642 152.393 110.756 152.92 110.756 153.6V158.16C110.756 158.52 110.689 158.753 110.556 158.86C110.436 158.953 110.196 159 109.836 159H108.316C108.316 158.08 108.316 157.167 108.316 156.26C108.316 155.353 108.316 154.44 108.316 153.52C108.316 152.973 108.202 152.613 107.976 152.44C107.749 152.253 107.409 152.16 106.956 152.16C106.742 152.16 106.529 152.193 106.316 152.26C106.102 152.313 105.922 152.393 105.776 152.5C105.642 152.607 105.576 152.733 105.576 152.88V159H103.136V153.2C103.136 152.867 103.009 152.62 102.756 152.46C102.502 152.287 102.169 152.2 101.756 152.2C101.502 152.2 101.276 152.22 101.076 152.26C100.876 152.287 100.709 152.34 100.576 152.42C100.456 152.487 100.389 152.58 100.376 152.7V159H98.8555Z" fill="#1C274C"/>
<path d="M23.7304 173.88C23.9544 174.029 24.2424 174.141 24.5944 174.216C24.9571 174.28 25.3304 174.323 25.7144 174.344C26.1091 174.355 26.4504 174.36 26.7384 174.36C26.8451 174.36 26.9678 174.36 27.1064 174.36C27.2451 174.36 27.3678 174.355 27.4744 174.344C27.9011 174.333 28.2744 174.285 28.5944 174.2C28.9144 174.104 29.1651 173.949 29.3464 173.736C29.5278 173.512 29.6184 173.197 29.6184 172.792C29.6184 172.301 29.4904 171.981 29.2344 171.832C28.9784 171.683 28.6051 171.608 28.1144 171.608C27.9544 171.608 27.7838 171.608 27.6024 171.608C27.4211 171.608 27.2291 171.608 27.0264 171.608C26.8238 171.608 26.5891 171.608 26.3224 171.608C26.0238 171.608 25.7198 171.597 25.4104 171.576C25.1011 171.544 24.8184 171.475 24.5624 171.368C24.3064 171.251 24.1038 171.075 23.9544 170.84C23.8051 170.595 23.7304 170.248 23.7304 169.8C23.7304 169.277 23.8211 168.867 24.0024 168.568C24.1944 168.269 24.4611 168.051 24.8024 167.912C25.1438 167.773 25.5331 167.683 25.9704 167.64C26.4184 167.597 26.8931 167.576 27.3944 167.576C27.6931 167.576 28.0291 167.581 28.4024 167.592C28.7864 167.603 29.1438 167.629 29.4744 167.672C29.8158 167.715 30.0824 167.789 30.2744 167.896C30.4451 167.917 30.5731 167.971 30.6584 168.056C30.7544 168.141 30.8024 168.248 30.8024 168.376C30.8024 168.419 30.8024 168.472 30.8024 168.536C30.8024 168.589 30.8024 168.643 30.8024 168.696C30.8024 168.749 30.8024 168.787 30.8024 168.808C30.7064 168.701 30.5464 168.616 30.3224 168.552C30.0984 168.488 29.8424 168.44 29.5544 168.408C29.2771 168.365 29.0051 168.339 28.7384 168.328C28.4718 168.307 28.2531 168.296 28.0824 168.296H27.1384C26.7544 168.296 26.3971 168.328 26.0664 168.392C25.7358 168.456 25.4691 168.589 25.2664 168.792C25.0744 168.984 24.9784 169.293 24.9784 169.72C24.9784 170.051 25.0424 170.296 25.1704 170.456C25.3091 170.616 25.5011 170.723 25.7464 170.776C25.9918 170.819 26.2851 170.84 26.6264 170.84C27.0424 170.84 27.4104 170.84 27.7304 170.84C28.0504 170.84 28.3118 170.84 28.5144 170.84C28.9838 170.84 29.3998 170.883 29.7624 170.968C30.1251 171.043 30.4078 171.219 30.6104 171.496C30.8131 171.763 30.9144 172.184 30.9144 172.76C30.9144 173.325 30.7864 173.773 30.5304 174.104C30.2851 174.435 29.9438 174.669 29.5064 174.808C29.0798 174.947 28.5891 175.032 28.0344 175.064C27.7678 175.075 27.5118 175.08 27.2664 175.08C27.0211 175.091 26.7651 175.091 26.4984 175.08C26.2531 175.08 25.9704 175.069 25.6504 175.048C25.3304 175.027 25.0211 174.995 24.7224 174.952C24.4344 174.899 24.1944 174.824 24.0024 174.728C23.8211 174.621 23.7304 174.483 23.7304 174.312V173.88ZM33.0881 175C32.8747 175 32.7414 174.968 32.6881 174.904C32.6454 174.84 32.6241 174.707 32.6241 174.504V166.936H33.7441V168.84C33.8614 168.787 34.0321 168.749 34.2561 168.728C34.4907 168.696 34.7307 168.669 34.9761 168.648C35.2321 168.627 35.4667 168.616 35.6801 168.616C36.3201 168.616 36.8321 168.68 37.2161 168.808C37.6001 168.925 37.8827 169.101 38.0641 169.336C38.2454 169.56 38.3627 169.843 38.4161 170.184C38.4801 170.515 38.5121 170.893 38.5121 171.32V174.376C38.5121 174.557 38.4961 174.696 38.4641 174.792C38.4427 174.877 38.3947 174.936 38.3201 174.968C38.2454 174.989 38.1334 175 37.9841 175H37.4241V171.064C37.4241 170.552 37.3494 170.163 37.2001 169.896C37.0614 169.629 36.8481 169.448 36.5601 169.352C36.2721 169.256 35.9201 169.208 35.5041 169.208C35.3441 169.208 35.1467 169.219 34.9121 169.24C34.6881 169.251 34.4641 169.272 34.2401 169.304C34.0267 169.336 33.8614 169.379 33.7441 169.432V175H33.0881ZM43.0784 175.112C42.4491 175.112 41.9371 175.08 41.5424 175.016C41.1478 174.952 40.8438 174.845 40.6304 174.696C40.4278 174.536 40.2838 174.328 40.1984 174.072C40.1238 173.816 40.0864 173.501 40.0864 173.128C40.0864 172.584 40.1504 172.168 40.2784 171.88C40.4064 171.592 40.6304 171.395 40.9504 171.288C41.2704 171.181 41.6971 171.128 42.2304 171.128C42.4971 171.128 42.7851 171.139 43.0944 171.16C43.4144 171.171 43.7184 171.187 44.0064 171.208C44.3051 171.219 44.5611 171.235 44.7744 171.256C44.9984 171.277 45.1478 171.304 45.2224 171.336C45.2224 170.845 45.1798 170.456 45.0944 170.168C45.0091 169.88 44.8758 169.667 44.6944 169.528C44.5238 169.389 44.3051 169.299 44.0384 169.256C43.7824 169.213 43.4838 169.192 43.1424 169.192C42.7904 169.192 42.4331 169.208 42.0704 169.24C41.7184 169.261 41.3931 169.304 41.0944 169.368C40.7958 169.421 40.5664 169.496 40.4064 169.592V169.352C40.4064 169.128 40.4704 168.973 40.5984 168.888C40.7371 168.792 40.8918 168.728 41.0624 168.696C41.2651 168.643 41.5584 168.6 41.9424 168.568C42.3371 168.536 42.7478 168.525 43.1744 168.536C43.7184 168.536 44.1824 168.563 44.5664 168.616C44.9611 168.669 45.2864 168.787 45.5424 168.968C45.7984 169.139 45.9904 169.4 46.1184 169.752C46.2464 170.104 46.3104 170.584 46.3104 171.192V174.488C46.2464 174.701 45.9638 174.861 45.4624 174.968C44.9611 175.064 44.1664 175.112 43.0784 175.112ZM43.0784 174.568C43.5691 174.568 43.9584 174.552 44.2464 174.52C44.5451 174.488 44.7691 174.445 44.9184 174.392C45.0784 174.339 45.1798 174.269 45.2224 174.184V171.8C45.1264 171.768 44.9451 171.736 44.6784 171.704C44.4224 171.672 44.1504 171.645 43.8624 171.624C43.5744 171.592 43.3291 171.576 43.1264 171.576C42.6678 171.576 42.2944 171.603 42.0064 171.656C41.7291 171.709 41.5264 171.843 41.3984 172.056C41.2811 172.269 41.2224 172.6 41.2224 173.048C41.2224 173.4 41.2651 173.688 41.3504 173.912C41.4358 174.136 41.6064 174.301 41.8624 174.408C42.1291 174.515 42.5344 174.568 43.0784 174.568ZM49.2128 175H48.5088C48.3701 175 48.2635 174.968 48.1888 174.904C48.1248 174.829 48.0928 174.696 48.0928 174.504V168.936C48.3275 168.861 48.6475 168.781 49.0528 168.696C49.4688 168.611 49.9808 168.568 50.5888 168.568C51.1648 168.568 51.6181 168.611 51.9488 168.696C52.2901 168.771 52.5355 168.877 52.6848 169.016C52.8448 169.155 52.9461 169.325 52.9888 169.528C53.0421 169.72 53.0688 169.939 53.0688 170.184H51.9968L51.9808 169.96C51.9701 169.715 51.8901 169.539 51.7408 169.432C51.5915 169.315 51.4155 169.245 51.2128 169.224C51.0101 169.192 50.8075 169.176 50.6048 169.176C50.2955 169.176 50.0181 169.203 49.7728 169.256C49.5381 169.309 49.3515 169.379 49.2128 169.464V175ZM57.3668 175.096C56.7481 175.096 56.2255 175.053 55.7988 174.968C55.3828 174.883 55.0468 174.723 54.7908 174.488C54.5455 174.253 54.3641 173.928 54.2468 173.512C54.1401 173.085 54.0868 172.536 54.0868 171.864C54.0868 171.096 54.1828 170.467 54.3748 169.976C54.5668 169.485 54.9081 169.123 55.3988 168.888C55.8895 168.653 56.5775 168.536 57.4628 168.536C58.1455 168.536 58.6895 168.627 59.0948 168.808C59.5108 168.989 59.8095 169.267 59.9908 169.64C60.1828 170.013 60.2788 170.499 60.2788 171.096V172.008H55.7668C55.7668 171.88 55.7988 171.773 55.8628 171.688C55.9268 171.592 56.0441 171.544 56.2148 171.544H59.2708L59.2548 171.08C59.2441 170.419 59.1001 169.939 58.8228 169.64C58.5561 169.341 58.0868 169.192 57.4148 169.192C56.8495 169.192 56.4068 169.277 56.0868 169.448C55.7668 169.619 55.5428 169.896 55.4148 170.28C55.2868 170.664 55.2228 171.187 55.2228 171.848C55.2228 172.552 55.2921 173.091 55.4308 173.464C55.5801 173.827 55.8255 174.077 56.1668 174.216C56.5081 174.344 56.9721 174.408 57.5588 174.408C57.7615 174.408 57.9908 174.403 58.2468 174.392C58.5135 174.371 58.7801 174.349 59.0468 174.328C59.3135 174.307 59.5481 174.28 59.7508 174.248C59.9641 174.205 60.1135 174.163 60.1988 174.12V174.312C60.1988 174.419 60.1668 174.52 60.1028 174.616C60.0495 174.712 59.9321 174.792 59.7508 174.856C59.5161 174.952 59.1961 175.016 58.7908 175.048C58.3961 175.08 57.9215 175.096 57.3668 175.096ZM65.7617 173.88C65.9857 174.029 66.2737 174.141 66.6257 174.216C66.9884 174.28 67.3617 174.323 67.7457 174.344C68.1404 174.355 68.4817 174.36 68.7697 174.36C68.8764 174.36 68.999 174.36 69.1377 174.36C69.2764 174.36 69.399 174.355 69.5057 174.344C69.9324 174.333 70.3057 174.285 70.6257 174.2C70.9457 174.104 71.1964 173.949 71.3777 173.736C71.559 173.512 71.6497 173.197 71.6497 172.792C71.6497 172.301 71.5217 171.981 71.2657 171.832C71.0097 171.683 70.6364 171.608 70.1457 171.608C69.9857 171.608 69.815 171.608 69.6337 171.608C69.4524 171.608 69.2604 171.608 69.0577 171.608C68.855 171.608 68.6204 171.608 68.3537 171.608C68.055 171.608 67.751 171.597 67.4417 171.576C67.1324 171.544 66.8497 171.475 66.5937 171.368C66.3377 171.251 66.135 171.075 65.9857 170.84C65.8364 170.595 65.7617 170.248 65.7617 169.8C65.7617 169.277 65.8524 168.867 66.0337 168.568C66.2257 168.269 66.4924 168.051 66.8337 167.912C67.175 167.773 67.5644 167.683 68.0017 167.64C68.4497 167.597 68.9244 167.576 69.4257 167.576C69.7244 167.576 70.0604 167.581 70.4337 167.592C70.8177 167.603 71.175 167.629 71.5057 167.672C71.847 167.715 72.1137 167.789 72.3057 167.896C72.4764 167.917 72.6044 167.971 72.6897 168.056C72.7857 168.141 72.8337 168.248 72.8337 168.376C72.8337 168.419 72.8337 168.472 72.8337 168.536C72.8337 168.589 72.8337 168.643 72.8337 168.696C72.8337 168.749 72.8337 168.787 72.8337 168.808C72.7377 168.701 72.5777 168.616 72.3537 168.552C72.1297 168.488 71.8737 168.44 71.5857 168.408C71.3084 168.365 71.0364 168.339 70.7697 168.328C70.503 168.307 70.2844 168.296 70.1137 168.296H69.1697C68.7857 168.296 68.4284 168.328 68.0977 168.392C67.767 168.456 67.5004 168.589 67.2977 168.792C67.1057 168.984 67.0097 169.293 67.0097 169.72C67.0097 170.051 67.0737 170.296 67.2017 170.456C67.3404 170.616 67.5324 170.723 67.7777 170.776C68.023 170.819 68.3164 170.84 68.6577 170.84C69.0737 170.84 69.4417 170.84 69.7617 170.84C70.0817 170.84 70.343 170.84 70.5457 170.84C71.015 170.84 71.431 170.883 71.7937 170.968C72.1564 171.043 72.439 171.219 72.6417 171.496C72.8444 171.763 72.9457 172.184 72.9457 172.76C72.9457 173.325 72.8177 173.773 72.5617 174.104C72.3164 174.435 71.975 174.669 71.5377 174.808C71.111 174.947 70.6204 175.032 70.0657 175.064C69.799 175.075 69.543 175.08 69.2977 175.08C69.0524 175.091 68.7964 175.091 68.5297 175.08C68.2844 175.08 68.0017 175.069 67.6817 175.048C67.3617 175.027 67.0524 174.995 66.7537 174.952C66.4657 174.899 66.2257 174.824 66.0337 174.728C65.8524 174.621 65.7617 174.483 65.7617 174.312V173.88ZM77.3753 176.776C76.8953 176.776 76.442 176.749 76.0153 176.696C75.5886 176.653 75.242 176.584 74.9753 176.488C74.7086 176.392 74.5753 176.285 74.5753 176.168V175.768C74.746 175.864 74.97 175.944 75.2473 176.008C75.5353 176.072 75.8393 176.12 76.1593 176.152C76.4793 176.195 76.7886 176.216 77.0873 176.216C77.5993 176.216 78.0153 176.147 78.3353 176.008C78.666 175.869 78.9113 175.645 79.0713 175.336C79.242 175.027 79.3273 174.637 79.3273 174.168V173.304C79.2313 173.517 79.0766 173.699 78.8633 173.848C78.65 173.997 78.3833 174.104 78.0633 174.168C77.754 174.232 77.3913 174.264 76.9753 174.264C76.218 174.264 75.658 174.157 75.2953 173.944C74.9433 173.731 74.714 173.427 74.6073 173.032C74.5113 172.637 74.4633 172.179 74.4633 171.656V169.24C74.4633 169.08 74.4686 168.957 74.4793 168.872C74.5006 168.776 74.538 168.712 74.5913 168.68C74.6553 168.637 74.7566 168.616 74.8953 168.616H75.5993C75.5993 168.893 75.5993 169.16 75.5993 169.416C75.5993 169.661 75.5993 169.907 75.5993 170.152C75.5993 170.387 75.5993 170.627 75.5993 170.872C75.5993 171.117 75.5993 171.379 75.5993 171.656C75.5993 172.264 75.6793 172.712 75.8393 173C76.01 173.288 76.234 173.469 76.5113 173.544C76.7993 173.619 77.114 173.656 77.4553 173.656C77.7966 173.656 78.106 173.613 78.3833 173.528C78.6606 173.432 78.8846 173.251 79.0553 172.984C79.226 172.717 79.3113 172.317 79.3113 171.784V168.616H79.9993C80.1593 168.616 80.2713 168.643 80.3353 168.696C80.41 168.739 80.4473 168.872 80.4473 169.096V174.04C80.4473 174.989 80.1966 175.683 79.6953 176.12C79.2046 176.557 78.4313 176.776 77.3753 176.776ZM84.4266 175.064C84.2452 175.064 84.0159 175.059 83.7386 175.048C83.4719 175.037 83.1946 175.016 82.9066 174.984C82.6292 174.941 82.3786 174.883 82.1546 174.808C82.0479 174.765 81.9626 174.723 81.8986 174.68C81.8346 174.637 81.7866 174.563 81.7546 174.456C81.7332 174.349 81.7226 174.189 81.7226 173.976C81.9572 174.093 82.2346 174.189 82.5546 174.264C82.8746 174.328 83.1946 174.371 83.5146 174.392C83.8346 174.413 84.1012 174.424 84.3146 174.424C84.6346 174.424 84.9439 174.413 85.2426 174.392C85.5519 174.36 85.8292 174.301 86.0746 174.216C86.3199 174.12 86.5119 173.981 86.6506 173.8C86.7999 173.619 86.8746 173.379 86.8746 173.08C86.8746 172.643 86.7626 172.365 86.5386 172.248C86.3146 172.12 86.0106 172.056 85.6266 172.056H84.0106C83.6159 172.056 83.2426 172.035 82.8906 171.992C82.5492 171.939 82.2666 171.805 82.0426 171.592C81.8292 171.368 81.7226 170.995 81.7226 170.472C81.7226 169.907 81.8612 169.485 82.1386 169.208C82.4159 168.931 82.8052 168.749 83.3066 168.664C83.8186 168.579 84.4106 168.536 85.0826 168.536C85.3279 168.536 85.6212 168.541 85.9626 168.552C86.3039 168.563 86.6292 168.595 86.9386 168.648C87.1519 168.68 87.3279 168.723 87.4666 168.776C87.6159 168.819 87.7226 168.883 87.7866 168.968C87.8612 169.053 87.8986 169.176 87.8986 169.336V169.656C87.8026 169.549 87.6426 169.464 87.4186 169.4C87.1946 169.336 86.9332 169.288 86.6346 169.256C86.3466 169.224 86.0479 169.208 85.7386 169.208C85.4292 169.197 85.1412 169.192 84.8746 169.192C84.5332 169.192 84.2026 169.213 83.8826 169.256C83.5626 169.299 83.3012 169.405 83.0986 169.576C82.9066 169.736 82.8106 170.013 82.8106 170.408C82.8106 170.707 82.8746 170.925 83.0026 171.064C83.1306 171.203 83.3012 171.293 83.5146 171.336C83.7386 171.368 83.9892 171.384 84.2666 171.384H85.9146C86.3199 171.384 86.6772 171.421 86.9866 171.496C87.3066 171.56 87.5519 171.715 87.7226 171.96C87.9039 172.195 87.9946 172.568 87.9946 173.08C87.9946 173.645 87.8399 174.072 87.5306 174.36C87.2212 174.648 86.7946 174.84 86.2506 174.936C85.7172 175.021 85.1092 175.064 84.4266 175.064ZM90.9897 175.048C90.627 175.048 90.3444 175.005 90.1417 174.92C89.939 174.824 89.7897 174.664 89.6937 174.44C89.5977 174.216 89.5497 173.912 89.5497 173.528V169.24H88.9417V168.616H89.5497V167.464C89.5497 167.304 89.5604 167.187 89.5817 167.112C89.6137 167.027 89.6617 166.973 89.7257 166.952C89.7897 166.931 89.8804 166.92 89.9977 166.92H90.6857C90.6857 166.941 90.6804 166.989 90.6697 167.064C90.6697 167.128 90.6697 167.224 90.6697 167.352V168.616H92.1577V169.24H90.6697V173.4C90.6697 173.816 90.7124 174.109 90.7977 174.28C90.883 174.451 91.075 174.536 91.3737 174.536C91.491 174.536 91.6137 174.525 91.7417 174.504C91.8697 174.483 91.9604 174.461 92.0137 174.44V174.936C91.9497 174.947 91.827 174.968 91.6457 175C91.4644 175.032 91.2457 175.048 90.9897 175.048ZM96.3199 175.096C95.7013 175.096 95.1786 175.053 94.7519 174.968C94.3359 174.883 93.9999 174.723 93.7439 174.488C93.4986 174.253 93.3173 173.928 93.1999 173.512C93.0933 173.085 93.0399 172.536 93.0399 171.864C93.0399 171.096 93.1359 170.467 93.3279 169.976C93.5199 169.485 93.8613 169.123 94.3519 168.888C94.8426 168.653 95.5306 168.536 96.4159 168.536C97.0986 168.536 97.6426 168.627 98.0479 168.808C98.4639 168.989 98.7626 169.267 98.9439 169.64C99.1359 170.013 99.2319 170.499 99.2319 171.096V172.008H94.7199C94.7199 171.88 94.7519 171.773 94.8159 171.688C94.8799 171.592 94.9973 171.544 95.1679 171.544H98.2239L98.2079 171.08C98.1973 170.419 98.0533 169.939 97.7759 169.64C97.5093 169.341 97.0399 169.192 96.3679 169.192C95.8026 169.192 95.3599 169.277 95.0399 169.448C94.7199 169.619 94.4959 169.896 94.3679 170.28C94.2399 170.664 94.1759 171.187 94.1759 171.848C94.1759 172.552 94.2453 173.091 94.3839 173.464C94.5333 173.827 94.7786 174.077 95.1199 174.216C95.4613 174.344 95.9253 174.408 96.5119 174.408C96.7146 174.408 96.9439 174.403 97.1999 174.392C97.4666 174.371 97.7333 174.349 97.9999 174.328C98.2666 174.307 98.5013 174.28 98.7039 174.248C98.9173 174.205 99.0666 174.163 99.1519 174.12V174.312C99.1519 174.419 99.1199 174.52 99.0559 174.616C99.0026 174.712 98.8853 174.792 98.7039 174.856C98.4693 174.952 98.1493 175.016 97.7439 175.048C97.3493 175.08 96.8746 175.096 96.3199 175.096ZM101.213 175C101.021 175 100.893 174.973 100.829 174.92C100.765 174.856 100.733 174.728 100.733 174.536V169.08C100.819 169.048 100.941 169.005 101.101 168.952C101.261 168.899 101.453 168.845 101.677 168.792C101.901 168.728 102.157 168.68 102.445 168.648C102.744 168.605 103.069 168.584 103.421 168.584C103.784 168.584 104.099 168.616 104.365 168.68C104.632 168.733 104.861 168.835 105.053 168.984C105.245 169.123 105.405 169.315 105.533 169.56H105.309C105.395 169.379 105.517 169.224 105.677 169.096C105.837 168.957 106.024 168.851 106.237 168.776C106.451 168.701 106.669 168.648 106.893 168.616C107.128 168.584 107.352 168.568 107.565 168.568C108.163 168.568 108.632 168.627 108.973 168.744C109.315 168.861 109.555 169.059 109.693 169.336C109.843 169.613 109.917 169.981 109.917 170.44V174.568C109.917 174.739 109.885 174.856 109.821 174.92C109.757 174.973 109.64 175 109.469 175H108.797C108.797 174.232 108.797 173.469 108.797 172.712C108.797 171.944 108.797 171.176 108.797 170.408C108.797 169.939 108.68 169.619 108.445 169.448C108.221 169.267 107.885 169.176 107.437 169.176C107.224 169.176 106.995 169.203 106.749 169.256C106.515 169.309 106.312 169.389 106.141 169.496C105.971 169.603 105.885 169.725 105.885 169.864V175H104.765V169.992C104.765 169.768 104.632 169.581 104.365 169.432C104.109 169.272 103.779 169.192 103.373 169.192C103.128 169.192 102.893 169.213 102.669 169.256C102.445 169.288 102.259 169.341 102.109 169.416C101.96 169.48 101.875 169.571 101.853 169.688V175H101.213ZM117.138 175.064C116.637 175.064 116.301 174.931 116.13 174.664C115.96 174.397 115.874 174.008 115.874 173.496V168.616H116.994V173.432C116.994 173.869 117.042 174.163 117.138 174.312C117.234 174.461 117.405 174.536 117.65 174.536C117.736 174.536 117.842 174.525 117.97 174.504C118.098 174.483 118.178 174.467 118.21 174.456V174.952C118.178 174.963 118.114 174.979 118.018 175C117.933 175.011 117.816 175.021 117.666 175.032C117.528 175.053 117.352 175.064 117.138 175.064ZM116.45 167.688C116.269 167.688 116.125 167.661 116.018 167.608C115.912 167.555 115.858 167.443 115.858 167.272C115.858 167.101 115.906 166.989 116.002 166.936C116.109 166.883 116.253 166.856 116.434 166.856C116.637 166.856 116.786 166.883 116.882 166.936C116.978 166.989 117.021 167.101 117.01 167.272C117.01 167.443 116.962 167.555 116.866 167.608C116.77 167.661 116.632 167.688 116.45 167.688ZM119.664 175C119.419 175 119.296 174.872 119.296 174.616V169.08C119.605 168.941 120.011 168.819 120.512 168.712C121.024 168.605 121.611 168.552 122.272 168.552C122.891 168.552 123.392 168.595 123.776 168.68C124.16 168.765 124.453 168.893 124.656 169.064C124.859 169.235 124.992 169.459 125.056 169.736C125.131 170.003 125.168 170.328 125.168 170.712V174.52C125.168 174.637 125.152 174.733 125.12 174.808C125.099 174.883 125.051 174.936 124.976 174.968C124.912 174.989 124.811 175 124.672 175H124.048V170.488C124.048 170.061 123.909 169.747 123.632 169.544C123.355 169.341 122.901 169.24 122.272 169.24C122.069 169.24 121.845 169.256 121.6 169.288C121.365 169.32 121.141 169.368 120.928 169.432C120.715 169.485 120.539 169.56 120.4 169.656V175H119.664ZM126.647 169.368H127.175V168.424C127.175 167.923 127.271 167.544 127.463 167.288C127.655 167.032 128.028 166.904 128.583 166.904C128.839 166.904 129.079 166.915 129.303 166.936C129.538 166.947 129.746 166.963 129.927 166.984C130.119 167.005 130.284 167.021 130.423 167.032V167.688C130.348 167.656 130.242 167.635 130.103 167.624C129.964 167.603 129.81 167.587 129.639 167.576C129.479 167.565 129.314 167.56 129.143 167.56C128.791 167.56 128.556 167.635 128.439 167.784C128.332 167.923 128.279 168.173 128.279 168.536V169.368H130.103V169.992H128.279V175H127.575C127.415 175 127.308 174.968 127.255 174.904C127.202 174.84 127.175 174.728 127.175 174.568V169.992H126.647V169.368ZM134.224 175.096C133.734 175.096 133.291 175.059 132.896 174.984C132.512 174.909 132.176 174.76 131.888 174.536C131.611 174.312 131.398 173.981 131.248 173.544C131.099 173.107 131.024 172.531 131.024 171.816C131.024 171.101 131.099 170.525 131.248 170.088C131.398 169.651 131.611 169.32 131.888 169.096C132.176 168.872 132.512 168.723 132.896 168.648C133.291 168.573 133.734 168.536 134.224 168.536C134.704 168.536 135.136 168.573 135.52 168.648C135.915 168.723 136.251 168.872 136.528 169.096C136.806 169.32 137.019 169.651 137.168 170.088C137.318 170.525 137.392 171.101 137.392 171.816C137.392 172.541 137.318 173.123 137.168 173.56C137.019 173.997 136.806 174.328 136.528 174.552C136.251 174.765 135.915 174.909 135.52 174.984C135.136 175.059 134.704 175.096 134.224 175.096ZM134.224 174.472C134.651 174.472 135.014 174.408 135.312 174.28C135.622 174.152 135.856 173.901 136.016 173.528C136.176 173.155 136.256 172.584 136.256 171.816C136.256 171.048 136.176 170.477 136.016 170.104C135.856 169.731 135.622 169.48 135.312 169.352C135.014 169.224 134.651 169.16 134.224 169.16C133.798 169.16 133.43 169.224 133.12 169.352C132.822 169.48 132.587 169.731 132.416 170.104C132.256 170.477 132.176 171.048 132.176 171.816C132.176 172.584 132.256 173.155 132.416 173.528C132.587 173.901 132.822 174.152 133.12 174.28C133.43 174.408 133.798 174.472 134.224 174.472Z" fill="#1C274C"/>
<defs>
<linearGradient id="paint0_linear_277_92741" x1="107.593" y1="23.419" x2="58.9108" y2="85.9853" gradientUnits="userSpaceOnUse">
<stop stop-color="#6D6AFE"/>
<stop offset="1" stop-color="#3FB0F7"/>
</linearGradient>
<linearGradient id="paint1_linear_277_92741" x1="74.5103" y1="16.0628" x2="97.8801" y2="125.421" gradientUnits="userSpaceOnUse">
<stop stop-color="#965CF2"/>
<stop offset="1" stop-color="#FF8ADC"/>
</linearGradient>
<linearGradient id="paint2_linear_277_92741" x1="49.1327" y1="74.718" x2="41.9707" y2="95.6559" gradientUnits="userSpaceOnUse">
<stop stop-color="#40457F"/>
<stop offset="1" stop-color="#1E2353"/>
</linearGradient>
<linearGradient id="paint3_linear_277_92741" x1="45.4126" y1="75.9675" x2="32.6459" y2="99.9946" gradientUnits="userSpaceOnUse">
<stop stop-color="#40457F"/>
<stop offset="1" stop-color="#1E2353"/>
</linearGradient>
<linearGradient id="paint4_linear_277_92741" x1="41.1858" y1="50.735" x2="45.953" y2="68.2782" gradientUnits="userSpaceOnUse">
<stop stop-color="#A77EF7"/>
<stop offset="1" stop-color="#5E65D6"/>
</linearGradient>
<linearGradient id="paint5_linear_277_92741" x1="38.956" y1="53.7506" x2="43.3735" y2="68.1015" gradientUnits="userSpaceOnUse">
<stop stop-color="#A77EF7"/>
<stop offset="1" stop-color="#5E65D6"/>
</linearGradient>
<linearGradient id="paint6_linear_277_92741" x1="37.0945" y1="72.2295" x2="37.4646" y2="70.7979" gradientUnits="userSpaceOnUse">
<stop stop-color="#FF8A78"/>
<stop offset="1" stop-color="#FFA799"/>
</linearGradient>
<linearGradient id="paint7_linear_277_92741" x1="31.265" y1="54.8037" x2="34.5817" y2="68.8866" gradientUnits="userSpaceOnUse">
<stop stop-color="#A77EF7"/>
<stop offset="1" stop-color="#5E65D6"/>
</linearGradient>
<linearGradient id="paint8_linear_277_92741" x1="41.2872" y1="44.3879" x2="40.4616" y2="45.9211" gradientUnits="userSpaceOnUse">
<stop stop-color="#FF8A78"/>
<stop offset="1" stop-color="#FFA799"/>
</linearGradient>
<linearGradient id="paint9_linear_277_92741" x1="43.0006" y1="39.9564" x2="43.1229" y2="43.8846" gradientUnits="userSpaceOnUse">
<stop stop-color="#FFB89E"/>
<stop offset="1" stop-color="#FFA799"/>
</linearGradient>
<linearGradient id="paint10_linear_277_92741" x1="42.6346" y1="37.141" x2="41.3105" y2="36.666" gradientUnits="userSpaceOnUse">
<stop stop-color="#8A4791"/>
<stop offset="1" stop-color="#562E65"/>
</linearGradient>
<linearGradient id="paint11_linear_277_92741" x1="49.1718" y1="50.691" x2="52.3936" y2="59.1449" gradientUnits="userSpaceOnUse">
<stop stop-color="#A77EF7"/>
<stop offset="1" stop-color="#5E65D6"/>
</linearGradient>
<linearGradient id="paint12_linear_277_92741" x1="48.7729" y1="50.4103" x2="51.7367" y2="59.5536" gradientUnits="userSpaceOnUse">
<stop stop-color="#A77EF7"/>
<stop offset="1" stop-color="#5E65D6"/>
</linearGradient>
<linearGradient id="paint13_linear_277_92741" x1="86.9876" y1="95.3056" x2="83.4128" y2="109.416" gradientUnits="userSpaceOnUse">
<stop stop-color="#A77EF7"/>
<stop offset="1" stop-color="#5E65D6"/>
</linearGradient>
<linearGradient id="paint14_linear_277_92741" x1="78.1126" y1="65.2685" x2="91.048" y2="60.7818" gradientUnits="userSpaceOnUse">
<stop stop-color="#FA5DB1"/>
<stop offset="1" stop-color="#FEBFBF"/>
</linearGradient>
<linearGradient id="paint15_linear_277_92741" x1="97.6884" y1="57.0914" x2="124.68" y2="38.0456" gradientUnits="userSpaceOnUse">
<stop stop-color="#6D6AFE"/>
<stop offset="1" stop-color="#3FB0F7"/>
</linearGradient>
<linearGradient id="paint16_linear_277_92741" x1="107.156" y1="56.5505" x2="106.364" y2="43.0003" gradientUnits="userSpaceOnUse">
<stop stop-color="#6D6AFE"/>
<stop offset="1" stop-color="#3FB0F7"/>
</linearGradient>
<linearGradient id="paint17_linear_277_92741" x1="95.1034" y1="58.6902" x2="95.233" y2="52.5453" gradientUnits="userSpaceOnUse">
<stop stop-color="#6D6AFE"/>
<stop offset="1" stop-color="#3FB0F7"/>
</linearGradient>
<linearGradient id="paint18_linear_277_92741" x1="66.7138" y1="74.9989" x2="85.1445" y2="56.5676" gradientUnits="userSpaceOnUse">
<stop stop-color="#6D6AFE"/>
<stop offset="1" stop-color="#3FB0F7"/>
</linearGradient>
<linearGradient id="paint19_linear_277_92741" x1="60.7654" y1="60.595" x2="68.6512" y2="78.1346" gradientUnits="userSpaceOnUse">
<stop stop-color="#1C8EF4"/>
<stop offset="1" stop-color="#00CFDD"/>
</linearGradient>
<linearGradient id="paint20_linear_277_92741" x1="49.2553" y1="21.8136" x2="42.046" y2="13.314" gradientUnits="userSpaceOnUse">
<stop stop-color="#FA5DB1"/>
<stop offset="1" stop-color="#FEBFBF"/>
</linearGradient>
<linearGradient id="paint21_linear_277_92741" x1="50.2507" y1="26.6751" x2="36.0075" y2="16.0998" gradientUnits="userSpaceOnUse">
<stop stop-color="#FA5DB1"/>
<stop offset="1" stop-color="#FEBFBF"/>
</linearGradient>
<linearGradient id="paint22_linear_277_92741" x1="124.072" y1="36.1584" x2="121.834" y2="44.4552" gradientUnits="userSpaceOnUse">
<stop stop-color="#FA5DB1"/>
<stop offset="1" stop-color="#FEBFBF"/>
</linearGradient>
<linearGradient id="paint23_linear_277_92741" x1="15.2626" y1="33.4915" x2="17.3596" y2="28.6632" gradientUnits="userSpaceOnUse">
<stop stop-color="#965CF2"/>
<stop offset="1" stop-color="#FF8ADC"/>
</linearGradient>
<linearGradient id="paint24_linear_277_92741" x1="20.2781" y1="105.611" x2="23.0583" y2="120.53" gradientUnits="userSpaceOnUse">
<stop stop-color="#FA79B6"/>
<stop offset="1" stop-color="#FFBFAB"/>
</linearGradient>
<linearGradient id="paint25_linear_277_92741" x1="142.255" y1="31.7761" x2="142.216" y2="45.0878" gradientUnits="userSpaceOnUse">
<stop stop-color="#6D6AFE"/>
<stop offset="1" stop-color="#3FB0F7"/>
</linearGradient>
<linearGradient id="paint26_linear_277_92741" x1="13.3511" y1="19.1855" x2="13.3416" y2="22.4771" gradientUnits="userSpaceOnUse">
<stop stop-color="#1C8EF4"/>
<stop offset="1" stop-color="#00CFDD"/>
</linearGradient>
<linearGradient id="paint27_linear_277_92741" x1="130.016" y1="8.32824" x2="130.003" y2="12.8711" gradientUnits="userSpaceOnUse">
<stop stop-color="#FA5DB1"/>
<stop offset="1" stop-color="#FEBFBF"/>
</linearGradient>
<linearGradient id="paint28_linear_277_92741" x1="117.924" y1="114.438" x2="130.005" y2="114.438" gradientUnits="userSpaceOnUse">
<stop stop-color="#A77EF7"/>
<stop offset="1" stop-color="#5E65D6"/>
</linearGradient>
<linearGradient id="paint29_linear_277_92741" x1="26.8832" y1="74.443" x2="29.6004" y2="77.7195" gradientUnits="userSpaceOnUse">
<stop stop-color="#1C8EF4"/>
<stop offset="1" stop-color="#00CFDD"/>
</linearGradient>
</defs>
</svg>
