<svg width="31" height="31" viewBox="0 0 31 31" fill="none" xmlns="http://www.w3.org/2000/svg">
<path d="M13.0563 6.9795L6.83399 12.5104C5.67077 13.5444 5.08916 14.0614 4.87482 14.6719C4.68659 15.208 4.68659 15.7922 4.87482 16.3283C5.08916 16.9387 5.67077 17.4557 6.83399 18.4897L13.0563 24.0206C13.5842 24.4899 13.8481 24.7245 14.0723 24.7329C14.267 24.7401 14.454 24.6562 14.578 24.5058C14.7206 24.3326 14.7206 23.9795 14.7206 23.2732V19.7858C17.7558 19.7858 20.9615 20.7606 23.3022 22.491C24.5208 23.3919 25.1302 23.8424 25.3623 23.8246C25.5885 23.8073 25.732 23.7189 25.8494 23.5248C25.9698 23.3256 25.8635 22.7032 25.6508 21.4585C24.2695 13.3758 18.7071 11.2144 14.7206 11.2144V7.72691C14.7206 7.02064 14.7206 6.66751 14.578 6.49438C14.454 6.34397 14.267 6.25999 14.0723 6.26728C13.8481 6.27567 13.5842 6.51028 13.0563 6.9795Z" fill="#1C274C"/>
</svg>
