<svg width="150" height="30" viewBox="0 0 150 30" fill="none" xmlns="http://www.w3.org/2000/svg">
<rect width="149.679" height="30" rx="7" fill="#F2F2F2"/>
<path d="M31.0153 19.75L32.8773 14.248C32.9893 13.9307 33.1433 13.688 33.3393 13.52C33.5353 13.3427 33.8713 13.254 34.3473 13.254C34.7767 13.254 35.094 13.3333 35.2993 13.492C35.5047 13.6507 35.668 13.9027 35.7893 14.248L37.6933 19.75H36.5313L35.9293 17.972H32.4293L31.8553 19.75H31.0153ZM32.6113 17.482H35.7333L34.8093 14.668C34.7627 14.528 34.702 14.4067 34.6273 14.304C34.5527 14.192 34.4033 14.136 34.1793 14.136C33.9273 14.136 33.7593 14.192 33.6753 14.304C33.6007 14.416 33.5447 14.5373 33.5073 14.668L32.6113 17.482ZM38.5848 16.922C38.5848 16.166 38.6828 15.5873 38.8788 15.186C39.0841 14.7847 39.3781 14.5093 39.7608 14.36C40.1434 14.2107 40.6101 14.136 41.1608 14.136C41.3194 14.136 41.5061 14.1407 41.7208 14.15C41.9448 14.1593 42.1688 14.178 42.3928 14.206C42.6168 14.2247 42.8128 14.248 42.9808 14.276C43.1488 14.304 43.2654 14.332 43.3308 14.36L43.0368 14.5V12.68H44.0028L43.9888 16.936C43.9888 17.5707 43.9468 18.0793 43.8628 18.462C43.7788 18.8353 43.6341 19.1153 43.4288 19.302C43.2328 19.4887 42.9528 19.6147 42.5888 19.68C42.2341 19.7453 41.7861 19.778 41.2448 19.778C40.7408 19.778 40.3161 19.7453 39.9708 19.68C39.6254 19.6147 39.3501 19.484 39.1448 19.288C38.9488 19.092 38.8041 18.8073 38.7108 18.434C38.6268 18.0607 38.5848 17.5567 38.5848 16.922ZM41.1608 19.218C41.5808 19.218 41.9121 19.1947 42.1548 19.148C42.4068 19.092 42.5981 18.9893 42.7288 18.84C42.8594 18.6813 42.9434 18.462 42.9808 18.182C43.0181 17.902 43.0368 17.5333 43.0368 17.076V14.808C42.9341 14.7987 42.7848 14.7893 42.5888 14.78C42.4021 14.7707 42.2061 14.7613 42.0008 14.752C41.7954 14.7427 41.6134 14.738 41.4548 14.738C41.0068 14.738 40.6428 14.7987 40.3628 14.92C40.0828 15.032 39.8774 15.2513 39.7468 15.578C39.6254 15.8953 39.5648 16.3573 39.5648 16.964C39.5648 17.608 39.6114 18.0933 39.7048 18.42C39.8074 18.7373 39.9754 18.952 40.2088 19.064C40.4421 19.1667 40.7594 19.218 41.1608 19.218ZM45.3113 16.922C45.3113 16.166 45.4093 15.5873 45.6053 15.186C45.8106 14.7847 46.1046 14.5093 46.4873 14.36C46.87 14.2107 47.3366 14.136 47.8873 14.136C48.046 14.136 48.2326 14.1407 48.4473 14.15C48.6713 14.1593 48.8953 14.178 49.1193 14.206C49.3433 14.2247 49.5393 14.248 49.7073 14.276C49.8753 14.304 49.992 14.332 50.0573 14.36L49.7633 14.5V12.68H50.7293L50.7153 16.936C50.7153 17.5707 50.6733 18.0793 50.5893 18.462C50.5053 18.8353 50.3606 19.1153 50.1553 19.302C49.9593 19.4887 49.6793 19.6147 49.3153 19.68C48.9606 19.7453 48.5126 19.778 47.9713 19.778C47.4673 19.778 47.0426 19.7453 46.6973 19.68C46.352 19.6147 46.0766 19.484 45.8713 19.288C45.6753 19.092 45.5306 18.8073 45.4373 18.434C45.3533 18.0607 45.3113 17.5567 45.3113 16.922ZM47.8873 19.218C48.3073 19.218 48.6386 19.1947 48.8813 19.148C49.1333 19.092 49.3246 18.9893 49.4553 18.84C49.586 18.6813 49.67 18.462 49.7073 18.182C49.7446 17.902 49.7633 17.5333 49.7633 17.076V14.808C49.6606 14.7987 49.5113 14.7893 49.3153 14.78C49.1286 14.7707 48.9326 14.7613 48.7273 14.752C48.522 14.7427 48.34 14.738 48.1813 14.738C47.7333 14.738 47.3693 14.7987 47.0893 14.92C46.8093 15.032 46.604 15.2513 46.4733 15.578C46.352 15.8953 46.2913 16.3573 46.2913 16.964C46.2913 17.608 46.338 18.0933 46.4313 18.42C46.534 18.7373 46.702 18.952 46.9353 19.064C47.1686 19.1667 47.486 19.218 47.8873 19.218ZM58.2376 19.848C57.6869 19.848 57.2389 19.82 56.8936 19.764C56.5482 19.708 56.2822 19.6147 56.0956 19.484C55.9182 19.344 55.7922 19.162 55.7176 18.938C55.6522 18.714 55.6196 18.4387 55.6196 18.112C55.6196 17.636 55.6756 17.272 55.7876 17.02C55.8996 16.768 56.0956 16.5953 56.3756 16.502C56.6556 16.4087 57.0289 16.362 57.4956 16.362C57.7289 16.362 57.9809 16.3713 58.2516 16.39C58.5316 16.3993 58.7976 16.4133 59.0496 16.432C59.3109 16.4413 59.5349 16.4553 59.7216 16.474C59.9176 16.4927 60.0482 16.516 60.1136 16.544C60.1136 16.1147 60.0762 15.774 60.0016 15.522C59.9269 15.27 59.8102 15.0833 59.6516 14.962C59.5022 14.8407 59.3109 14.7613 59.0776 14.724C58.8536 14.6867 58.5922 14.668 58.2936 14.668C57.9856 14.668 57.6729 14.682 57.3556 14.71C57.0476 14.7287 56.7629 14.766 56.5016 14.822C56.2402 14.8687 56.0396 14.934 55.8996 15.018V14.808C55.8996 14.612 55.9556 14.4767 56.0676 14.402C56.1889 14.318 56.3242 14.262 56.4736 14.234C56.6509 14.1873 56.9076 14.15 57.2436 14.122C57.5889 14.094 57.9482 14.0847 58.3216 14.094C58.7976 14.094 59.2036 14.1173 59.5396 14.164C59.8849 14.2107 60.1696 14.3133 60.3936 14.472C60.6176 14.6213 60.7856 14.85 60.8976 15.158C61.0096 15.466 61.0656 15.886 61.0656 16.418V19.302C61.0096 19.4887 60.7622 19.6287 60.3236 19.722C59.8849 19.806 59.1896 19.848 58.2376 19.848ZM58.2376 19.372C58.6669 19.372 59.0076 19.358 59.2596 19.33C59.5209 19.302 59.7169 19.2647 59.8476 19.218C59.9876 19.1713 60.0762 19.1107 60.1136 19.036V16.95C60.0296 16.922 59.8709 16.894 59.6376 16.866C59.4136 16.838 59.1756 16.8147 58.9236 16.796C58.6716 16.768 58.4569 16.754 58.2796 16.754C57.8782 16.754 57.5516 16.7773 57.2996 16.824C57.0569 16.8707 56.8796 16.9873 56.7676 17.174C56.6649 17.3607 56.6136 17.65 56.6136 18.042C56.6136 18.35 56.6509 18.602 56.7256 18.798C56.8002 18.994 56.9496 19.1387 57.1736 19.232C57.4069 19.3253 57.7616 19.372 58.2376 19.372ZM66.0109 16.53C66.0109 15.8673 66.0762 15.3213 66.2069 14.892C66.3469 14.4627 66.5662 14.1267 66.8649 13.884C67.1635 13.6413 67.5462 13.4733 68.0129 13.38C68.4889 13.2867 69.0629 13.24 69.7349 13.24C70.0802 13.24 70.4115 13.254 70.7289 13.282C71.0555 13.3007 71.3869 13.338 71.7229 13.394C72.0029 13.4407 72.1802 13.506 72.2549 13.59C72.3389 13.6647 72.3809 13.772 72.3809 13.912V14.262C72.2035 14.178 71.9562 14.108 71.6389 14.052C71.3215 13.9867 70.9949 13.94 70.6589 13.912C70.3229 13.884 70.0242 13.87 69.7629 13.87C69.1095 13.87 68.5869 13.9493 68.1949 14.108C67.8122 14.2573 67.5369 14.5233 67.3689 14.906C67.2009 15.2887 67.1169 15.83 67.1169 16.53C67.1169 17.23 67.1962 17.776 67.3549 18.168C67.5135 18.5507 67.7889 18.8213 68.1809 18.98C68.5822 19.1387 69.1329 19.218 69.8329 19.218C70.0849 19.218 70.3695 19.204 70.6869 19.176C71.0042 19.148 71.3122 19.106 71.6109 19.05C71.9095 18.9847 72.1662 18.9193 72.3809 18.854V19.176C72.3809 19.2973 72.3389 19.4047 72.2549 19.498C72.1709 19.582 71.9842 19.6427 71.6949 19.68C71.3682 19.7453 71.0415 19.7873 70.7149 19.806C70.3882 19.834 70.0522 19.848 69.7069 19.848C69.0162 19.848 68.4329 19.8013 67.9569 19.708C67.4809 19.6053 67.0982 19.4373 66.8089 19.204C66.5289 18.9613 66.3235 18.6253 66.1929 18.196C66.0715 17.7667 66.0109 17.2113 66.0109 16.53ZM76.2344 19.834C75.805 19.834 75.4177 19.8013 75.0724 19.736C74.7364 19.6707 74.4424 19.54 74.1904 19.344C73.9477 19.148 73.761 18.8587 73.6304 18.476C73.4997 18.0933 73.4344 17.5893 73.4344 16.964C73.4344 16.3387 73.4997 15.8347 73.6304 15.452C73.761 15.0693 73.9477 14.78 74.1904 14.584C74.4424 14.388 74.7364 14.2573 75.0724 14.192C75.4177 14.1267 75.805 14.094 76.2344 14.094C76.6544 14.094 77.0324 14.1267 77.3684 14.192C77.7137 14.2573 78.0077 14.388 78.2504 14.584C78.493 14.78 78.6797 15.0693 78.8104 15.452C78.941 15.8347 79.0064 16.3387 79.0064 16.964C79.0064 17.5987 78.941 18.1073 78.8104 18.49C78.6797 18.8727 78.493 19.162 78.2504 19.358C78.0077 19.5447 77.7137 19.6707 77.3684 19.736C77.0324 19.8013 76.6544 19.834 76.2344 19.834ZM76.2344 19.288C76.6077 19.288 76.925 19.232 77.1864 19.12C77.457 19.008 77.6624 18.7887 77.8024 18.462C77.9424 18.1353 78.0124 17.636 78.0124 16.964C78.0124 16.292 77.9424 15.7927 77.8024 15.466C77.6624 15.1393 77.457 14.92 77.1864 14.808C76.925 14.696 76.6077 14.64 76.2344 14.64C75.861 14.64 75.539 14.696 75.2684 14.808C75.007 14.92 74.8017 15.1393 74.6524 15.466C74.5124 15.7927 74.4424 16.292 74.4424 16.964C74.4424 17.636 74.5124 18.1353 74.6524 18.462C74.8017 18.7887 75.007 19.008 75.2684 19.12C75.539 19.232 75.861 19.288 76.2344 19.288ZM80.887 19.75C80.719 19.75 80.607 19.7267 80.551 19.68C80.495 19.624 80.467 19.512 80.467 19.344V14.57C80.5416 14.542 80.649 14.5047 80.789 14.458C80.929 14.4113 81.097 14.3647 81.293 14.318C81.489 14.262 81.713 14.22 81.965 14.192C82.2263 14.1547 82.511 14.136 82.819 14.136C83.1363 14.136 83.4116 14.164 83.645 14.22C83.8783 14.2667 84.079 14.3553 84.247 14.486C84.415 14.6073 84.555 14.7753 84.667 14.99H84.471C84.5456 14.8313 84.653 14.696 84.793 14.584C84.933 14.4627 85.0963 14.3693 85.283 14.304C85.4696 14.2387 85.661 14.192 85.857 14.164C86.0623 14.136 86.2583 14.122 86.445 14.122C86.9676 14.122 87.3783 14.1733 87.677 14.276C87.9756 14.3787 88.1856 14.5513 88.307 14.794C88.4376 15.0367 88.503 15.3587 88.503 15.76V19.372C88.503 19.5213 88.475 19.624 88.419 19.68C88.363 19.7267 88.2603 19.75 88.111 19.75H87.523C87.523 19.078 87.523 18.4107 87.523 17.748C87.523 17.076 87.523 16.404 87.523 15.732C87.523 15.3213 87.4203 15.0413 87.215 14.892C87.019 14.7333 86.725 14.654 86.333 14.654C86.1463 14.654 85.9456 14.6773 85.731 14.724C85.5256 14.7707 85.3483 14.8407 85.199 14.934C85.0496 15.0273 84.975 15.1347 84.975 15.256V19.75H83.995V15.368C83.995 15.172 83.8783 15.0087 83.645 14.878C83.421 14.738 83.1316 14.668 82.777 14.668C82.5623 14.668 82.357 14.6867 82.161 14.724C81.965 14.752 81.8016 14.7987 81.671 14.864C81.5403 14.92 81.4656 14.9993 81.447 15.102V19.75H80.887ZM90.5256 19.75C90.3576 19.75 90.2456 19.7267 90.1896 19.68C90.1336 19.624 90.1056 19.512 90.1056 19.344V14.57C90.1803 14.542 90.2876 14.5047 90.4276 14.458C90.5676 14.4113 90.7356 14.3647 90.9316 14.318C91.1276 14.262 91.3516 14.22 91.6036 14.192C91.865 14.1547 92.1496 14.136 92.4576 14.136C92.775 14.136 93.0503 14.164 93.2836 14.22C93.517 14.2667 93.7176 14.3553 93.8856 14.486C94.0536 14.6073 94.1936 14.7753 94.3056 14.99H94.1096C94.1843 14.8313 94.2916 14.696 94.4316 14.584C94.5716 14.4627 94.735 14.3693 94.9216 14.304C95.1083 14.2387 95.2996 14.192 95.4956 14.164C95.701 14.136 95.897 14.122 96.0836 14.122C96.6063 14.122 97.017 14.1733 97.3156 14.276C97.6143 14.3787 97.8243 14.5513 97.9456 14.794C98.0763 15.0367 98.1416 15.3587 98.1416 15.76V19.372C98.1416 19.5213 98.1136 19.624 98.0576 19.68C98.0016 19.7267 97.899 19.75 97.7496 19.75H97.1616C97.1616 19.078 97.1616 18.4107 97.1616 17.748C97.1616 17.076 97.1616 16.404 97.1616 15.732C97.1616 15.3213 97.059 15.0413 96.8536 14.892C96.6576 14.7333 96.3636 14.654 95.9716 14.654C95.785 14.654 95.5843 14.6773 95.3696 14.724C95.1643 14.7707 94.987 14.8407 94.8376 14.934C94.6883 15.0273 94.6136 15.1347 94.6136 15.256V19.75H93.6336V15.368C93.6336 15.172 93.517 15.0087 93.2836 14.878C93.0596 14.738 92.7703 14.668 92.4156 14.668C92.201 14.668 91.9956 14.6867 91.7996 14.724C91.6036 14.752 91.4403 14.7987 91.3096 14.864C91.179 14.92 91.1043 14.9993 91.0856 15.102V19.75H90.5256ZM102.39 19.834C101.849 19.834 101.392 19.7967 101.018 19.722C100.654 19.6473 100.36 19.5073 100.136 19.302C99.9216 19.0967 99.763 18.812 99.6603 18.448C99.567 18.0747 99.5203 17.594 99.5203 17.006C99.5203 16.334 99.6043 15.7833 99.7723 15.354C99.9403 14.9247 100.239 14.6073 100.668 14.402C101.098 14.1967 101.7 14.094 102.474 14.094C103.072 14.094 103.548 14.1733 103.902 14.332C104.266 14.4907 104.528 14.7333 104.686 15.06C104.854 15.3867 104.938 15.8113 104.938 16.334V17.132H100.99C100.99 17.02 101.018 16.9267 101.074 16.852C101.13 16.768 101.233 16.726 101.382 16.726H104.056L104.042 16.32C104.033 15.7413 103.907 15.3213 103.664 15.06C103.431 14.7987 103.02 14.668 102.432 14.668C101.938 14.668 101.55 14.7427 101.27 14.892C100.99 15.0413 100.794 15.284 100.682 15.62C100.57 15.956 100.514 16.4133 100.514 16.992C100.514 17.608 100.575 18.0793 100.696 18.406C100.827 18.7233 101.042 18.9427 101.34 19.064C101.639 19.176 102.045 19.232 102.558 19.232C102.736 19.232 102.936 19.2273 103.16 19.218C103.394 19.1993 103.627 19.1807 103.86 19.162C104.094 19.1433 104.299 19.12 104.476 19.092C104.663 19.0547 104.794 19.0173 104.868 18.98V19.148C104.868 19.2413 104.84 19.33 104.784 19.414C104.738 19.498 104.635 19.568 104.476 19.624C104.271 19.708 103.991 19.764 103.636 19.792C103.291 19.82 102.876 19.834 102.39 19.834ZM106.574 19.75C106.359 19.75 106.252 19.638 106.252 19.414V14.57C106.523 14.4487 106.877 14.3413 107.316 14.248C107.764 14.1547 108.277 14.108 108.856 14.108C109.397 14.108 109.836 14.1453 110.172 14.22C110.508 14.2947 110.765 14.4067 110.942 14.556C111.119 14.7053 111.236 14.9013 111.292 15.144C111.357 15.3773 111.39 15.662 111.39 15.998V19.33C111.39 19.4327 111.376 19.5167 111.348 19.582C111.329 19.6473 111.287 19.694 111.222 19.722C111.166 19.7407 111.077 19.75 110.956 19.75H110.41V15.802C110.41 15.4287 110.289 15.1533 110.046 14.976C109.803 14.7987 109.407 14.71 108.856 14.71C108.679 14.71 108.483 14.724 108.268 14.752C108.063 14.78 107.867 14.822 107.68 14.878C107.493 14.9247 107.339 14.99 107.218 15.074V19.75H106.574ZM114.392 19.792C114.075 19.792 113.828 19.7547 113.65 19.68C113.473 19.596 113.342 19.456 113.258 19.26C113.174 19.064 113.132 18.798 113.132 18.462V14.71H112.6V14.164H113.132V13.156C113.132 13.016 113.142 12.9133 113.16 12.848C113.188 12.7733 113.23 12.7267 113.286 12.708C113.342 12.6893 113.422 12.68 113.524 12.68H114.126C114.126 12.6987 114.122 12.7407 114.112 12.806C114.112 12.862 114.112 12.946 114.112 13.058V14.164H115.414V14.71H114.112V18.35C114.112 18.714 114.15 18.9707 114.224 19.12C114.299 19.2693 114.467 19.344 114.728 19.344C114.831 19.344 114.938 19.3347 115.05 19.316C115.162 19.2973 115.242 19.2787 115.288 19.26V19.694C115.232 19.7033 115.125 19.722 114.966 19.75C114.808 19.778 114.616 19.792 114.392 19.792ZM120.549 19.75C120.362 19.75 120.245 19.722 120.199 19.666C120.161 19.61 120.143 19.4933 120.143 19.316V12.694H121.123V14.36C121.225 14.3133 121.375 14.2807 121.571 14.262C121.776 14.234 121.986 14.2107 122.201 14.192C122.425 14.1733 122.63 14.164 122.817 14.164C123.377 14.164 123.825 14.22 124.161 14.332C124.497 14.4347 124.744 14.5887 124.903 14.794C125.061 14.99 125.164 15.2373 125.211 15.536C125.267 15.8253 125.295 16.1567 125.295 16.53V19.204C125.295 19.3627 125.281 19.484 125.253 19.568C125.234 19.6427 125.192 19.694 125.127 19.722C125.061 19.7407 124.963 19.75 124.833 19.75H124.343V16.306C124.343 15.858 124.277 15.5173 124.147 15.284C124.025 15.0507 123.839 14.892 123.587 14.808C123.335 14.724 123.027 14.682 122.663 14.682C122.523 14.682 122.35 14.6913 122.145 14.71C121.949 14.7193 121.753 14.738 121.557 14.766C121.37 14.794 121.225 14.8313 121.123 14.878V19.75H120.549ZM129.556 19.834C129.015 19.834 128.558 19.7967 128.184 19.722C127.82 19.6473 127.526 19.5073 127.302 19.302C127.088 19.0967 126.929 18.812 126.826 18.448C126.733 18.0747 126.686 17.594 126.686 17.006C126.686 16.334 126.77 15.7833 126.938 15.354C127.106 14.9247 127.405 14.6073 127.834 14.402C128.264 14.1967 128.866 14.094 129.64 14.094C130.238 14.094 130.714 14.1733 131.068 14.332C131.432 14.4907 131.694 14.7333 131.852 15.06C132.02 15.3867 132.104 15.8113 132.104 16.334V17.132H128.156C128.156 17.02 128.184 16.9267 128.24 16.852C128.296 16.768 128.399 16.726 128.548 16.726H131.222L131.208 16.32C131.199 15.7413 131.073 15.3213 130.83 15.06C130.597 14.7987 130.186 14.668 129.598 14.668C129.104 14.668 128.716 14.7427 128.436 14.892C128.156 15.0413 127.96 15.284 127.848 15.62C127.736 15.956 127.68 16.4133 127.68 16.992C127.68 17.608 127.741 18.0793 127.862 18.406C127.993 18.7233 128.208 18.9427 128.506 19.064C128.805 19.176 129.211 19.232 129.724 19.232C129.902 19.232 130.102 19.2273 130.326 19.218C130.56 19.1993 130.793 19.1807 131.026 19.162C131.26 19.1433 131.465 19.12 131.642 19.092C131.829 19.0547 131.96 19.0173 132.034 18.98V19.148C132.034 19.2413 132.006 19.33 131.95 19.414C131.904 19.498 131.801 19.568 131.642 19.624C131.437 19.708 131.157 19.764 130.802 19.792C130.457 19.82 130.042 19.834 129.556 19.834ZM134.398 19.75H133.782C133.661 19.75 133.567 19.722 133.502 19.666C133.446 19.6007 133.418 19.484 133.418 19.316V14.444C133.623 14.3787 133.903 14.3087 134.258 14.234C134.622 14.1593 135.07 14.122 135.602 14.122C136.106 14.122 136.503 14.1593 136.792 14.234C137.091 14.2993 137.305 14.3927 137.436 14.514C137.576 14.6353 137.665 14.7847 137.702 14.962C137.749 15.13 137.772 15.3213 137.772 15.536H136.834L136.82 15.34C136.811 15.1253 136.741 14.9713 136.61 14.878C136.479 14.7753 136.325 14.7147 136.148 14.696C135.971 14.668 135.793 14.654 135.616 14.654C135.345 14.654 135.103 14.6773 134.888 14.724C134.683 14.7707 134.519 14.8313 134.398 14.906V19.75ZM141.533 19.834C140.992 19.834 140.534 19.7967 140.161 19.722C139.797 19.6473 139.503 19.5073 139.279 19.302C139.064 19.0967 138.906 18.812 138.803 18.448C138.71 18.0747 138.663 17.594 138.663 17.006C138.663 16.334 138.747 15.7833 138.915 15.354C139.083 14.9247 139.382 14.6073 139.811 14.402C140.24 14.1967 140.842 14.094 141.617 14.094C142.214 14.094 142.69 14.1733 143.045 14.332C143.409 14.4907 143.67 14.7333 143.829 15.06C143.997 15.3867 144.081 15.8113 144.081 16.334V17.132H140.133C140.133 17.02 140.161 16.9267 140.217 16.852C140.273 16.768 140.376 16.726 140.525 16.726H143.199L143.185 16.32C143.176 15.7413 143.05 15.3213 142.807 15.06C142.574 14.7987 142.163 14.668 141.575 14.668C141.08 14.668 140.693 14.7427 140.413 14.892C140.133 15.0413 139.937 15.284 139.825 15.62C139.713 15.956 139.657 16.4133 139.657 16.992C139.657 17.608 139.718 18.0793 139.839 18.406C139.97 18.7233 140.184 18.9427 140.483 19.064C140.782 19.176 141.188 19.232 141.701 19.232C141.878 19.232 142.079 19.2273 142.303 19.218C142.536 19.1993 142.77 19.1807 143.003 19.162C143.236 19.1433 143.442 19.12 143.619 19.092C143.806 19.0547 143.936 19.0173 144.011 18.98V19.148C144.011 19.2413 143.983 19.33 143.927 19.414C143.88 19.498 143.778 19.568 143.619 19.624C143.414 19.708 143.134 19.764 142.779 19.792C142.434 19.82 142.018 19.834 141.533 19.834Z" fill="#1C274C"/>
<path opacity="0.5" fill-rule="evenodd" clip-rule="evenodd" d="M7.5127 25.4424C7.5127 25.0282 7.84848 24.6924 8.2627 24.6924H24.2627C24.6769 24.6924 25.0127 25.0282 25.0127 25.4424C25.0127 25.8566 24.6769 26.1924 24.2627 26.1924H8.2627C7.84848 26.1924 7.5127 25.8566 7.5127 25.4424Z" fill="#1C274C"/>
<path opacity="0.5" d="M23.3434 10.814C24.5722 9.58517 24.5722 7.59284 23.3434 6.36401C22.1145 5.13517 20.1222 5.13517 18.8934 6.36401L18.1836 7.07379C18.1933 7.10314 18.2034 7.1329 18.2139 7.16304C18.474 7.91292 18.9649 8.89595 19.8883 9.81936C20.8117 10.7428 21.7947 11.2336 22.5446 11.4938C22.5746 11.5042 22.6042 11.5143 22.6335 11.5239L23.3434 10.814Z" fill="#1C274C"/>
<path d="M18.2138 7.04199L18.1832 7.07255C18.193 7.1019 18.203 7.13166 18.2135 7.1618C18.4737 7.91168 18.9645 8.89471 19.8879 9.81812C20.8114 10.7415 21.7944 11.2324 22.5443 11.4926C22.574 11.5029 22.6034 11.5128 22.6323 11.5224L15.7825 18.3723C15.3207 18.8341 15.0897 19.0651 14.8351 19.2636C14.5348 19.4979 14.2098 19.6987 13.866 19.8626C13.5745 20.0015 13.2647 20.1048 12.645 20.3113L9.37766 21.4005C9.07274 21.5021 8.73657 21.4227 8.5093 21.1955C8.28203 20.9682 8.20267 20.632 8.30431 20.3271L9.39344 17.0597C9.59998 16.4401 9.70325 16.1303 9.84216 15.8388C10.006 15.495 10.2069 15.17 10.4411 14.8697C10.6397 14.6151 10.8706 14.3841 11.3324 13.9224L18.2138 7.04199Z" fill="#1C274C"/>
</svg>
