<svg width="188" height="26" viewBox="0 0 188 26" fill="none" xmlns="http://www.w3.org/2000/svg">
<path d="M1.01173 24.8808C1.01173 24.8808 1.12804 24.8506 1.32518 24.7823C3.12579 24.0331 4.26965 22.9496 4.72693 22.4562C5.51858 21.5859 6.14082 20.4934 6.13307 19.2555C6.13307 18.9375 6.09527 18.6037 6.00629 18.2451C5.67075 16.8653 4.80485 15.1211 3.9847 13.1667C3.17134 11.2083 2.40042 9.00142 2.39713 6.55755C2.39093 4.81492 2.81292 2.9697 3.83971 1.12524C2.59369 2.17991 -0.520791 5.42936 0.621333 10.8257C1.81909 16.4855 4.33071 20.3245 1.01173 24.8808Z" fill="#E54C3A"/>
<path d="M22.6528 12.8078C23.6251 12.2254 24.323 11.4555 24.7433 10.5009C25.1631 9.54678 25.3742 8.63191 25.3742 7.75682C25.3742 6.72278 25.2364 5.76224 24.9598 4.87383C24.6833 3.98581 24.2304 3.21008 23.599 2.54725C22.9686 1.88481 22.1605 1.36113 21.1738 0.976208C20.1877 0.592071 18.9853 0.399414 17.5659 0.399414H7.35492C7.34889 0.475458 7.34229 0.592071 7.34229 0.746314C7.35356 1.50734 7.48999 3.04918 8.58569 4.77446H8.59968L8.59735 4.76898H18.0313C18.0918 4.76898 18.1454 4.7727 18.2029 4.77446H18.2358C18.2567 4.77446 18.277 4.77701 18.2979 4.7776C18.3335 4.77936 18.3699 4.78054 18.4041 4.78269C18.4734 4.78661 18.5418 4.79308 18.6093 4.80229C19.2168 4.8705 19.5563 5.02376 19.5563 5.02376C19.5563 5.02376 21.6195 5.64877 22.98 8.43749C22.98 8.43749 22.3362 8.70462 21.4735 9.40332C20.3718 10.3784 19.4562 11.3477 18.8215 12.509C18.4179 13.2382 18.1056 14.0863 17.7517 14.9957H18.2356C18.9982 14.9957 19.6556 15.2877 20.2074 15.8705C20.7597 16.4538 21.0362 17.1302 21.0362 17.899C21.0362 18.8266 20.7729 19.5757 20.2474 20.1454C19.7209 20.7162 19.0374 21.0005 18.1963 21.0005H14.2471C13.5228 21.8333 12.7166 22.6014 11.8213 23.2707C10.745 24.075 9.68547 24.7392 8.55051 25.3756H17.5661C18.9857 25.3756 20.1941 25.1637 21.1937 24.7392C22.1933 24.3149 23.002 23.7583 23.6194 23.069C24.2367 22.3795 24.6835 21.5912 24.9598 20.7026C25.2364 19.8144 25.3742 18.9064 25.3742 17.9788C25.3742 16.9979 25.1575 16.0367 24.7237 15.0954C24.2897 14.1541 23.599 13.3915 22.6528 12.8078Z" fill="#26A75C"/>
<path d="M14.9475 6.61816C13.2382 6.71248 11.5386 6.64106 11.5388 6.64183C10.9433 6.6145 10.4387 6.57369 10.4387 6.57369C13.1597 10.4339 12.3353 13.8653 12.3353 13.8653C12.1011 12.5226 11.8086 10.2655 9.11422 8.13422C4.57635 4.46495 5.26275 0.423584 5.26275 0.423584C-0.126863 7.3708 5.32749 13.2339 6.49424 17.9326C7.66137 22.6325 2.28125 25.3998 2.28125 25.3998C3.58 25.2508 5.49459 24.7249 6.85847 23.9855C8.05273 23.337 9.12469 22.6804 10.2247 21.8716C11.9482 20.6038 13.3466 18.9257 14.4019 17.0795C14.7087 16.5424 14.9884 15.9912 15.2399 15.4262C15.7888 14.1952 16.1814 12.9022 16.8391 11.7192C17.5871 10.3737 18.6321 9.30707 19.7882 8.30053C19.8031 8.28783 20.1104 8.01853 20.1233 8.03278C18.8415 6.61816 16.6572 6.52403 14.9475 6.61816ZM17.8503 7.87012C17.7148 7.87012 17.6047 7.76117 17.6047 7.62643C17.6047 7.49168 17.7147 7.38273 17.8503 7.38273C17.986 7.38273 18.0957 7.49168 18.0957 7.62643C18.0956 7.76117 17.9858 7.87012 17.8503 7.87012Z" fill="#FAD117"/>
<circle cx="31.3745" cy="5.89941" r="1" fill="black" fill-opacity="0.4"/>
<path d="M38.6385 9.39941V6.42341L35.8065 2.43941L35.5185 2.03941H37.7425L39.8545 5.30341L41.9665 2.03941H43.4545L43.0865 2.48741L40.2865 6.42341V8.72741C40.2972 8.89808 40.2812 9.03675 40.2385 9.14341C40.1958 9.23941 40.1212 9.30875 40.0145 9.35141C39.9078 9.38341 39.7585 9.39941 39.5665 9.39941H38.6385ZM46.6729 9.49541C46.0222 9.49541 45.4729 9.45275 45.0249 9.36741C44.5876 9.28208 44.2356 9.12208 43.9689 8.88741C43.7129 8.65275 43.5316 8.32741 43.4249 7.91141C43.3182 7.49541 43.2649 6.95675 43.2649 6.29541C43.2649 5.50608 43.3662 4.86608 43.5689 4.37541C43.7716 3.88475 44.1289 3.52741 44.6409 3.30341C45.1636 3.06875 45.8889 2.95141 46.8169 2.95141C47.5422 2.95141 48.1182 3.04208 48.5449 3.22341C48.9822 3.39408 49.2969 3.66608 49.4889 4.03941C49.6809 4.41275 49.7769 4.88741 49.7769 5.46341V6.48741H45.2809C45.2809 6.31675 45.3182 6.17808 45.3929 6.07141C45.4676 5.96475 45.6062 5.91141 45.8089 5.91141H48.4329L48.4169 5.49541C48.4062 4.89808 48.2782 4.46075 48.0329 4.18341C47.7982 3.90608 47.3716 3.76741 46.7529 3.76741C46.2409 3.76741 45.8409 3.84741 45.5529 4.00741C45.2649 4.16741 45.0622 4.42875 44.9449 4.79141C44.8276 5.14341 44.7689 5.63408 44.7689 6.26341C44.7689 6.91408 44.8329 7.41008 44.9609 7.75141C45.0996 8.08208 45.3236 8.30608 45.6329 8.42341C45.9529 8.54075 46.3956 8.59941 46.9609 8.59941C47.1636 8.59941 47.3982 8.59408 47.6649 8.58341C47.9422 8.57275 48.2196 8.55675 48.4969 8.53541C48.7849 8.51408 49.0409 8.48741 49.2649 8.45541C49.4889 8.42341 49.6382 8.39141 49.7129 8.35941V8.58341C49.7129 8.70075 49.6862 8.81808 49.6329 8.93541C49.5796 9.05275 49.4676 9.14875 49.2969 9.22341C49.0729 9.33008 48.7422 9.39941 48.3049 9.43141C47.8782 9.47408 47.3342 9.49541 46.6729 9.49541ZM51.1924 9.39941L51.1764 1.87941C51.1764 1.65541 51.2084 1.50608 51.2724 1.43141C51.3471 1.34608 51.5017 1.30341 51.7364 1.30341H52.6964V6.19941L55.4164 3.35141C55.5551 3.22341 55.6937 3.13275 55.8324 3.07941C55.9817 3.01541 56.1897 2.98341 56.4564 2.98341C56.6591 2.98341 56.8457 2.98875 57.0164 2.99941C57.1871 2.99941 57.3417 3.00475 57.4804 3.01541C57.4484 3.04741 57.3791 3.10075 57.2724 3.17541C57.1764 3.25008 57.0697 3.33541 56.9524 3.43141C56.8351 3.51675 56.7284 3.60208 56.6324 3.68741L54.5684 5.65541L57.3524 8.74341C57.4697 8.87141 57.5871 8.98875 57.7044 9.09541C57.8217 9.20208 57.9337 9.30341 58.0404 9.39941C57.7737 9.41008 57.5017 9.41541 57.2244 9.41541C56.9577 9.41541 56.7177 9.41541 56.5044 9.41541C56.2591 9.41541 56.0724 9.38875 55.9444 9.33541C55.8271 9.27141 55.6991 9.17008 55.5604 9.03141L53.5284 6.74341L52.6964 7.44741V9.39941H51.1924ZM63.5396 9.43141C62.7183 9.43141 62.0143 9.43141 61.4276 9.43141C60.841 9.43141 60.345 9.42608 59.9396 9.41541C59.545 9.41541 59.2196 9.41008 58.9636 9.39941V2.77541C58.9636 2.46608 59.0276 2.26875 59.1556 2.18341C59.2943 2.09808 59.481 2.05008 59.7156 2.03941C60.0356 2.03941 60.3183 2.03941 60.5636 2.03941C60.8196 2.02875 61.049 2.02341 61.2516 2.02341C61.465 2.01275 61.6676 2.00741 61.8596 2.00741C62.0623 2.00741 62.2756 2.00741 62.4996 2.00741C62.7556 2.00741 63.0276 2.01275 63.3156 2.02341C63.6036 2.02341 63.8756 2.02875 64.1316 2.03941C64.3876 2.03941 64.585 2.04475 64.7236 2.05541C65.321 2.09808 65.7583 2.26341 66.0356 2.55141C66.313 2.83941 66.4516 3.26608 66.4516 3.83141C66.4516 4.24741 66.3823 4.58341 66.2436 4.83941C66.1156 5.08475 65.945 5.26075 65.7316 5.36741C65.529 5.46341 65.3263 5.52208 65.1236 5.54341C65.3476 5.54341 65.5556 5.56475 65.7476 5.60741C65.9396 5.65008 66.1103 5.73541 66.2596 5.86341C66.409 5.98075 66.5263 6.16208 66.6116 6.40741C66.697 6.64208 66.7396 6.95675 66.7396 7.35141C66.7396 7.83141 66.6596 8.21541 66.4996 8.50341C66.3396 8.78075 66.1156 8.98875 65.8276 9.12741C65.5503 9.25541 65.2143 9.34075 64.8196 9.38341C64.425 9.41541 63.9983 9.43141 63.5396 9.43141ZM63.0596 8.59941C63.3263 8.59941 63.577 8.59408 63.8116 8.58341C64.057 8.56208 64.2756 8.51408 64.4676 8.43941C64.6596 8.36475 64.809 8.23675 64.9156 8.05541C65.033 7.86341 65.0916 7.60208 65.0916 7.27141C65.0916 6.80208 64.985 6.47675 64.7716 6.29541C64.569 6.11408 64.1636 6.02341 63.5556 6.02341H61.1396C60.9903 6.02341 60.889 5.95941 60.8356 5.83141C60.793 5.69275 60.7716 5.49008 60.7716 5.22341H63.5076C63.7316 5.22341 63.9396 5.19675 64.1316 5.14341C64.3343 5.07941 64.4943 4.95675 64.6116 4.77541C64.7396 4.58341 64.8036 4.30075 64.8036 3.92741C64.8036 3.57541 64.7236 3.30341 64.5636 3.11141C64.4143 2.91941 64.1636 2.80741 63.8116 2.77541C63.6303 2.76475 63.4223 2.75941 63.1876 2.75941C62.953 2.74875 62.7236 2.74341 62.4996 2.74341C62.2116 2.74341 61.9396 2.74341 61.6836 2.74341C61.4276 2.74341 61.209 2.74875 61.0276 2.75941C60.9103 2.75941 60.809 2.79675 60.7236 2.87141C60.649 2.93541 60.6116 3.04741 60.6116 3.20741V8.58341C60.7076 8.58341 60.8143 8.58875 60.9316 8.59941C61.049 8.59941 61.1876 8.59941 61.3476 8.59941C61.5183 8.59941 61.737 8.59941 62.0036 8.59941C62.281 8.59941 62.633 8.59941 63.0596 8.59941ZM69.8336 3.01541V7.28741C69.8336 7.77808 69.967 8.12475 70.2336 8.32741C70.5003 8.53008 70.9163 8.63141 71.4816 8.63141C72.0896 8.63141 72.5216 8.52475 72.7776 8.31141C73.0443 8.09808 73.1776 7.75675 73.1776 7.28741V3.01541C73.1883 3.01541 73.231 3.01541 73.3056 3.01541C73.391 3.01541 73.4816 3.01541 73.5776 3.01541C73.6736 3.01541 73.7643 3.01541 73.8496 3.01541C73.935 3.01541 73.9883 3.01541 74.0096 3.01541C74.1803 3.01541 74.3136 3.02608 74.4096 3.04741C74.5056 3.05808 74.5696 3.10608 74.6016 3.19141C74.6443 3.26608 74.6656 3.39408 74.6656 3.57541V7.06341C74.6656 7.62875 74.5803 8.09275 74.4096 8.45541C74.239 8.80741 73.919 9.06875 73.4496 9.23941C72.991 9.39941 72.3296 9.47941 71.4656 9.47941C70.655 9.47941 70.0203 9.41008 69.5616 9.27141C69.1136 9.13275 68.7936 8.89808 68.6016 8.56741C68.4203 8.22608 68.3296 7.76208 68.3296 7.17541V3.57541C68.3296 3.35141 68.367 3.20208 68.4416 3.12741C68.5163 3.05275 68.6656 3.01541 68.8896 3.01541C69.0496 3.01541 69.2043 3.01541 69.3536 3.01541C69.5136 3.01541 69.6736 3.01541 69.8336 3.01541ZM76.7494 9.39941C76.4507 9.39941 76.3014 9.25008 76.3014 8.95141V3.44741C76.6214 3.31941 77.0534 3.20741 77.5974 3.11141C78.1414 3.00475 78.7601 2.95141 79.4534 2.95141C80.1361 2.95141 80.6801 2.99408 81.0854 3.07941C81.5014 3.16475 81.8161 3.30341 82.0294 3.49541C82.2427 3.67675 82.3814 3.91675 82.4454 4.21541C82.5201 4.51408 82.5574 4.88208 82.5574 5.31941V8.79141C82.5574 8.94075 82.5414 9.06341 82.5094 9.15941C82.4881 9.25541 82.4294 9.31941 82.3334 9.35141C82.2481 9.38341 82.1147 9.39941 81.9334 9.39941H81.0534V4.99941C81.0534 4.58341 80.9254 4.28475 80.6694 4.10341C80.4134 3.92208 80.0081 3.83141 79.4534 3.83141C79.2827 3.83141 79.0907 3.84741 78.8774 3.87941C78.6641 3.90075 78.4614 3.93808 78.2694 3.99141C78.0774 4.04475 77.9227 4.11408 77.8054 4.19941V9.39941H76.7494ZM87.898 2.03941H95.642V2.95141H92.602V8.77541C92.602 9.01008 92.5647 9.17541 92.49 9.27141C92.426 9.35675 92.2713 9.39941 92.026 9.39941H90.954V2.95141H87.898V2.03941ZM99.4698 9.49541C98.8191 9.49541 98.2698 9.45275 97.8218 9.36741C97.3844 9.28208 97.0324 9.12208 96.7658 8.88741C96.5098 8.65275 96.3284 8.32741 96.2218 7.91141C96.1151 7.49541 96.0618 6.95675 96.0618 6.29541C96.0618 5.50608 96.1631 4.86608 96.3658 4.37541C96.5684 3.88475 96.9258 3.52741 97.4378 3.30341C97.9604 3.06875 98.6858 2.95141 99.6138 2.95141C100.339 2.95141 100.915 3.04208 101.342 3.22341C101.779 3.39408 102.094 3.66608 102.286 4.03941C102.478 4.41275 102.574 4.88741 102.574 5.46341V6.48741H98.0778C98.0778 6.31675 98.1151 6.17808 98.1898 6.07141C98.2644 5.96475 98.4031 5.91141 98.6058 5.91141H101.23L101.214 5.49541C101.203 4.89808 101.075 4.46075 100.83 4.18341C100.595 3.90608 100.168 3.76741 99.5498 3.76741C99.0378 3.76741 98.6378 3.84741 98.3498 4.00741C98.0618 4.16741 97.8591 4.42875 97.7418 4.79141C97.6244 5.14341 97.5658 5.63408 97.5658 6.26341C97.5658 6.91408 97.6298 7.41008 97.7578 7.75141C97.8964 8.08208 98.1204 8.30608 98.4298 8.42341C98.7498 8.54075 99.1924 8.59941 99.7578 8.59941C99.9604 8.59941 100.195 8.59408 100.462 8.58341C100.739 8.57275 101.016 8.55675 101.294 8.53541C101.582 8.51408 101.838 8.48741 102.062 8.45541C102.286 8.42341 102.435 8.39141 102.51 8.35941V8.58341C102.51 8.70075 102.483 8.81808 102.43 8.93541C102.376 9.05275 102.264 9.14875 102.094 9.22341C101.87 9.33008 101.539 9.39941 101.102 9.43141C100.675 9.47408 100.131 9.49541 99.4698 9.49541ZM106.885 9.49541C106.224 9.49541 105.685 9.46341 105.269 9.39941C104.853 9.34608 104.533 9.24475 104.309 9.09541C104.085 8.94608 103.931 8.74341 103.845 8.48741C103.771 8.23141 103.733 7.91141 103.733 7.52741C103.733 6.98341 103.792 6.57275 103.909 6.29541C104.037 6.00741 104.251 5.81008 104.549 5.70341C104.859 5.59675 105.269 5.54341 105.781 5.54341C106.048 5.54341 106.341 5.54875 106.661 5.55941C106.992 5.57008 107.307 5.58608 107.605 5.60741C107.915 5.61808 108.181 5.63408 108.405 5.65541C108.64 5.67675 108.795 5.70341 108.869 5.73541C108.869 5.28741 108.832 4.93541 108.757 4.67941C108.683 4.42341 108.56 4.23141 108.389 4.10341C108.229 3.97541 108.027 3.89008 107.781 3.84741C107.536 3.80475 107.248 3.78341 106.917 3.78341C106.555 3.78341 106.192 3.79408 105.829 3.81541C105.477 3.83675 105.141 3.87408 104.821 3.92741C104.512 3.98075 104.256 4.05008 104.053 4.13541V3.83141C104.053 3.58608 104.117 3.41008 104.245 3.30341C104.384 3.19675 104.549 3.12741 104.741 3.09541C104.955 3.04208 105.269 2.99941 105.685 2.96741C106.101 2.93541 106.544 2.92475 107.013 2.93541C107.611 2.93541 108.117 2.96741 108.533 3.03141C108.96 3.08475 109.301 3.20208 109.557 3.38341C109.824 3.56475 110.016 3.83675 110.133 4.19941C110.261 4.56208 110.325 5.04741 110.325 5.65541V8.91941C110.229 9.12208 109.904 9.27141 109.349 9.36741C108.795 9.45275 107.973 9.49541 106.885 9.49541ZM106.885 8.82341C107.312 8.82341 107.659 8.81275 107.925 8.79141C108.203 8.75941 108.416 8.72208 108.565 8.67941C108.715 8.62608 108.816 8.56208 108.869 8.48741V6.27941C108.773 6.24741 108.603 6.22075 108.357 6.19941C108.112 6.16741 107.856 6.14075 107.589 6.11941C107.323 6.09808 107.099 6.08741 106.917 6.08741C106.523 6.08741 106.203 6.11408 105.957 6.16741C105.712 6.22075 105.536 6.34341 105.429 6.53541C105.323 6.72741 105.269 7.02608 105.269 7.43141C105.269 7.76208 105.307 8.02875 105.381 8.23141C105.456 8.43408 105.605 8.58341 105.829 8.67941C106.064 8.77541 106.416 8.82341 106.885 8.82341ZM112.566 9.39941C112.32 9.39941 112.155 9.36208 112.07 9.28741C111.995 9.21275 111.958 9.05275 111.958 8.80741V3.46341C112.075 3.43141 112.224 3.38875 112.406 3.33541C112.598 3.28208 112.816 3.22875 113.062 3.17541C113.318 3.11141 113.595 3.06341 113.894 3.03141C114.203 2.99941 114.523 2.98341 114.854 2.98341C115.238 2.98341 115.568 3.01541 115.846 3.07941C116.123 3.13275 116.363 3.23941 116.566 3.39941C116.768 3.54875 116.934 3.76741 117.062 4.05541L116.806 4.03941C116.891 3.83675 117.019 3.66608 117.19 3.52741C117.36 3.37808 117.552 3.26608 117.766 3.19141C117.99 3.10608 118.219 3.04741 118.454 3.01541C118.688 2.98341 118.907 2.96741 119.11 2.96741C119.75 2.96741 120.251 3.03141 120.614 3.15941C120.987 3.27675 121.248 3.47941 121.398 3.76741C121.558 4.05541 121.638 4.45008 121.638 4.95141V8.85541C121.638 9.07941 121.595 9.22875 121.51 9.30341C121.435 9.36741 121.286 9.39941 121.062 9.39941H120.15C120.15 8.65275 120.15 7.90608 120.15 7.15941C120.15 6.41275 120.15 5.66075 120.15 4.90341C120.139 4.44475 120.032 4.13541 119.83 3.97541C119.627 3.81541 119.318 3.73541 118.902 3.73541C118.71 3.73541 118.507 3.76208 118.294 3.81541C118.091 3.86875 117.915 3.94341 117.766 4.03941C117.627 4.13541 117.558 4.24741 117.558 4.37541V9.39941H116.054V4.56741C116.054 4.31141 115.936 4.11408 115.702 3.97541C115.467 3.82608 115.163 3.75141 114.79 3.75141C114.566 3.75141 114.358 3.77275 114.166 3.81541C113.974 3.84741 113.814 3.89541 113.686 3.95941C113.558 4.02341 113.483 4.10875 113.462 4.21541V9.39941H112.566Z" fill="black"/>
<circle cx="127.375" cy="5.89941" r="1" fill="black" fill-opacity="0.4"/>
<circle cx="31.3745" cy="22.3994" r="1" fill="black" fill-opacity="0.4"/>
<path d="M34.6385 19.8794H40.0985V20.4194H37.8305V25.0034C37.8305 25.1554 37.8105 25.2594 37.7705 25.3154C37.7385 25.3714 37.6505 25.3994 37.5065 25.3994H36.9185V20.4194H34.6385V19.8794ZM41.9256 25.4474C41.5496 25.4474 41.2976 25.3474 41.1696 25.1474C41.0416 24.9474 40.9776 24.6554 40.9776 24.2714V20.6114H41.8176V24.2234C41.8176 24.5514 41.8536 24.7714 41.9256 24.8834C41.9976 24.9954 42.1256 25.0514 42.3096 25.0514C42.3736 25.0514 42.4536 25.0434 42.5496 25.0274C42.6456 25.0114 42.7056 24.9994 42.7296 24.9914V25.3634C42.7056 25.3714 42.6576 25.3834 42.5856 25.3994C42.5216 25.4074 42.4336 25.4154 42.3216 25.4234C42.2176 25.4394 42.0856 25.4474 41.9256 25.4474ZM41.4096 19.9154C41.2736 19.9154 41.1656 19.8954 41.0856 19.8554C41.0056 19.8154 40.9656 19.7314 40.9656 19.6034C40.9656 19.4754 41.0016 19.3914 41.0736 19.3514C41.1536 19.3114 41.2616 19.2914 41.3976 19.2914C41.5496 19.2914 41.6616 19.3114 41.7336 19.3514C41.8056 19.3914 41.8376 19.4754 41.8296 19.6034C41.8296 19.7314 41.7936 19.8154 41.7216 19.8554C41.6496 19.8954 41.5456 19.9154 41.4096 19.9154ZM43.9037 25.3994C43.7597 25.3994 43.6637 25.3794 43.6157 25.3394C43.5677 25.2914 43.5437 25.1954 43.5437 25.0514V20.9594C43.6077 20.9354 43.6997 20.9034 43.8197 20.8634C43.9397 20.8234 44.0837 20.7834 44.2517 20.7434C44.4197 20.6954 44.6117 20.6594 44.8277 20.6354C45.0517 20.6034 45.2957 20.5874 45.5597 20.5874C45.8317 20.5874 46.0677 20.6114 46.2677 20.6594C46.4677 20.6994 46.6397 20.7754 46.7837 20.8874C46.9277 20.9914 47.0477 21.1354 47.1437 21.3194H46.9757C47.0397 21.1834 47.1317 21.0674 47.2517 20.9714C47.3717 20.8674 47.5117 20.7874 47.6717 20.7314C47.8317 20.6754 47.9957 20.6354 48.1637 20.6114C48.3397 20.5874 48.5077 20.5754 48.6677 20.5754C49.1157 20.5754 49.4677 20.6194 49.7237 20.7074C49.9797 20.7954 50.1597 20.9434 50.2637 21.1514C50.3757 21.3594 50.4317 21.6354 50.4317 21.9794V25.0754C50.4317 25.2034 50.4077 25.2914 50.3597 25.3394C50.3117 25.3794 50.2237 25.3994 50.0957 25.3994H49.5917C49.5917 24.8234 49.5917 24.2514 49.5917 23.6834C49.5917 23.1074 49.5917 22.5314 49.5917 21.9554C49.5917 21.6034 49.5037 21.3634 49.3277 21.2354C49.1597 21.0994 48.9077 21.0314 48.5717 21.0314C48.4117 21.0314 48.2397 21.0514 48.0557 21.0914C47.8797 21.1314 47.7277 21.1914 47.5997 21.2714C47.4717 21.3514 47.4077 21.4434 47.4077 21.5474V25.3994H46.5677V21.6434C46.5677 21.4754 46.4677 21.3354 46.2677 21.2234C46.0757 21.1034 45.8277 21.0434 45.5237 21.0434C45.3397 21.0434 45.1637 21.0594 44.9957 21.0914C44.8277 21.1154 44.6877 21.1554 44.5757 21.2114C44.4637 21.2594 44.3997 21.3274 44.3837 21.4154V25.3994H43.9037ZM54.0734 25.4714C53.6094 25.4714 53.2174 25.4394 52.8974 25.3754C52.5854 25.3114 52.3334 25.1914 52.1414 25.0154C51.9574 24.8394 51.8214 24.5954 51.7334 24.2834C51.6534 23.9634 51.6134 23.5514 51.6134 23.0474C51.6134 22.4714 51.6854 21.9994 51.8294 21.6314C51.9734 21.2634 52.2294 20.9914 52.5974 20.8154C52.9654 20.6394 53.4814 20.5514 54.1454 20.5514C54.6574 20.5514 55.0654 20.6194 55.3694 20.7554C55.6814 20.8914 55.9054 21.0994 56.0414 21.3794C56.1854 21.6594 56.2574 22.0234 56.2574 22.4714V23.1554H52.8734C52.8734 23.0594 52.8974 22.9794 52.9454 22.9154C52.9934 22.8434 53.0814 22.8074 53.2094 22.8074H55.5014L55.4894 22.4594C55.4814 21.9634 55.3734 21.6034 55.1654 21.3794C54.9654 21.1554 54.6134 21.0434 54.1094 21.0434C53.6854 21.0434 53.3534 21.1074 53.1134 21.2354C52.8734 21.3634 52.7054 21.5714 52.6094 21.8594C52.5134 22.1474 52.4654 22.5394 52.4654 23.0354C52.4654 23.5634 52.5174 23.9674 52.6214 24.2474C52.7334 24.5194 52.9174 24.7074 53.1734 24.8114C53.4294 24.9074 53.7774 24.9554 54.2174 24.9554C54.3694 24.9554 54.5414 24.9514 54.7334 24.9434C54.9334 24.9274 55.1334 24.9114 55.3334 24.8954C55.5334 24.8794 55.7094 24.8594 55.8614 24.8354C56.0214 24.8034 56.1334 24.7714 56.1974 24.7394V24.8834C56.1974 24.9634 56.1734 25.0394 56.1254 25.1114C56.0854 25.1834 55.9974 25.2434 55.8614 25.2914C55.6854 25.3634 55.4454 25.4114 55.1414 25.4354C54.8454 25.4594 54.4894 25.4714 54.0734 25.4714ZM66.1536 25.4594C66.0336 25.4034 65.8856 25.3194 65.7096 25.2074C65.5416 25.0954 65.3496 24.9634 65.1336 24.8114C65.0536 24.9794 64.9336 25.1074 64.7736 25.1954C64.6216 25.2754 64.4336 25.3354 64.2096 25.3754C63.9296 25.4234 63.6136 25.4554 63.2616 25.4714C62.9176 25.4874 62.5776 25.4874 62.2416 25.4714C61.9056 25.4554 61.6136 25.4314 61.3656 25.3994C61.1176 25.3594 60.9056 25.2874 60.7296 25.1834C60.5616 25.0714 60.4336 24.8994 60.3456 24.6674C60.2656 24.4274 60.2256 24.0954 60.2256 23.6714C60.2256 23.4394 60.2536 23.2154 60.3096 22.9994C60.3736 22.7754 60.4656 22.5874 60.5856 22.4354C60.7056 22.2754 60.8576 22.1794 61.0416 22.1474C60.8816 22.0514 60.7576 21.9274 60.6696 21.7754C60.5816 21.6154 60.5376 21.3874 60.5376 21.0914C60.5376 20.8194 60.5896 20.6034 60.6936 20.4434C60.8056 20.2754 60.9456 20.1514 61.1136 20.0714C61.2896 19.9914 61.4816 19.9394 61.6896 19.9154C61.9056 19.8834 62.1176 19.8634 62.3256 19.8554C62.5176 19.8394 62.7216 19.8314 62.9376 19.8314C63.1536 19.8314 63.3656 19.8394 63.5736 19.8554C63.7896 19.8634 63.9816 19.8754 64.1496 19.8914C64.3256 19.9074 64.4856 19.9314 64.6296 19.9634C64.7736 19.9954 64.8896 20.0594 64.9776 20.1554C65.0656 20.2434 65.1096 20.3874 65.1096 20.5874C64.9896 20.5074 64.8136 20.4514 64.5816 20.4194C64.3496 20.3794 64.1096 20.3514 63.8616 20.3354C63.6136 20.3194 63.4056 20.3114 63.2376 20.3114C63.0696 20.3114 62.8816 20.3194 62.6736 20.3354C62.4656 20.3434 62.2656 20.3794 62.0736 20.4434C61.8816 20.4994 61.7216 20.5914 61.5936 20.7194C61.4656 20.8394 61.4016 21.0154 61.4016 21.2474C61.4016 21.4474 61.4576 21.6234 61.5696 21.7754C61.6896 21.9274 61.8616 22.0834 62.0856 22.2434L64.3656 23.8874V22.2194C64.5416 22.2194 64.6896 22.2314 64.8096 22.2554C64.9376 22.2714 65.0376 22.3074 65.1096 22.3634C65.1816 22.4194 65.2256 22.5034 65.2416 22.6154C65.2496 22.7914 65.2536 22.9874 65.2536 23.2034C65.2616 23.4194 65.2616 23.6274 65.2536 23.8274C65.2536 24.0274 65.2496 24.1994 65.2416 24.3434L66.1536 24.9314V25.4594ZM61.6776 22.5074C61.5496 22.5474 61.4496 22.6354 61.3776 22.7714C61.3136 22.8994 61.2656 23.0434 61.2336 23.2034C61.2096 23.3634 61.1976 23.4954 61.1976 23.5994C61.1976 24.0714 61.2576 24.3994 61.3776 24.5834C61.5056 24.7674 61.6976 24.8874 61.9536 24.9434C62.1056 24.9754 62.2816 24.9994 62.4816 25.0154C62.6896 25.0234 62.8976 25.0234 63.1056 25.0154C63.3216 24.9994 63.5056 24.9714 63.6576 24.9314C63.7616 24.9074 63.8616 24.8794 63.9576 24.8474C64.0536 24.8074 64.1376 24.7554 64.2096 24.6914C64.2816 24.6194 64.3296 24.5234 64.3536 24.4034C63.9056 24.0834 63.4576 23.7674 63.0096 23.4554C62.5616 23.1354 62.1176 22.8194 61.6776 22.5074ZM76.2262 22.6874C76.2262 23.3434 76.1542 23.8594 76.0102 24.2354C75.8662 24.6034 75.6582 24.8714 75.3862 25.0394C75.1222 25.2074 74.7942 25.3154 74.4022 25.3634C74.0182 25.4034 73.5822 25.4234 73.0942 25.4234C72.8622 25.4234 72.6182 25.4194 72.3622 25.4114C72.1142 25.4114 71.8662 25.4114 71.6182 25.4114C71.3782 25.4114 71.1582 25.4074 70.9582 25.3994C70.7662 25.3994 70.6102 25.3994 70.4902 25.3994V20.6474C70.4902 20.3914 70.5222 20.2034 70.5862 20.0834C70.6582 19.9634 70.8382 19.8954 71.1262 19.8794C71.2542 19.8714 71.4222 19.8674 71.6302 19.8674C71.8382 19.8674 72.0582 19.8674 72.2902 19.8674C72.5302 19.8594 72.7622 19.8554 72.9862 19.8554C73.2102 19.8554 73.3982 19.8594 73.5502 19.8674C73.9902 19.8834 74.3742 19.9194 74.7022 19.9754C75.0382 20.0314 75.3182 20.1514 75.5422 20.3354C75.7742 20.5194 75.9462 20.7994 76.0582 21.1754C76.1702 21.5434 76.2262 22.0474 76.2262 22.6874ZM71.4142 24.8834C71.4702 24.8834 71.5702 24.8874 71.7142 24.8954C71.8662 24.8954 72.0302 24.8954 72.2062 24.8954C72.3822 24.8954 72.5502 24.8994 72.7102 24.9074C72.8782 24.9074 73.0062 24.9074 73.0942 24.9074C73.5022 24.9074 73.8462 24.8794 74.1262 24.8234C74.4062 24.7674 74.6302 24.6634 74.7982 24.5114C74.9742 24.3514 75.0982 24.1274 75.1702 23.8394C75.2502 23.5434 75.2902 23.1594 75.2902 22.6874C75.2902 22.0474 75.2222 21.5634 75.0862 21.2354C74.9582 20.8994 74.7382 20.6714 74.4262 20.5514C74.1222 20.4314 73.6942 20.3714 73.1422 20.3714C73.0302 20.3714 72.8702 20.3714 72.6622 20.3714C72.4622 20.3714 72.2622 20.3754 72.0622 20.3834C71.8622 20.3834 71.7062 20.3914 71.5942 20.4074C71.5382 20.4394 71.4942 20.4834 71.4622 20.5394C71.4302 20.5874 71.4142 20.6874 71.4142 20.8394V24.8834ZM79.5212 25.4834C79.0492 25.4834 78.6652 25.4594 78.3692 25.4114C78.0732 25.3634 77.8452 25.2834 77.6852 25.1714C77.5332 25.0514 77.4252 24.8954 77.3612 24.7034C77.3052 24.5114 77.2772 24.2754 77.2772 23.9954C77.2772 23.5874 77.3252 23.2754 77.4212 23.0594C77.5172 22.8434 77.6852 22.6954 77.9252 22.6154C78.1652 22.5354 78.4852 22.4954 78.8852 22.4954C79.0852 22.4954 79.3012 22.5034 79.5332 22.5194C79.7732 22.5274 80.0012 22.5394 80.2172 22.5554C80.4412 22.5634 80.6332 22.5754 80.7932 22.5914C80.9612 22.6074 81.0732 22.6274 81.1292 22.6514C81.1292 22.2834 81.0972 21.9914 81.0332 21.7754C80.9692 21.5594 80.8692 21.3994 80.7332 21.2954C80.6052 21.1914 80.4412 21.1234 80.2412 21.0914C80.0492 21.0594 79.8252 21.0434 79.5692 21.0434C79.3052 21.0434 79.0372 21.0554 78.7652 21.0794C78.5012 21.0954 78.2572 21.1274 78.0332 21.1754C77.8092 21.2154 77.6372 21.2714 77.5172 21.3434V21.1634C77.5172 20.9954 77.5652 20.8794 77.6612 20.8154C77.7652 20.7434 77.8812 20.6954 78.0092 20.6714C78.1612 20.6314 78.3812 20.5994 78.6692 20.5754C78.9652 20.5514 79.2732 20.5434 79.5932 20.5514C80.0012 20.5514 80.3492 20.5714 80.6372 20.6114C80.9332 20.6514 81.1772 20.7394 81.3692 20.8754C81.5612 21.0034 81.7052 21.1994 81.8012 21.4634C81.8972 21.7274 81.9452 22.0874 81.9452 22.5434V25.0154C81.8972 25.1754 81.6852 25.2954 81.3092 25.3754C80.9332 25.4474 80.3372 25.4834 79.5212 25.4834ZM79.5212 25.0754C79.8892 25.0754 80.1812 25.0634 80.3972 25.0394C80.6212 25.0154 80.7892 24.9834 80.9012 24.9434C81.0212 24.9034 81.0972 24.8514 81.1292 24.7874V22.9994C81.0572 22.9754 80.9212 22.9514 80.7212 22.9274C80.5292 22.9034 80.3252 22.8834 80.1092 22.8674C79.8932 22.8434 79.7092 22.8314 79.5572 22.8314C79.2132 22.8314 78.9332 22.8514 78.7172 22.8914C78.5092 22.9314 78.3572 23.0314 78.2612 23.1914C78.1732 23.3514 78.1292 23.5994 78.1292 23.9354C78.1292 24.1994 78.1612 24.4154 78.2252 24.5834C78.2892 24.7514 78.4172 24.8754 78.6092 24.9554C78.8092 25.0354 79.1132 25.0754 79.5212 25.0754ZM84.482 25.4354C84.21 25.4354 83.998 25.4034 83.846 25.3394C83.694 25.2674 83.582 25.1474 83.51 24.9794C83.438 24.8114 83.402 24.5834 83.402 24.2954V21.0794H82.946V20.6114H83.402V19.7474C83.402 19.6274 83.41 19.5394 83.426 19.4834C83.45 19.4194 83.486 19.3794 83.534 19.3634C83.582 19.3474 83.65 19.3394 83.738 19.3394H84.254C84.254 19.3554 84.25 19.3914 84.242 19.4474C84.242 19.4954 84.242 19.5674 84.242 19.6634V20.6114H85.358V21.0794H84.242V24.1994C84.242 24.5114 84.274 24.7314 84.338 24.8594C84.402 24.9874 84.546 25.0514 84.77 25.0514C84.858 25.0514 84.95 25.0434 85.046 25.0274C85.142 25.0114 85.21 24.9954 85.25 24.9794V25.3514C85.202 25.3594 85.11 25.3754 84.974 25.3994C84.838 25.4234 84.674 25.4354 84.482 25.4354ZM88.4797 25.4714C88.0157 25.4714 87.6237 25.4394 87.3037 25.3754C86.9917 25.3114 86.7397 25.1914 86.5477 25.0154C86.3637 24.8394 86.2277 24.5954 86.1397 24.2834C86.0597 23.9634 86.0197 23.5514 86.0197 23.0474C86.0197 22.4714 86.0917 21.9994 86.2357 21.6314C86.3797 21.2634 86.6357 20.9914 87.0037 20.8154C87.3717 20.6394 87.8877 20.5514 88.5517 20.5514C89.0637 20.5514 89.4717 20.6194 89.7757 20.7554C90.0877 20.8914 90.3117 21.0994 90.4477 21.3794C90.5917 21.6594 90.6637 22.0234 90.6637 22.4714V23.1554H87.2797C87.2797 23.0594 87.3037 22.9794 87.3517 22.9154C87.3997 22.8434 87.4877 22.8074 87.6157 22.8074H89.9077L89.8957 22.4594C89.8877 21.9634 89.7797 21.6034 89.5717 21.3794C89.3717 21.1554 89.0197 21.0434 88.5157 21.0434C88.0917 21.0434 87.7597 21.1074 87.5197 21.2354C87.2797 21.3634 87.1117 21.5714 87.0157 21.8594C86.9197 22.1474 86.8717 22.5394 86.8717 23.0354C86.8717 23.5634 86.9237 23.9674 87.0277 24.2474C87.1397 24.5194 87.3237 24.7074 87.5797 24.8114C87.8357 24.9074 88.1837 24.9554 88.6237 24.9554C88.7757 24.9554 88.9477 24.9514 89.1397 24.9434C89.3397 24.9274 89.5397 24.9114 89.7397 24.8954C89.9397 24.8794 90.1157 24.8594 90.2677 24.8354C90.4277 24.8034 90.5397 24.7714 90.6037 24.7394V24.8834C90.6037 24.9634 90.5797 25.0394 90.5317 25.1114C90.4917 25.1834 90.4037 25.2434 90.2677 25.2914C90.0917 25.3634 89.8517 25.4114 89.5477 25.4354C89.2517 25.4594 88.8957 25.4714 88.4797 25.4714Z" fill="black" fill-opacity="0.4"/>
<circle cx="94.3745" cy="22.3994" r="1" fill="black" fill-opacity="0.4"/>
<g opacity="0.75">
<rect x="162.375" y="0.399414" width="25" height="25" rx="7" fill="white"/>
</g>
<mask id="mask0_277_100343" style="mask-type:alpha" maskUnits="userSpaceOnUse" x="167" y="3" width="17" height="2">
<rect x="167" y="3" width="17" height="1.7416" rx="0.870802" fill="#F3B811"/>
</mask>
<g mask="url(#mask0_277_100343)">
<path d="M167 3H173.29V9.53102V12.5788C170.845 12.5788 168.52 11.4464 167 9.53102V3Z" fill="#E52021"/>
<rect x="173.292" y="3" width="4.42" height="9.57883" fill="#F7F7F7"/>
<path d="M177.708 3H183.998V9.53102C182.478 11.4464 180.154 12.5788 177.708 12.5788V9.53102V3Z" fill="#268A42"/>
<rect x="167" y="3" width="17" height="1.7416" rx="0.870802" fill="black" fill-opacity="0.05"/>
</g>
<path fill-rule="evenodd" clip-rule="evenodd" d="M173.295 4.74268H168.875V11.2737L169.25 11.946C169.483 12.3638 169.775 12.7363 170.113 13.0554C170.236 12.992 170.369 12.9451 170.509 12.9181L170.985 12.8264C171.055 12.8129 171.121 12.7821 171.177 12.7367C171.233 12.6912 171.277 12.6325 171.305 12.5656L171.499 12.1121C171.796 11.4146 172.563 11.0374 173.283 11.2348L173.295 11.2382V4.74268Z" fill="#E52021"/>
<path fill-rule="evenodd" clip-rule="evenodd" d="M177.712 4.74292H173.292V11.2392L173.744 11.3633C173.813 11.3823 173.886 11.3837 173.955 11.3675C174.025 11.3512 174.09 11.3178 174.144 11.2702L174.51 10.9474C175.075 10.4508 175.926 10.4508 176.49 10.9474L176.857 11.2702C176.911 11.3179 176.976 11.3512 177.045 11.3675C177.115 11.3837 177.188 11.3823 177.256 11.3633L177.712 11.2383V4.74292Z" fill="#F7F7F7"/>
<path fill-rule="evenodd" clip-rule="evenodd" d="M182.135 4.74268H177.715V11.2388L177.73 11.2348C178.449 11.0373 179.216 11.4146 179.513 12.1121L179.707 12.5656C179.735 12.6324 179.779 12.6912 179.835 12.7367C179.891 12.7821 179.957 12.8129 180.027 12.8264L180.503 12.9181C180.643 12.945 180.775 12.9916 180.898 13.0546C181.235 12.7357 181.527 12.3634 181.76 11.946L182.135 11.2737V4.74268Z" fill="#268A42"/>
<path d="M175.377 4.1333L175.574 6.27638L176.353 4.27701L175.952 6.39018L177.249 4.69649L176.284 6.60855L177.994 5.35776L176.542 6.91381L178.527 6.20725L176.706 7.28122L178.805 7.17613L176.762 7.68103L178.805 8.18592L176.706 8.08083L178.527 9.15481L176.542 8.44825L177.994 10.0043L176.284 8.7535L177.249 10.6656L175.952 8.97188L176.353 11.085L175.574 9.08567L175.377 11.2288L175.18 9.08567L174.401 11.085L174.802 8.97188L173.505 10.6656L174.47 8.7535L172.76 10.0043L174.212 8.44825L172.227 9.15481L174.048 8.08083L171.949 8.18592L173.992 7.68103L171.949 7.17613L174.048 7.28122L172.227 6.20725L174.212 6.91381L172.76 5.35776L174.47 6.60855L173.505 4.69649L174.802 6.39018L174.401 4.27701L175.18 6.27638L175.377 4.1333Z" fill="#F7B70F"/>
<path fill-rule="evenodd" clip-rule="evenodd" d="M181.687 18.3039C181.657 18.2488 181.642 18.1874 181.642 18.1251C181.642 18.0627 181.657 18.0013 181.687 17.9462L181.889 17.5726C182.199 16.9978 182.03 16.2733 181.496 15.8875L181.149 15.6367C181.098 15.5997 181.057 15.551 181.029 15.4949C181.001 15.4387 180.988 15.3768 180.991 15.3145L181.007 14.892C181.032 14.2422 180.56 13.6612 179.907 13.5407L179.484 13.4623C179.421 13.4508 179.362 13.4245 179.313 13.3856C179.263 13.3467 179.224 13.2965 179.198 13.2394L179.026 12.8518C178.761 12.2555 178.078 11.933 177.437 12.1018L177.02 12.2115C176.959 12.2277 176.895 12.2289 176.833 12.215C176.771 12.2012 176.713 12.1726 176.665 12.1319L176.338 11.856C175.835 11.4315 175.077 11.4315 174.574 11.856L174.248 12.1319C174.199 12.1726 174.142 12.2012 174.08 12.215C174.018 12.2289 173.953 12.2277 173.892 12.2115L173.475 12.1018C172.834 11.9331 172.151 12.2555 171.886 12.8518L171.714 13.2394C171.689 13.2966 171.649 13.3468 171.6 13.3856C171.55 13.4245 171.491 13.4508 171.429 13.4623L171.005 13.5407C170.353 13.6612 169.88 14.2422 169.905 14.892L169.922 15.3145C169.924 15.3768 169.911 15.4387 169.883 15.4949C169.856 15.551 169.815 15.5997 169.763 15.6367L169.416 15.8875C168.882 16.2734 168.713 16.9979 169.024 17.5727L169.225 17.9463C169.255 18.0014 169.271 18.0628 169.271 18.1251C169.271 18.1874 169.255 18.2488 169.225 18.3039L169.024 18.6775C168.713 19.2523 168.882 19.9768 169.416 20.3627L169.763 20.6135C169.814 20.6504 169.856 20.6991 169.883 20.7553C169.911 20.8115 169.924 20.8734 169.922 20.9357L169.905 21.3581C169.88 22.0081 170.353 22.589 171.005 22.7095L171.227 22.7506L171.227 22.7505L171.429 22.7877C171.491 22.7993 171.55 22.8256 171.6 22.8645C171.649 22.9034 171.689 22.9536 171.714 23.0108L171.886 23.3983C172.151 23.9946 172.834 24.3171 173.475 24.1483L173.892 24.0386C173.953 24.0224 174.018 24.0212 174.08 24.0351C174.142 24.0489 174.199 24.0775 174.247 24.1182L174.574 24.3941C174.601 24.4169 174.629 24.4387 174.658 24.4593L174.658 24.4594L174.658 24.4593C174.894 24.628 175.175 24.7126 175.456 24.7126C175.733 24.7126 176.01 24.6308 176.243 24.4672L176.243 24.4671C176.276 24.4442 176.307 24.4199 176.338 24.3941L176.665 24.1182C176.713 24.0775 176.77 24.0489 176.832 24.0351C176.894 24.0212 176.959 24.0224 177.02 24.0386L177.437 24.1483C177.552 24.1784 177.668 24.1929 177.782 24.1929C178.309 24.1929 178.808 23.8879 179.026 23.3983L179.198 23.0107C179.224 22.9536 179.263 22.9033 179.313 22.8645C179.362 22.8256 179.421 22.7993 179.484 22.7877L179.671 22.7531L179.671 22.7532L179.671 22.7531L179.907 22.7095C180.56 22.589 181.032 22.008 181.007 21.3581L180.991 20.9357C180.988 20.8734 181.001 20.8115 181.029 20.7553C181.057 20.6991 181.098 20.6504 181.149 20.6135L181.496 20.3627C182.03 19.9768 182.199 19.2523 181.889 18.6775L181.687 18.3039Z" fill="#D5D5D5"/>
<ellipse cx="175.458" cy="18.158" rx="4.30721" ry="4.22127" fill="white"/>
<path d="M178.174 17.8131C178.32 17.6729 178.372 17.4673 178.309 17.2762C178.246 17.0851 178.08 16.9487 177.878 16.9196L176.605 16.7382C176.593 16.7365 176.582 16.7321 176.573 16.7253C176.563 16.7185 176.555 16.7095 176.55 16.6992L175.981 15.569C175.891 15.389 175.707 15.2771 175.502 15.2771C175.297 15.2771 175.114 15.3893 175.023 15.569L174.454 16.6992C174.449 16.7096 174.441 16.7185 174.431 16.7253C174.422 16.7321 174.411 16.7366 174.399 16.7382L173.127 16.9196C172.924 16.9487 172.758 17.0851 172.695 17.2762C172.632 17.4673 172.684 17.6729 172.831 17.8131L173.751 18.6926C173.769 18.7091 173.776 18.7327 173.772 18.7558L173.555 19.9976C173.538 20.0939 173.548 20.1931 173.586 20.2838C173.624 20.3744 173.687 20.4528 173.768 20.5099C173.848 20.5677 173.944 20.6022 174.043 20.6093C174.143 20.6164 174.242 20.5959 174.33 20.5501L175.468 19.9637C175.479 19.9582 175.491 19.9554 175.502 19.9554C175.514 19.9554 175.526 19.9582 175.536 19.9637L176.674 20.5501C176.763 20.5957 176.862 20.6162 176.961 20.6091C177.061 20.602 177.156 20.5676 177.237 20.5099C177.318 20.4528 177.381 20.3744 177.418 20.2838C177.456 20.1931 177.467 20.0939 177.449 19.9976L177.232 18.7558C177.23 18.7444 177.231 18.7327 177.235 18.7217C177.238 18.7107 177.245 18.7007 177.253 18.6926L178.174 17.8131Z" fill="#F3B811"/>
</svg>
