<svg width="130" height="19" viewBox="0 0 130 19" fill="none" xmlns="http://www.w3.org/2000/svg">
<circle cx="1" cy="9.64404" r="1" fill="black" fill-opacity="0.4"/>
<path d="M14 7.39404C12.7574 7.39404 11.75 6.38668 11.75 5.14404C11.75 3.9014 12.7574 2.89404 14 2.89404C15.2426 2.89404 16.25 3.9014 16.25 5.14404C16.25 6.38668 15.2426 7.39404 14 7.39404Z" stroke="#1C274C"/>
<path d="M9.125 16.394C7.88236 16.394 6.875 15.3867 6.875 14.144C6.875 12.9014 7.88236 11.894 9.125 11.894C10.3676 11.894 11.375 12.9014 11.375 14.144C11.375 15.3867 10.3676 16.394 9.125 16.394Z" stroke="#1C274C"/>
<path d="M18.875 16.394C17.6324 16.394 16.625 15.3867 16.625 14.144C16.625 12.9014 17.6324 11.894 18.875 11.894C20.1176 11.894 21.125 12.9014 21.125 14.144C21.125 15.3867 20.1176 16.394 18.875 16.394Z" stroke="#1C274C"/>
<path opacity="0.5" d="M20 10.3941C20 8.60201 19.2144 6.99346 17.9687 5.89404M8 10.3941C8 8.60201 8.78564 6.99346 10.0313 5.89404M12.5 16.205C12.9794 16.3284 13.4821 16.3941 14 16.3941C14.5179 16.3941 15.0206 16.3284 15.5 16.205" stroke="#1C274C" stroke-linecap="round"/>
<circle cx="27" cy="9.64404" r="1" fill="black" fill-opacity="0.4"/>
<path d="M31.768 12.332C32.0027 12.4707 32.3067 12.5774 32.68 12.652C33.064 12.716 33.4587 12.7587 33.864 12.78C34.2693 12.7907 34.6213 12.796 34.92 12.796C35.0373 12.796 35.1707 12.796 35.32 12.796C35.48 12.7854 35.6187 12.78 35.736 12.78C36.12 12.7694 36.456 12.7267 36.744 12.652C37.032 12.5667 37.2507 12.428 37.4 12.236C37.56 12.044 37.64 11.772 37.64 11.42C37.64 10.9827 37.5227 10.7 37.288 10.572C37.064 10.444 36.7333 10.38 36.296 10.38C36.1467 10.38 35.9867 10.38 35.816 10.38C35.6453 10.38 35.448 10.38 35.224 10.38C35.0107 10.38 34.76 10.38 34.472 10.38C34.152 10.38 33.832 10.364 33.512 10.332C33.192 10.3 32.904 10.2307 32.648 10.124C32.392 10.0067 32.184 9.82538 32.024 9.58004C31.864 9.32404 31.784 8.96671 31.784 8.50804C31.784 7.97471 31.88 7.55338 32.072 7.24404C32.264 6.93471 32.5307 6.71071 32.872 6.57204C33.224 6.42271 33.624 6.32671 34.072 6.28404C34.5307 6.24138 35.032 6.22004 35.576 6.22004C35.896 6.22004 36.248 6.22538 36.632 6.23604C37.016 6.24671 37.384 6.27338 37.736 6.31604C38.088 6.34804 38.36 6.40671 38.552 6.49204C38.776 6.51338 38.9467 6.58271 39.064 6.70004C39.192 6.80671 39.256 6.94538 39.256 7.11604C39.256 7.14804 39.256 7.20138 39.256 7.27604C39.256 7.35071 39.256 7.42004 39.256 7.48404C39.256 7.54804 39.256 7.59604 39.256 7.62804C39.1707 7.52138 39.0107 7.44138 38.776 7.38804C38.552 7.32404 38.296 7.27604 38.008 7.24404C37.72 7.21204 37.4373 7.19071 37.16 7.18004C36.8933 7.15871 36.664 7.14804 36.472 7.14804H35.384C35.0213 7.14804 34.696 7.18004 34.408 7.24404C34.12 7.29738 33.8907 7.41471 33.72 7.59604C33.5493 7.76671 33.464 8.03338 33.464 8.39604C33.464 8.67338 33.5173 8.88671 33.624 9.03604C33.7413 9.17471 33.9067 9.27071 34.12 9.32404C34.344 9.36671 34.6053 9.38804 34.904 9.38804C35.3947 9.38804 35.8107 9.38804 36.152 9.38804C36.4933 9.38804 36.7547 9.38804 36.936 9.38804C37.416 9.38804 37.8373 9.43071 38.2 9.51604C38.5733 9.59071 38.8613 9.76671 39.064 10.044C39.2773 10.3214 39.384 10.7587 39.384 11.356C39.384 11.9214 39.2613 12.3747 39.016 12.716C38.7707 13.0467 38.4347 13.2867 38.008 13.436C37.5813 13.5747 37.0907 13.66 36.536 13.692C36.2053 13.7134 35.8853 13.724 35.576 13.724C35.2667 13.7347 34.9413 13.7347 34.6 13.724C34.2907 13.724 33.9707 13.7134 33.64 13.692C33.3093 13.6707 33 13.6334 32.712 13.58C32.4347 13.516 32.2053 13.4307 32.024 13.324C31.8533 13.2174 31.768 13.0734 31.768 12.892V12.332ZM41.5658 13.644C41.3098 13.644 41.1444 13.6067 41.0698 13.532C41.0058 13.4574 40.9738 13.3027 40.9738 13.068V5.58004H42.4778V7.46804C42.6058 7.42538 42.7711 7.39338 42.9738 7.37204C43.1871 7.34004 43.4111 7.31338 43.6458 7.29204C43.8911 7.27071 44.1151 7.26004 44.3177 7.26004C44.9898 7.26004 45.5231 7.31871 45.9178 7.43604C46.3124 7.55338 46.6058 7.72938 46.7978 7.96404C47.0004 8.18804 47.1338 8.47071 47.1978 8.81204C47.2618 9.15338 47.2938 9.55871 47.2938 10.028V12.908C47.2938 13.1214 47.2724 13.2814 47.2298 13.388C47.1978 13.4947 47.1338 13.564 47.0378 13.596C46.9418 13.628 46.7978 13.644 46.6058 13.644H45.8218V9.74004C45.8218 9.26004 45.7578 8.89738 45.6298 8.65204C45.5018 8.40671 45.3044 8.24138 45.0378 8.15604C44.7818 8.06004 44.4564 8.01204 44.0618 8.01204C43.9124 8.01204 43.7311 8.02271 43.5178 8.04404C43.3151 8.05471 43.1178 8.07604 42.9258 8.10804C42.7444 8.12938 42.5951 8.16671 42.4778 8.22004V13.644H41.5658ZM51.8701 13.74C51.2088 13.74 50.6701 13.708 50.2541 13.644C49.8381 13.5907 49.5181 13.4894 49.2941 13.34C49.0701 13.1907 48.9155 12.988 48.8301 12.732C48.7555 12.476 48.7181 12.156 48.7181 11.772C48.7181 11.228 48.7768 10.8174 48.8941 10.54C49.0221 10.252 49.2355 10.0547 49.5341 9.94804C49.8435 9.84138 50.2541 9.78804 50.7661 9.78804C51.0328 9.78804 51.3261 9.79338 51.6461 9.80404C51.9768 9.81471 52.2915 9.83071 52.5901 9.85204C52.8995 9.86271 53.1661 9.87871 53.3901 9.90004C53.6248 9.92138 53.7795 9.94804 53.8541 9.98004C53.8541 9.53204 53.8168 9.18004 53.7421 8.92404C53.6675 8.66804 53.5448 8.47604 53.3741 8.34804C53.2141 8.22004 53.0115 8.13471 52.7661 8.09204C52.5208 8.04938 52.2328 8.02804 51.9021 8.02804C51.5395 8.02804 51.1768 8.03871 50.8141 8.06004C50.4621 8.08138 50.1261 8.11871 49.8061 8.17204C49.4968 8.22538 49.2408 8.29471 49.0381 8.38004V8.07604C49.0381 7.83071 49.1021 7.65471 49.2301 7.54804C49.3688 7.44138 49.5341 7.37204 49.7261 7.34004C49.9395 7.28671 50.2541 7.24404 50.6701 7.21204C51.0861 7.18004 51.5288 7.16938 51.9981 7.18004C52.5955 7.18004 53.1021 7.21204 53.5181 7.27604C53.9448 7.32938 54.2861 7.44671 54.5421 7.62804C54.8088 7.80938 55.0008 8.08138 55.1181 8.44404C55.2461 8.80671 55.3101 9.29204 55.3101 9.90004V13.164C55.2141 13.3667 54.8888 13.516 54.3341 13.612C53.7795 13.6974 52.9581 13.74 51.8701 13.74ZM51.8701 13.068C52.2968 13.068 52.6435 13.0574 52.9101 13.036C53.1875 13.004 53.4008 12.9667 53.5501 12.924C53.6995 12.8707 53.8008 12.8067 53.8541 12.732V10.524C53.7581 10.492 53.5875 10.4654 53.3421 10.444C53.0968 10.412 52.8408 10.3854 52.5741 10.364C52.3075 10.3427 52.0835 10.332 51.9021 10.332C51.5075 10.332 51.1875 10.3587 50.9421 10.412C50.6968 10.4654 50.5208 10.588 50.4141 10.78C50.3075 10.972 50.2541 11.2707 50.2541 11.676C50.2541 12.0067 50.2915 12.2734 50.3661 12.476C50.4408 12.6787 50.5901 12.828 50.8141 12.924C51.0488 13.02 51.4008 13.068 51.8701 13.068ZM58.4625 13.644H57.4385C57.2785 13.644 57.1558 13.6014 57.0705 13.516C56.9852 13.4307 56.9425 13.2707 56.9425 13.036V7.58004C57.1985 7.50538 57.5558 7.42538 58.0145 7.34004C58.4732 7.25471 59.0225 7.21204 59.6625 7.21204C60.2918 7.21204 60.7878 7.25471 61.1505 7.34004C61.5132 7.41471 61.7798 7.53204 61.9505 7.69204C62.1318 7.84138 62.2438 8.02804 62.2865 8.25204C62.3398 8.46538 62.3665 8.71604 62.3665 9.00404H60.9265L60.9105 8.78004C60.9105 8.52404 60.8412 8.34271 60.7025 8.23604C60.5745 8.11871 60.4198 8.04404 60.2385 8.01204C60.0572 7.98004 59.8758 7.96404 59.6945 7.96404C59.4172 7.96404 59.1665 7.99071 58.9425 8.04404C58.7292 8.09738 58.5692 8.16671 58.4625 8.25204V13.644ZM66.7203 13.74C66.0696 13.74 65.5203 13.6974 65.0723 13.612C64.6349 13.5267 64.2829 13.3667 64.0163 13.132C63.7603 12.8974 63.5789 12.572 63.4723 12.156C63.3656 11.74 63.3123 11.2014 63.3123 10.54C63.3123 9.75071 63.4136 9.11071 63.6163 8.62004C63.8189 8.12938 64.1763 7.77204 64.6883 7.54804C65.2109 7.31338 65.9363 7.19604 66.8643 7.19604C67.5896 7.19604 68.1656 7.28671 68.5923 7.46804C69.0296 7.63871 69.3443 7.91071 69.5363 8.28404C69.7283 8.65738 69.8243 9.13204 69.8243 9.70804V10.732H65.3283C65.3283 10.5614 65.3656 10.4227 65.4403 10.316C65.5149 10.2094 65.6536 10.156 65.8563 10.156H68.4803L68.4643 9.74004C68.4536 9.14271 68.3256 8.70538 68.0803 8.42804C67.8456 8.15071 67.4189 8.01204 66.8003 8.01204C66.2883 8.01204 65.8883 8.09204 65.6003 8.25204C65.3123 8.41204 65.1096 8.67338 64.9923 9.03604C64.8749 9.38804 64.8163 9.87871 64.8163 10.508C64.8163 11.1587 64.8803 11.6547 65.0082 11.996C65.1469 12.3267 65.3709 12.5507 65.6803 12.668C66.0003 12.7854 66.4429 12.844 67.0083 12.844C67.2109 12.844 67.4456 12.8387 67.7123 12.828C67.9896 12.8174 68.2669 12.8014 68.5443 12.78C68.8323 12.7587 69.0883 12.732 69.3123 12.7C69.5363 12.668 69.6856 12.636 69.7603 12.604V12.828C69.7603 12.9454 69.7336 13.0627 69.6803 13.18C69.6269 13.2974 69.5149 13.3934 69.3443 13.468C69.1203 13.5747 68.7896 13.644 68.3523 13.676C67.9256 13.7187 67.3816 13.74 66.7203 13.74ZM79.4425 13.756C78.7492 13.756 78.1358 13.708 77.6025 13.612C77.0798 13.5054 76.6372 13.3187 76.2745 13.052C75.9225 12.7854 75.6558 12.4067 75.4745 11.916C75.3038 11.4147 75.2185 10.7587 75.2185 9.94804C75.2185 9.13738 75.3145 8.48138 75.5065 7.98004C75.6985 7.47871 75.9758 7.09471 76.3385 6.82804C76.7118 6.56138 77.1652 6.38538 77.6985 6.30004C78.2425 6.20404 78.8612 6.15604 79.5545 6.15604C80.2478 6.15604 80.8558 6.20938 81.3785 6.31604C81.9012 6.41204 82.3385 6.59338 82.6905 6.86004C83.0532 7.12671 83.3198 7.51071 83.4905 8.01204C83.6718 8.50271 83.7625 9.14804 83.7625 9.94804C83.7625 10.7694 83.6665 11.4307 83.4745 11.932C83.2825 12.4227 82.9998 12.8014 82.6265 13.068C82.2638 13.3347 81.8158 13.516 81.2825 13.612C80.7492 13.708 80.1358 13.756 79.4425 13.756ZM79.4745 12.86C79.9012 12.86 80.2745 12.8227 80.5945 12.748C80.9252 12.6734 81.1972 12.5347 81.4105 12.332C81.6345 12.1294 81.7998 11.836 81.9065 11.452C82.0132 11.068 82.0665 10.5667 82.0665 9.94804C82.0665 9.34004 82.0132 8.84404 81.9065 8.46004C81.7998 8.07604 81.6345 7.78271 81.4105 7.58004C81.1972 7.37738 80.9252 7.23871 80.5945 7.16404C80.2745 7.08938 79.9012 7.05204 79.4745 7.05204C79.0478 7.05204 78.6745 7.08938 78.3545 7.16404C78.0345 7.23871 77.7678 7.37738 77.5545 7.58004C77.3412 7.78271 77.1812 8.07604 77.0745 8.46004C76.9678 8.84404 76.9145 9.34004 76.9145 9.94804C76.9145 10.5667 76.9678 11.068 77.0745 11.452C77.1812 11.836 77.3412 12.1294 77.5545 12.332C77.7678 12.5347 78.0345 12.6734 78.3545 12.748C78.6745 12.8227 79.0478 12.86 79.4745 12.86ZM85.3339 15.356L85.3499 8.55604C85.3499 8.27871 85.3445 8.03338 85.3339 7.82004C85.3339 7.60671 85.3232 7.46804 85.3019 7.40404C85.3872 7.38271 85.5472 7.36138 85.7819 7.34004C86.0272 7.31871 86.3045 7.30271 86.6139 7.29204C86.9232 7.27071 87.2379 7.25471 87.5579 7.24404C87.8885 7.22271 88.1819 7.21204 88.4379 7.21204C89.3445 7.21204 90.0485 7.32404 90.5499 7.54804C91.0619 7.77204 91.4192 8.12938 91.6219 8.62004C91.8352 9.10004 91.9312 9.73471 91.9099 10.524C91.8779 11.3027 91.7712 11.9267 91.5899 12.396C91.4085 12.8547 91.1099 13.1907 90.6939 13.404C90.2885 13.6067 89.7232 13.708 88.9979 13.708C88.5605 13.708 88.1712 13.6654 87.8299 13.58C87.4992 13.4947 87.2325 13.3507 87.0299 13.148C86.8272 12.9347 86.6885 12.652 86.6139 12.3L86.8539 12.14V15.356H85.3339ZM88.6459 12.844C89.2539 12.844 89.6912 12.6574 89.9579 12.284C90.2352 11.9107 90.3739 11.2867 90.3739 10.412C90.3952 9.53738 90.2672 8.92404 89.9899 8.57204C89.7125 8.22004 89.2059 8.04404 88.4699 8.04404C88.3205 8.04404 88.1339 8.04938 87.9099 8.06004C87.6965 8.07071 87.4939 8.08671 87.3019 8.10804C87.1099 8.11871 86.9605 8.13471 86.8539 8.15604V11.068C86.8539 11.548 86.9285 11.916 87.0779 12.172C87.2272 12.428 87.4352 12.604 87.7019 12.7C87.9685 12.796 88.2832 12.844 88.6459 12.844ZM95.3305 13.692C94.9038 13.692 94.5678 13.644 94.3225 13.548C94.0878 13.452 93.9172 13.2814 93.8105 13.036C93.7038 12.7907 93.6505 12.46 93.6505 12.044V8.07604H93.0105V7.26004H93.6505V6.20404C93.6505 6.01204 93.6665 5.87338 93.6985 5.78804C93.7305 5.69204 93.7838 5.63338 93.8585 5.61204C93.9438 5.58004 94.0665 5.56404 94.2265 5.56404H95.1545C95.1545 5.58538 95.1545 5.63338 95.1545 5.70804C95.1545 5.77204 95.1545 5.86804 95.1545 5.99604V7.26004H96.6585V8.07604H95.1545V11.9C95.1545 12.316 95.1972 12.6147 95.2825 12.796C95.3678 12.9667 95.5705 13.052 95.8905 13.052C95.9972 13.052 96.1145 13.0414 96.2425 13.02C96.3812 12.9987 96.4772 12.9774 96.5305 12.956V13.58C96.4665 13.5907 96.3278 13.612 96.1145 13.644C95.9012 13.676 95.6398 13.692 95.3305 13.692ZM99.336 13.708C98.7707 13.708 98.3867 13.5747 98.184 13.308C97.9813 13.0307 97.88 12.62 97.88 12.076L97.896 7.26004H99.384V11.996C99.384 12.4014 99.432 12.6787 99.528 12.828C99.6347 12.9774 99.8107 13.052 100.056 13.052C100.152 13.052 100.259 13.0414 100.376 13.02C100.493 12.9987 100.568 12.9827 100.6 12.972V13.58C100.557 13.5907 100.488 13.6067 100.392 13.628C100.296 13.6494 100.163 13.6654 99.992 13.676C99.8213 13.6974 99.6027 13.708 99.336 13.708ZM98.664 6.38004C98.4187 6.38004 98.232 6.34804 98.104 6.28404C97.9867 6.20938 97.928 6.07604 97.928 5.88404C97.928 5.69204 97.9867 5.56404 98.104 5.50004C98.2213 5.42538 98.408 5.38804 98.664 5.38804C98.9093 5.38804 99.0853 5.42538 99.192 5.50004C99.3093 5.56404 99.368 5.69204 99.368 5.88404C99.368 6.07604 99.3093 6.20938 99.192 6.28404C99.0853 6.34804 98.9093 6.38004 98.664 6.38004ZM104.688 13.74C104.155 13.74 103.68 13.7027 103.264 13.628C102.859 13.5427 102.507 13.388 102.208 13.164C101.92 12.94 101.701 12.6094 101.552 12.172C101.403 11.7347 101.328 11.164 101.328 10.46C101.328 9.75604 101.403 9.18538 101.552 8.74804C101.701 8.31071 101.92 7.98004 102.208 7.75604C102.507 7.53204 102.859 7.38271 103.264 7.30804C103.68 7.22271 104.155 7.18004 104.688 7.18004C105.2 7.18004 105.659 7.22271 106.064 7.30804C106.48 7.38271 106.832 7.53204 107.12 7.75604C107.408 7.98004 107.627 8.31071 107.776 8.74804C107.936 9.18538 108.016 9.75604 108.016 10.46C108.016 11.1747 107.936 11.7507 107.776 12.188C107.627 12.6254 107.408 12.956 107.12 13.18C106.832 13.3934 106.48 13.5427 106.064 13.628C105.659 13.7027 105.2 13.74 104.688 13.74ZM104.688 12.94C105.072 12.94 105.397 12.8814 105.664 12.764C105.941 12.6467 106.149 12.412 106.288 12.06C106.427 11.708 106.496 11.1747 106.496 10.46C106.496 9.74538 106.427 9.21204 106.288 8.86004C106.149 8.50804 105.941 8.27338 105.664 8.15604C105.397 8.03871 105.072 7.98004 104.688 7.98004C104.304 7.98004 103.973 8.03871 103.696 8.15604C103.419 8.27338 103.205 8.50804 103.056 8.86004C102.917 9.21204 102.848 9.74538 102.848 10.46C102.848 11.1747 102.917 11.708 103.056 12.06C103.205 12.412 103.419 12.6467 103.696 12.764C103.973 12.8814 104.304 12.94 104.688 12.94ZM109.984 13.644C109.686 13.644 109.536 13.4947 109.536 13.196V7.69204C109.856 7.56404 110.288 7.45204 110.832 7.35604C111.376 7.24938 111.995 7.19604 112.688 7.19604C113.371 7.19604 113.915 7.23871 114.32 7.32404C114.736 7.40938 115.051 7.54804 115.264 7.74004C115.478 7.92138 115.616 8.16138 115.68 8.46004C115.755 8.75871 115.792 9.12671 115.792 9.56404V13.036C115.792 13.1854 115.776 13.308 115.744 13.404C115.723 13.5 115.664 13.564 115.568 13.596C115.483 13.628 115.35 13.644 115.168 13.644H114.288V9.24404C114.288 8.82804 114.16 8.52938 113.904 8.34804C113.648 8.16671 113.243 8.07604 112.688 8.07604C112.518 8.07604 112.326 8.09204 112.112 8.12404C111.899 8.14538 111.696 8.18271 111.504 8.23604C111.312 8.28938 111.158 8.35871 111.04 8.44404V13.644H109.984Z" fill="#1C274C"/>
<circle cx="121" cy="9.64404" r="1" fill="black" fill-opacity="0.4"/>
</svg>
